<?xml version="1.0" encoding="utf-8" standalone="no"?>
<!DOCTYPE svg PUBLIC "-//W3C//DTD SVG 1.1//EN"
  "http://www.w3.org/Graphics/SVG/1.1/DTD/svg11.dtd">
<svg xmlns:xlink="http://www.w3.org/1999/xlink" width="1152pt" height="648pt" viewBox="0 0 1152 648" xmlns="http://www.w3.org/2000/svg" version="1.1">
 <metadata>
  <rdf:RDF xmlns:dc="http://purl.org/dc/elements/1.1/" xmlns:cc="http://creativecommons.org/ns#" xmlns:rdf="http://www.w3.org/1999/02/22-rdf-syntax-ns#">
   <cc:Work>
    <dc:type rdf:resource="http://purl.org/dc/dcmitype/StillImage"/>
    <dc:date>2025-05-15T15:03:09.336881</dc:date>
    <dc:format>image/svg+xml</dc:format>
    <dc:creator>
     <cc:Agent>
      <dc:title>Matplotlib v3.10.1, https://matplotlib.org/</dc:title>
     </cc:Agent>
    </dc:creator>
   </cc:Work>
  </rdf:RDF>
 </metadata>
 <defs>
  <style type="text/css">*{stroke-linejoin: round; stroke-linecap: butt}</style>
 </defs>
 <g id="figure_1">
  <g id="patch_1">
   <path d="M 0 648 
L 1152 648 
L 1152 0 
L 0 0 
z
" style="fill: #ffffff"/>
  </g>
  <g id="axes_1">
   <g id="patch_2">
    <path d="M 47.72 606.04 
L 1141.2 606.04 
L 1141.2 26.88 
L 47.72 26.88 
z
" style="fill: #ffffff"/>
   </g>
   <g id="FillBetweenPolyCollection_1"/>
   <g id="FillBetweenPolyCollection_2"/>
   <g id="FillBetweenPolyCollection_3"/>
   <g id="FillBetweenPolyCollection_4"/>
   <g id="FillBetweenPolyCollection_5"/>
   <g id="matplotlib.axis_1">
    <g id="xtick_1">
     <g id="line2d_1">
      <path d="M 95.62278 606.04 
L 95.62278 26.88 
" clip-path="url(#p0a39caa026)" style="fill: none; stroke-dasharray: 0.8,1.32; stroke-dashoffset: 0; stroke: #b0b0b0; stroke-opacity: 0.7; stroke-width: 0.8"/>
     </g>
     <g id="line2d_2">
      <defs>
       <path id="md3944a63ae" d="M 0 0 
L 0 3.5 
" style="stroke: #000000; stroke-width: 0.8"/>
      </defs>
      <g>
       <use xlink:href="#md3944a63ae" x="95.62278" y="606.04" style="stroke: #000000; stroke-width: 0.8"/>
      </g>
     </g>
     <g id="text_1">
      <!-- 0 -->
      <g transform="translate(92.44153 620.638438) scale(0.1 -0.1)">
       <defs>
        <path id="DejaVuSans-30" d="M 2034 4250 
Q 1547 4250 1301 3770 
Q 1056 3291 1056 2328 
Q 1056 1369 1301 889 
Q 1547 409 2034 409 
Q 2525 409 2770 889 
Q 3016 1369 3016 2328 
Q 3016 3291 2770 3770 
Q 2525 4250 2034 4250 
z
M 2034 4750 
Q 2819 4750 3233 4129 
Q 3647 3509 3647 2328 
Q 3647 1150 3233 529 
Q 2819 -91 2034 -91 
Q 1250 -91 836 529 
Q 422 1150 422 2328 
Q 422 3509 836 4129 
Q 1250 4750 2034 4750 
z
" transform="scale(0.015625)"/>
       </defs>
       <use xlink:href="#DejaVuSans-30"/>
      </g>
     </g>
    </g>
    <g id="xtick_2">
     <g id="line2d_3">
      <path d="M 275.708419 606.04 
L 275.708419 26.88 
" clip-path="url(#p0a39caa026)" style="fill: none; stroke-dasharray: 0.8,1.32; stroke-dashoffset: 0; stroke: #b0b0b0; stroke-opacity: 0.7; stroke-width: 0.8"/>
     </g>
     <g id="line2d_4">
      <g>
       <use xlink:href="#md3944a63ae" x="275.708419" y="606.04" style="stroke: #000000; stroke-width: 0.8"/>
      </g>
     </g>
     <g id="text_2">
      <!-- 100 -->
      <g transform="translate(266.164669 620.638438) scale(0.1 -0.1)">
       <defs>
        <path id="DejaVuSans-31" d="M 794 531 
L 1825 531 
L 1825 4091 
L 703 3866 
L 703 4441 
L 1819 4666 
L 2450 4666 
L 2450 531 
L 3481 531 
L 3481 0 
L 794 0 
L 794 531 
z
" transform="scale(0.015625)"/>
       </defs>
       <use xlink:href="#DejaVuSans-31"/>
       <use xlink:href="#DejaVuSans-30" transform="translate(63.623047 0)"/>
       <use xlink:href="#DejaVuSans-30" transform="translate(127.246094 0)"/>
      </g>
     </g>
    </g>
    <g id="xtick_3">
     <g id="line2d_5">
      <path d="M 455.794058 606.04 
L 455.794058 26.88 
" clip-path="url(#p0a39caa026)" style="fill: none; stroke-dasharray: 0.8,1.32; stroke-dashoffset: 0; stroke: #b0b0b0; stroke-opacity: 0.7; stroke-width: 0.8"/>
     </g>
     <g id="line2d_6">
      <g>
       <use xlink:href="#md3944a63ae" x="455.794058" y="606.04" style="stroke: #000000; stroke-width: 0.8"/>
      </g>
     </g>
     <g id="text_3">
      <!-- 200 -->
      <g transform="translate(446.250308 620.638438) scale(0.1 -0.1)">
       <defs>
        <path id="DejaVuSans-32" d="M 1228 531 
L 3431 531 
L 3431 0 
L 469 0 
L 469 531 
Q 828 903 1448 1529 
Q 2069 2156 2228 2338 
Q 2531 2678 2651 2914 
Q 2772 3150 2772 3378 
Q 2772 3750 2511 3984 
Q 2250 4219 1831 4219 
Q 1534 4219 1204 4116 
Q 875 4013 500 3803 
L 500 4441 
Q 881 4594 1212 4672 
Q 1544 4750 1819 4750 
Q 2544 4750 2975 4387 
Q 3406 4025 3406 3419 
Q 3406 3131 3298 2873 
Q 3191 2616 2906 2266 
Q 2828 2175 2409 1742 
Q 1991 1309 1228 531 
z
" transform="scale(0.015625)"/>
       </defs>
       <use xlink:href="#DejaVuSans-32"/>
       <use xlink:href="#DejaVuSans-30" transform="translate(63.623047 0)"/>
       <use xlink:href="#DejaVuSans-30" transform="translate(127.246094 0)"/>
      </g>
     </g>
    </g>
    <g id="xtick_4">
     <g id="line2d_7">
      <path d="M 635.879697 606.04 
L 635.879697 26.88 
" clip-path="url(#p0a39caa026)" style="fill: none; stroke-dasharray: 0.8,1.32; stroke-dashoffset: 0; stroke: #b0b0b0; stroke-opacity: 0.7; stroke-width: 0.8"/>
     </g>
     <g id="line2d_8">
      <g>
       <use xlink:href="#md3944a63ae" x="635.879697" y="606.04" style="stroke: #000000; stroke-width: 0.8"/>
      </g>
     </g>
     <g id="text_4">
      <!-- 300 -->
      <g transform="translate(626.335947 620.638438) scale(0.1 -0.1)">
       <defs>
        <path id="DejaVuSans-33" d="M 2597 2516 
Q 3050 2419 3304 2112 
Q 3559 1806 3559 1356 
Q 3559 666 3084 287 
Q 2609 -91 1734 -91 
Q 1441 -91 1130 -33 
Q 819 25 488 141 
L 488 750 
Q 750 597 1062 519 
Q 1375 441 1716 441 
Q 2309 441 2620 675 
Q 2931 909 2931 1356 
Q 2931 1769 2642 2001 
Q 2353 2234 1838 2234 
L 1294 2234 
L 1294 2753 
L 1863 2753 
Q 2328 2753 2575 2939 
Q 2822 3125 2822 3475 
Q 2822 3834 2567 4026 
Q 2313 4219 1838 4219 
Q 1578 4219 1281 4162 
Q 984 4106 628 3988 
L 628 4550 
Q 988 4650 1302 4700 
Q 1616 4750 1894 4750 
Q 2613 4750 3031 4423 
Q 3450 4097 3450 3541 
Q 3450 3153 3228 2886 
Q 3006 2619 2597 2516 
z
" transform="scale(0.015625)"/>
       </defs>
       <use xlink:href="#DejaVuSans-33"/>
       <use xlink:href="#DejaVuSans-30" transform="translate(63.623047 0)"/>
       <use xlink:href="#DejaVuSans-30" transform="translate(127.246094 0)"/>
      </g>
     </g>
    </g>
    <g id="xtick_5">
     <g id="line2d_9">
      <path d="M 815.965336 606.04 
L 815.965336 26.88 
" clip-path="url(#p0a39caa026)" style="fill: none; stroke-dasharray: 0.8,1.32; stroke-dashoffset: 0; stroke: #b0b0b0; stroke-opacity: 0.7; stroke-width: 0.8"/>
     </g>
     <g id="line2d_10">
      <g>
       <use xlink:href="#md3944a63ae" x="815.965336" y="606.04" style="stroke: #000000; stroke-width: 0.8"/>
      </g>
     </g>
     <g id="text_5">
      <!-- 400 -->
      <g transform="translate(806.421586 620.638438) scale(0.1 -0.1)">
       <defs>
        <path id="DejaVuSans-34" d="M 2419 4116 
L 825 1625 
L 2419 1625 
L 2419 4116 
z
M 2253 4666 
L 3047 4666 
L 3047 1625 
L 3713 1625 
L 3713 1100 
L 3047 1100 
L 3047 0 
L 2419 0 
L 2419 1100 
L 313 1100 
L 313 1709 
L 2253 4666 
z
" transform="scale(0.015625)"/>
       </defs>
       <use xlink:href="#DejaVuSans-34"/>
       <use xlink:href="#DejaVuSans-30" transform="translate(63.623047 0)"/>
       <use xlink:href="#DejaVuSans-30" transform="translate(127.246094 0)"/>
      </g>
     </g>
    </g>
    <g id="xtick_6">
     <g id="line2d_11">
      <path d="M 996.050975 606.04 
L 996.050975 26.88 
" clip-path="url(#p0a39caa026)" style="fill: none; stroke-dasharray: 0.8,1.32; stroke-dashoffset: 0; stroke: #b0b0b0; stroke-opacity: 0.7; stroke-width: 0.8"/>
     </g>
     <g id="line2d_12">
      <g>
       <use xlink:href="#md3944a63ae" x="996.050975" y="606.04" style="stroke: #000000; stroke-width: 0.8"/>
      </g>
     </g>
     <g id="text_6">
      <!-- 500 -->
      <g transform="translate(986.507225 620.638438) scale(0.1 -0.1)">
       <defs>
        <path id="DejaVuSans-35" d="M 691 4666 
L 3169 4666 
L 3169 4134 
L 1269 4134 
L 1269 2991 
Q 1406 3038 1543 3061 
Q 1681 3084 1819 3084 
Q 2600 3084 3056 2656 
Q 3513 2228 3513 1497 
Q 3513 744 3044 326 
Q 2575 -91 1722 -91 
Q 1428 -91 1123 -41 
Q 819 9 494 109 
L 494 744 
Q 775 591 1075 516 
Q 1375 441 1709 441 
Q 2250 441 2565 725 
Q 2881 1009 2881 1497 
Q 2881 1984 2565 2268 
Q 2250 2553 1709 2553 
Q 1456 2553 1204 2497 
Q 953 2441 691 2322 
L 691 4666 
z
" transform="scale(0.015625)"/>
       </defs>
       <use xlink:href="#DejaVuSans-35"/>
       <use xlink:href="#DejaVuSans-30" transform="translate(63.623047 0)"/>
       <use xlink:href="#DejaVuSans-30" transform="translate(127.246094 0)"/>
      </g>
     </g>
    </g>
    <g id="text_7">
     <!-- Epoch -->
     <g transform="translate(579.149063 634.316563) scale(0.1 -0.1)">
      <defs>
       <path id="DejaVuSans-45" d="M 628 4666 
L 3578 4666 
L 3578 4134 
L 1259 4134 
L 1259 2753 
L 3481 2753 
L 3481 2222 
L 1259 2222 
L 1259 531 
L 3634 531 
L 3634 0 
L 628 0 
L 628 4666 
z
" transform="scale(0.015625)"/>
       <path id="DejaVuSans-70" d="M 1159 525 
L 1159 -1331 
L 581 -1331 
L 581 3500 
L 1159 3500 
L 1159 2969 
Q 1341 3281 1617 3432 
Q 1894 3584 2278 3584 
Q 2916 3584 3314 3078 
Q 3713 2572 3713 1747 
Q 3713 922 3314 415 
Q 2916 -91 2278 -91 
Q 1894 -91 1617 61 
Q 1341 213 1159 525 
z
M 3116 1747 
Q 3116 2381 2855 2742 
Q 2594 3103 2138 3103 
Q 1681 3103 1420 2742 
Q 1159 2381 1159 1747 
Q 1159 1113 1420 752 
Q 1681 391 2138 391 
Q 2594 391 2855 752 
Q 3116 1113 3116 1747 
z
" transform="scale(0.015625)"/>
       <path id="DejaVuSans-6f" d="M 1959 3097 
Q 1497 3097 1228 2736 
Q 959 2375 959 1747 
Q 959 1119 1226 758 
Q 1494 397 1959 397 
Q 2419 397 2687 759 
Q 2956 1122 2956 1747 
Q 2956 2369 2687 2733 
Q 2419 3097 1959 3097 
z
M 1959 3584 
Q 2709 3584 3137 3096 
Q 3566 2609 3566 1747 
Q 3566 888 3137 398 
Q 2709 -91 1959 -91 
Q 1206 -91 779 398 
Q 353 888 353 1747 
Q 353 2609 779 3096 
Q 1206 3584 1959 3584 
z
" transform="scale(0.015625)"/>
       <path id="DejaVuSans-63" d="M 3122 3366 
L 3122 2828 
Q 2878 2963 2633 3030 
Q 2388 3097 2138 3097 
Q 1578 3097 1268 2742 
Q 959 2388 959 1747 
Q 959 1106 1268 751 
Q 1578 397 2138 397 
Q 2388 397 2633 464 
Q 2878 531 3122 666 
L 3122 134 
Q 2881 22 2623 -34 
Q 2366 -91 2075 -91 
Q 1284 -91 818 406 
Q 353 903 353 1747 
Q 353 2603 823 3093 
Q 1294 3584 2113 3584 
Q 2378 3584 2631 3529 
Q 2884 3475 3122 3366 
z
" transform="scale(0.015625)"/>
       <path id="DejaVuSans-68" d="M 3513 2113 
L 3513 0 
L 2938 0 
L 2938 2094 
Q 2938 2591 2744 2837 
Q 2550 3084 2163 3084 
Q 1697 3084 1428 2787 
Q 1159 2491 1159 1978 
L 1159 0 
L 581 0 
L 581 4863 
L 1159 4863 
L 1159 2956 
Q 1366 3272 1645 3428 
Q 1925 3584 2291 3584 
Q 2894 3584 3203 3211 
Q 3513 2838 3513 2113 
z
" transform="scale(0.015625)"/>
      </defs>
      <use xlink:href="#DejaVuSans-45"/>
      <use xlink:href="#DejaVuSans-70" transform="translate(63.183594 0)"/>
      <use xlink:href="#DejaVuSans-6f" transform="translate(126.660156 0)"/>
      <use xlink:href="#DejaVuSans-63" transform="translate(187.841797 0)"/>
      <use xlink:href="#DejaVuSans-68" transform="translate(242.822266 0)"/>
     </g>
    </g>
   </g>
   <g id="matplotlib.axis_2">
    <g id="ytick_1">
     <g id="line2d_13">
      <path d="M 47.72 547.020113 
L 1141.2 547.020113 
" clip-path="url(#p0a39caa026)" style="fill: none; stroke-dasharray: 0.8,1.32; stroke-dashoffset: 0; stroke: #b0b0b0; stroke-opacity: 0.7; stroke-width: 0.8"/>
     </g>
     <g id="line2d_14">
      <defs>
       <path id="m92c848a986" d="M 0 0 
L -3.5 0 
" style="stroke: #000000; stroke-width: 0.8"/>
      </defs>
      <g>
       <use xlink:href="#m92c848a986" x="47.72" y="547.020113" style="stroke: #000000; stroke-width: 0.8"/>
      </g>
     </g>
     <g id="text_8">
      <!-- 0.2 -->
      <g transform="translate(24.816875 550.819332) scale(0.1 -0.1)">
       <defs>
        <path id="DejaVuSans-2e" d="M 684 794 
L 1344 794 
L 1344 0 
L 684 0 
L 684 794 
z
" transform="scale(0.015625)"/>
       </defs>
       <use xlink:href="#DejaVuSans-30"/>
       <use xlink:href="#DejaVuSans-2e" transform="translate(63.623047 0)"/>
       <use xlink:href="#DejaVuSans-32" transform="translate(95.410156 0)"/>
      </g>
     </g>
    </g>
    <g id="ytick_2">
     <g id="line2d_15">
      <path d="M 47.72 448.245395 
L 1141.2 448.245395 
" clip-path="url(#p0a39caa026)" style="fill: none; stroke-dasharray: 0.8,1.32; stroke-dashoffset: 0; stroke: #b0b0b0; stroke-opacity: 0.7; stroke-width: 0.8"/>
     </g>
     <g id="line2d_16">
      <g>
       <use xlink:href="#m92c848a986" x="47.72" y="448.245395" style="stroke: #000000; stroke-width: 0.8"/>
      </g>
     </g>
     <g id="text_9">
      <!-- 0.3 -->
      <g transform="translate(24.816875 452.044613) scale(0.1 -0.1)">
       <use xlink:href="#DejaVuSans-30"/>
       <use xlink:href="#DejaVuSans-2e" transform="translate(63.623047 0)"/>
       <use xlink:href="#DejaVuSans-33" transform="translate(95.410156 0)"/>
      </g>
     </g>
    </g>
    <g id="ytick_3">
     <g id="line2d_17">
      <path d="M 47.72 349.470676 
L 1141.2 349.470676 
" clip-path="url(#p0a39caa026)" style="fill: none; stroke-dasharray: 0.8,1.32; stroke-dashoffset: 0; stroke: #b0b0b0; stroke-opacity: 0.7; stroke-width: 0.8"/>
     </g>
     <g id="line2d_18">
      <g>
       <use xlink:href="#m92c848a986" x="47.72" y="349.470676" style="stroke: #000000; stroke-width: 0.8"/>
      </g>
     </g>
     <g id="text_10">
      <!-- 0.4 -->
      <g transform="translate(24.816875 353.269894) scale(0.1 -0.1)">
       <use xlink:href="#DejaVuSans-30"/>
       <use xlink:href="#DejaVuSans-2e" transform="translate(63.623047 0)"/>
       <use xlink:href="#DejaVuSans-34" transform="translate(95.410156 0)"/>
      </g>
     </g>
    </g>
    <g id="ytick_4">
     <g id="line2d_19">
      <path d="M 47.72 250.695957 
L 1141.2 250.695957 
" clip-path="url(#p0a39caa026)" style="fill: none; stroke-dasharray: 0.8,1.32; stroke-dashoffset: 0; stroke: #b0b0b0; stroke-opacity: 0.7; stroke-width: 0.8"/>
     </g>
     <g id="line2d_20">
      <g>
       <use xlink:href="#m92c848a986" x="47.72" y="250.695957" style="stroke: #000000; stroke-width: 0.8"/>
      </g>
     </g>
     <g id="text_11">
      <!-- 0.5 -->
      <g transform="translate(24.816875 254.495176) scale(0.1 -0.1)">
       <use xlink:href="#DejaVuSans-30"/>
       <use xlink:href="#DejaVuSans-2e" transform="translate(63.623047 0)"/>
       <use xlink:href="#DejaVuSans-35" transform="translate(95.410156 0)"/>
      </g>
     </g>
    </g>
    <g id="ytick_5">
     <g id="line2d_21">
      <path d="M 47.72 151.921238 
L 1141.2 151.921238 
" clip-path="url(#p0a39caa026)" style="fill: none; stroke-dasharray: 0.8,1.32; stroke-dashoffset: 0; stroke: #b0b0b0; stroke-opacity: 0.7; stroke-width: 0.8"/>
     </g>
     <g id="line2d_22">
      <g>
       <use xlink:href="#m92c848a986" x="47.72" y="151.921238" style="stroke: #000000; stroke-width: 0.8"/>
      </g>
     </g>
     <g id="text_12">
      <!-- 0.6 -->
      <g transform="translate(24.816875 155.720457) scale(0.1 -0.1)">
       <defs>
        <path id="DejaVuSans-36" d="M 2113 2584 
Q 1688 2584 1439 2293 
Q 1191 2003 1191 1497 
Q 1191 994 1439 701 
Q 1688 409 2113 409 
Q 2538 409 2786 701 
Q 3034 994 3034 1497 
Q 3034 2003 2786 2293 
Q 2538 2584 2113 2584 
z
M 3366 4563 
L 3366 3988 
Q 3128 4100 2886 4159 
Q 2644 4219 2406 4219 
Q 1781 4219 1451 3797 
Q 1122 3375 1075 2522 
Q 1259 2794 1537 2939 
Q 1816 3084 2150 3084 
Q 2853 3084 3261 2657 
Q 3669 2231 3669 1497 
Q 3669 778 3244 343 
Q 2819 -91 2113 -91 
Q 1303 -91 875 529 
Q 447 1150 447 2328 
Q 447 3434 972 4092 
Q 1497 4750 2381 4750 
Q 2619 4750 2861 4703 
Q 3103 4656 3366 4563 
z
" transform="scale(0.015625)"/>
       </defs>
       <use xlink:href="#DejaVuSans-30"/>
       <use xlink:href="#DejaVuSans-2e" transform="translate(63.623047 0)"/>
       <use xlink:href="#DejaVuSans-36" transform="translate(95.410156 0)"/>
      </g>
     </g>
    </g>
    <g id="ytick_6">
     <g id="line2d_23">
      <path d="M 47.72 53.146519 
L 1141.2 53.146519 
" clip-path="url(#p0a39caa026)" style="fill: none; stroke-dasharray: 0.8,1.32; stroke-dashoffset: 0; stroke: #b0b0b0; stroke-opacity: 0.7; stroke-width: 0.8"/>
     </g>
     <g id="line2d_24">
      <g>
       <use xlink:href="#m92c848a986" x="47.72" y="53.146519" style="stroke: #000000; stroke-width: 0.8"/>
      </g>
     </g>
     <g id="text_13">
      <!-- 0.7 -->
      <g transform="translate(24.816875 56.945738) scale(0.1 -0.1)">
       <defs>
        <path id="DejaVuSans-37" d="M 525 4666 
L 3525 4666 
L 3525 4397 
L 1831 0 
L 1172 0 
L 2766 4134 
L 525 4134 
L 525 4666 
z
" transform="scale(0.015625)"/>
       </defs>
       <use xlink:href="#DejaVuSans-30"/>
       <use xlink:href="#DejaVuSans-2e" transform="translate(63.623047 0)"/>
       <use xlink:href="#DejaVuSans-37" transform="translate(95.410156 0)"/>
      </g>
     </g>
    </g>
    <g id="text_14">
     <!-- mAP@50-95 -->
     <g transform="translate(18.737187 347.294375) rotate(-90) scale(0.1 -0.1)">
      <defs>
       <path id="DejaVuSans-6d" d="M 3328 2828 
Q 3544 3216 3844 3400 
Q 4144 3584 4550 3584 
Q 5097 3584 5394 3201 
Q 5691 2819 5691 2113 
L 5691 0 
L 5113 0 
L 5113 2094 
Q 5113 2597 4934 2840 
Q 4756 3084 4391 3084 
Q 3944 3084 3684 2787 
Q 3425 2491 3425 1978 
L 3425 0 
L 2847 0 
L 2847 2094 
Q 2847 2600 2669 2842 
Q 2491 3084 2119 3084 
Q 1678 3084 1418 2786 
Q 1159 2488 1159 1978 
L 1159 0 
L 581 0 
L 581 3500 
L 1159 3500 
L 1159 2956 
Q 1356 3278 1631 3431 
Q 1906 3584 2284 3584 
Q 2666 3584 2933 3390 
Q 3200 3197 3328 2828 
z
" transform="scale(0.015625)"/>
       <path id="DejaVuSans-41" d="M 2188 4044 
L 1331 1722 
L 3047 1722 
L 2188 4044 
z
M 1831 4666 
L 2547 4666 
L 4325 0 
L 3669 0 
L 3244 1197 
L 1141 1197 
L 716 0 
L 50 0 
L 1831 4666 
z
" transform="scale(0.015625)"/>
       <path id="DejaVuSans-50" d="M 1259 4147 
L 1259 2394 
L 2053 2394 
Q 2494 2394 2734 2622 
Q 2975 2850 2975 3272 
Q 2975 3691 2734 3919 
Q 2494 4147 2053 4147 
L 1259 4147 
z
M 628 4666 
L 2053 4666 
Q 2838 4666 3239 4311 
Q 3641 3956 3641 3272 
Q 3641 2581 3239 2228 
Q 2838 1875 2053 1875 
L 1259 1875 
L 1259 0 
L 628 0 
L 628 4666 
z
" transform="scale(0.015625)"/>
       <path id="DejaVuSans-40" d="M 2381 1678 
Q 2381 1231 2603 976 
Q 2825 722 3213 722 
Q 3597 722 3817 978 
Q 4038 1234 4038 1678 
Q 4038 2116 3813 2373 
Q 3588 2631 3206 2631 
Q 2828 2631 2604 2375 
Q 2381 2119 2381 1678 
z
M 4084 744 
Q 3897 503 3655 389 
Q 3413 275 3091 275 
Q 2553 275 2217 664 
Q 1881 1053 1881 1678 
Q 1881 2303 2218 2693 
Q 2556 3084 3091 3084 
Q 3413 3084 3656 2967 
Q 3900 2850 4084 2613 
L 4084 3022 
L 4531 3022 
L 4531 722 
Q 4988 791 5245 1139 
Q 5503 1488 5503 2041 
Q 5503 2375 5404 2669 
Q 5306 2963 5106 3213 
Q 4781 3622 4314 3839 
Q 3847 4056 3297 4056 
Q 2913 4056 2559 3954 
Q 2206 3853 1906 3653 
Q 1416 3334 1139 2817 
Q 863 2300 863 1697 
Q 863 1200 1042 765 
Q 1222 331 1563 0 
Q 1891 -325 2322 -495 
Q 2753 -666 3244 -666 
Q 3647 -666 4036 -530 
Q 4425 -394 4750 -141 
L 5031 -488 
Q 4641 -791 4180 -952 
Q 3719 -1113 3244 -1113 
Q 2666 -1113 2153 -908 
Q 1641 -703 1241 -313 
Q 841 78 631 592 
Q 422 1106 422 1697 
Q 422 2266 634 2781 
Q 847 3297 1241 3688 
Q 1644 4084 2172 4295 
Q 2700 4506 3291 4506 
Q 3953 4506 4520 4234 
Q 5088 3963 5472 3463 
Q 5706 3156 5829 2797 
Q 5953 2438 5953 2053 
Q 5953 1231 5456 756 
Q 4959 281 4084 263 
L 4084 744 
z
" transform="scale(0.015625)"/>
       <path id="DejaVuSans-2d" d="M 313 2009 
L 1997 2009 
L 1997 1497 
L 313 1497 
L 313 2009 
z
" transform="scale(0.015625)"/>
       <path id="DejaVuSans-39" d="M 703 97 
L 703 672 
Q 941 559 1184 500 
Q 1428 441 1663 441 
Q 2288 441 2617 861 
Q 2947 1281 2994 2138 
Q 2813 1869 2534 1725 
Q 2256 1581 1919 1581 
Q 1219 1581 811 2004 
Q 403 2428 403 3163 
Q 403 3881 828 4315 
Q 1253 4750 1959 4750 
Q 2769 4750 3195 4129 
Q 3622 3509 3622 2328 
Q 3622 1225 3098 567 
Q 2575 -91 1691 -91 
Q 1453 -91 1209 -44 
Q 966 3 703 97 
z
M 1959 2075 
Q 2384 2075 2632 2365 
Q 2881 2656 2881 3163 
Q 2881 3666 2632 3958 
Q 2384 4250 1959 4250 
Q 1534 4250 1286 3958 
Q 1038 3666 1038 3163 
Q 1038 2656 1286 2365 
Q 1534 2075 1959 2075 
z
" transform="scale(0.015625)"/>
      </defs>
      <use xlink:href="#DejaVuSans-6d"/>
      <use xlink:href="#DejaVuSans-41" transform="translate(97.412109 0)"/>
      <use xlink:href="#DejaVuSans-50" transform="translate(165.820312 0)"/>
      <use xlink:href="#DejaVuSans-40" transform="translate(226.123047 0)"/>
      <use xlink:href="#DejaVuSans-35" transform="translate(326.123047 0)"/>
      <use xlink:href="#DejaVuSans-30" transform="translate(389.746094 0)"/>
      <use xlink:href="#DejaVuSans-2d" transform="translate(453.369141 0)"/>
      <use xlink:href="#DejaVuSans-39" transform="translate(489.453125 0)"/>
      <use xlink:href="#DejaVuSans-35" transform="translate(553.076172 0)"/>
     </g>
    </g>
   </g>
   <g id="line2d_25">
    <path d="M 97.423636 556.838321 
L 99.224493 452.329729 
L 101.025349 416.123856 
L 102.826206 392.047518 
L 104.627062 362.078281 
L 106.427918 340.478884 
L 108.228775 333.450827 
L 111.830487 315.536072 
L 113.631344 307.428204 
L 115.4322 302.845417 
L 117.233057 294.471266 
L 119.033913 288.26834 
L 120.834769 278.136985 
L 122.635626 276.106082 
L 124.436482 270.518808 
L 126.237339 266.106556 
L 128.038195 261.336738 
L 129.839051 255.049842 
L 131.639908 250.134422 
L 133.440764 245.761924 
L 135.241621 242.61394 
L 137.042477 243.797616 
L 138.843333 239.915108 
L 140.64419 234.986825 
L 142.445046 235.169331 
L 144.245903 231.378548 
L 146.046759 228.765147 
L 147.847615 224.802675 
L 149.648472 221.73488 
L 151.449328 207.236397 
L 153.250184 201.932854 
L 155.051041 195.200369 
L 156.851897 192.460687 
L 158.652754 189.31142 
L 160.45361 190.960629 
L 162.254466 189.23668 
L 164.055323 185.477973 
L 165.856179 184.11126 
L 167.657036 183.980878 
L 169.457892 181.740338 
L 171.258748 181.023892 
L 173.059605 180.553395 
L 174.860461 178.826484 
L 176.661318 175.40394 
L 180.26303 169.549233 
L 182.063887 167.382115 
L 185.665599 171.662353 
L 187.466456 173.690527 
L 189.267312 174.59695 
L 191.068169 169.558452 
L 192.869025 168.363278 
L 194.669881 170.752638 
L 196.470738 168.371509 
L 198.271594 171.951763 
L 200.072451 172.934572 
L 201.873307 173.067259 
L 203.674163 171.968226 
L 205.47502 171.83027 
L 207.275876 168.277014 
L 209.076733 166.773663 
L 210.877589 162.384444 
L 212.678445 160.530442 
L 214.479302 154.366571 
L 216.280158 150.180827 
L 218.081014 149.013639 
L 219.881871 145.591754 
L 221.682727 144.450247 
L 223.483584 144.530584 
L 225.28444 142.343053 
L 227.085296 142.039486 
L 228.886153 145.545659 
L 230.687009 144.515439 
L 232.487866 145.268431 
L 234.288722 146.932456 
L 236.089578 146.460642 
L 237.890435 145.730038 
L 239.691291 141.881446 
L 241.492148 139.064062 
L 246.894717 139.344911 
L 250.49643 134.381153 
L 252.297286 129.89711 
L 254.098142 128.855366 
L 255.898999 128.066485 
L 257.699855 128.173491 
L 259.500711 127.807695 
L 261.301568 128.36248 
L 263.102424 129.494109 
L 264.903281 129.053903 
L 266.704137 128.986407 
L 268.504993 129.177371 
L 270.30585 129.067731 
L 272.106706 128.244279 
L 273.907563 129.731827 
L 277.509275 123.423085 
L 279.310132 122.643753 
L 281.110988 119.555726 
L 282.911845 116.11211 
L 284.712701 117.767245 
L 286.513557 117.384328 
L 288.314414 115.289316 
L 290.11527 117.152866 
L 291.916126 113.158087 
L 293.716983 112.338586 
L 295.517839 110.640978 
L 297.318696 106.419347 
L 299.119552 106.4661 
L 302.721265 109.970627 
L 304.522121 112.81501 
L 306.322978 114.853061 
L 308.123834 114.31869 
L 309.92469 113.132077 
L 315.32726 110.775312 
L 317.128116 108.704335 
L 318.928972 107.47031 
L 320.729829 109.117213 
L 322.530685 109.21533 
L 324.331542 109.656523 
L 326.132398 112.321795 
L 327.933254 111.690624 
L 329.734111 112.890737 
L 331.534967 112.635569 
L 333.335823 111.685027 
L 335.13668 110.438161 
L 336.937536 110.275841 
L 338.738393 107.595424 
L 340.539249 109.177795 
L 342.340105 111.683381 
L 344.140962 111.937232 
L 345.941818 113.607841 
L 349.543531 113.81 
L 351.344387 113.752711 
L 353.145244 113.043838 
L 354.9461 110.571836 
L 356.746957 110.296584 
L 358.547813 110.227112 
L 360.348669 107.629008 
L 362.149526 106.048941 
L 363.950382 107.048871 
L 365.751238 107.355072 
L 369.352951 106.898733 
L 371.153808 109.933093 
L 372.954664 113.462643 
L 374.75552 114.396393 
L 378.357233 118.445827 
L 380.15809 117.633899 
L 381.958946 119.073047 
L 383.759802 117.218387 
L 385.560659 119.34764 
L 387.361515 122.571976 
L 389.162372 126.284918 
L 392.764084 130.494038 
L 396.365797 129.005174 
L 398.166653 128.496813 
L 399.96751 128.889278 
L 401.768366 132.148515 
L 403.569223 133.34764 
L 405.370079 136.024105 
L 407.170935 134.802921 
L 408.971792 134.374568 
L 410.772648 131.458738 
L 412.573505 127.704969 
L 414.374361 129.81381 
L 416.175217 130.546059 
L 417.976074 133.24689 
L 419.77693 135.604642 
L 423.378643 141.898567 
L 425.179499 138.764116 
L 426.980356 135.229957 
L 428.781212 133.366078 
L 430.582069 130.663931 
L 432.382925 127.37144 
L 434.183781 125.436114 
L 435.984638 122.013241 
L 437.785494 121.947062 
L 439.58635 119.335458 
L 441.387207 116.44959 
L 443.188063 114.414502 
L 444.98892 111.805532 
L 450.391489 105.324593 
L 452.192345 103.22168 
L 453.993202 102.244798 
L 455.794058 99.068203 
L 457.594914 100.026647 
L 459.395771 96.918536 
L 462.997484 96.633406 
L 464.79834 96.302511 
L 466.599196 99.242046 
L 468.400053 97.523366 
L 470.200909 97.149339 
L 472.001765 96.562288 
L 473.802622 96.363751 
L 475.603478 96.031209 
L 477.404335 93.453189 
L 479.205191 95.314434 
L 481.006047 99.044826 
L 482.806904 101.090451 
L 484.60776 103.525906 
L 486.408617 105.599846 
L 488.209473 107.268809 
L 490.010329 108.749771 
L 491.811186 111.655724 
L 493.612042 113.642083 
L 495.412899 116.163473 
L 497.213755 117.274688 
L 499.014611 119.656805 
L 500.815468 121.335646 
L 502.616324 124.462854 
L 506.218037 129.924437 
L 508.018893 131.965452 
L 509.81975 134.685049 
L 511.620606 134.080877 
L 513.421462 134.291926 
L 515.222319 134.843747 
L 517.023175 134.666941 
L 518.824032 134.857247 
L 520.624888 134.042684 
L 522.425744 135.121634 
L 524.226601 137.298299 
L 526.027457 135.407422 
L 529.62917 130.128572 
L 531.430026 129.603749 
L 533.230883 128.241975 
L 536.832596 121.385692 
L 538.633452 118.614073 
L 540.434308 115.414102 
L 542.235165 112.805132 
L 544.036021 111.645517 
L 545.836877 108.514688 
L 547.637734 106.455564 
L 551.239447 101.670587 
L 553.040303 98.89864 
L 554.841159 97.07427 
L 556.642016 93.782768 
L 562.044585 83.073283 
L 563.845441 82.33379 
L 565.646298 82.853674 
L 569.248011 87.8362 
L 571.048867 90.77837 
L 572.849723 93.45286 
L 574.65058 90.872206 
L 576.451436 88.912845 
L 578.252292 86.306838 
L 580.053149 87.916208 
L 581.854005 87.954071 
L 583.654862 87.31006 
L 585.455718 87.137204 
L 587.256574 86.587359 
L 589.057431 86.56464 
L 592.659144 85.59138 
L 594.46 85.765882 
L 596.260856 85.386587 
L 598.061713 87.780557 
L 599.862569 87.140497 
L 601.663426 86.852404 
L 603.464282 86.029281 
L 605.265138 85.695423 
L 607.065995 85.108701 
L 608.866851 84.022179 
L 610.667708 83.471345 
L 612.468564 86.439196 
L 614.26942 87.056868 
L 616.070277 87.218858 
L 617.871133 84.844973 
L 621.472846 79.671811 
L 625.074559 73.75323 
L 626.875415 72.686792 
L 628.676271 74.710357 
L 630.477128 75.470922 
L 632.277984 74.931612 
L 634.078841 72.841539 
L 635.879697 72.033562 
L 637.680553 72.059573 
L 639.48141 72.39409 
L 641.282266 72.999579 
L 643.083123 73.408836 
L 648.485692 83.014677 
L 650.286548 86.554434 
L 652.087404 83.975755 
L 653.888261 84.2892 
L 655.689117 83.738037 
L 657.489974 83.830556 
L 659.29083 84.726443 
L 661.091686 86.440843 
L 662.892543 88.713978 
L 664.693399 91.956423 
L 666.494256 92.489477 
L 668.295112 95.265047 
L 671.896825 96.560642 
L 673.697681 97.610617 
L 675.498538 98.301382 
L 677.299394 98.063335 
L 679.10025 97.264906 
L 680.901107 94.999343 
L 682.701963 96.031868 
L 686.303676 98.912797 
L 688.104532 99.41128 
L 689.905389 100.702924 
L 691.706245 103.035654 
L 693.507101 105.750313 
L 695.307958 106.968205 
L 697.108814 108.837352 
L 698.909671 108.866984 
L 702.511383 102.727148 
L 704.31224 99.64373 
L 706.113096 100.715107 
L 707.913953 102.032761 
L 709.714809 104.025377 
L 711.515665 104.369771 
L 713.316522 103.92759 
L 715.117378 102.416666 
L 716.918235 100.594601 
L 720.519947 93.874628 
L 722.320804 92.906307 
L 724.12166 94.916372 
L 727.723373 97.965877 
L 729.524229 97.597447 
L 731.325086 98.259238 
L 734.926798 99.307238 
L 736.727655 97.660663 
L 738.528511 95.192283 
L 740.329368 93.204935 
L 742.130224 92.092732 
L 743.93108 91.438185 
L 745.731937 88.983304 
L 747.532793 85.931824 
L 749.33365 84.199315 
L 751.134506 81.946922 
L 752.935362 78.564547 
L 754.736219 78.259333 
L 756.537075 77.803981 
L 758.337931 77.777641 
L 760.138788 76.398088 
L 761.939644 74.850617 
L 763.740501 73.097366 
L 765.541357 73.129962 
L 767.342213 72.816516 
L 774.545639 73.913904 
L 778.147352 68.604104 
L 779.948208 65.947393 
L 781.749065 62.896571 
L 783.549921 62.123165 
L 785.350777 61.10381 
L 787.151634 62.141603 
L 788.95249 63.368385 
L 790.753347 62.189015 
L 792.554203 61.626329 
L 794.355059 61.716543 
L 796.155916 61.664521 
L 801.558485 60.147013 
L 803.359341 59.554364 
L 806.961054 58.834626 
L 808.76191 58.873806 
L 810.562767 58.646625 
L 812.363623 58.595591 
L 814.16448 58.307169 
L 815.965336 57.760945 
L 817.766192 57.430049 
L 821.367905 55.520405 
L 823.168762 55.10588 
L 824.969618 54.293952 
L 826.770474 53.62393 
L 828.571331 53.205455 
L 830.372187 53.313448 
L 832.173043 55.070321 
L 833.9739 54.907343 
L 835.774756 54.956401 
L 837.575613 55.202679 
L 839.376469 55.779194 
L 841.177325 54.596203 
L 842.978182 54.789143 
L 844.779038 56.270434 
L 846.579895 58.043111 
L 850.181607 63.604128 
L 851.982464 65.46669 
L 853.78332 67.140921 
L 857.385033 68.806592 
L 860.986746 70.071896 
L 862.787602 70.267799 
L 864.588458 70.926298 
L 866.389315 70.466007 
L 868.190171 70.408389 
L 871.791884 70.927615 
L 875.393597 72.382566 
L 877.194453 72.716754 
L 878.99531 73.583338 
L 880.796166 74.728466 
L 882.597022 75.360953 
L 884.397879 75.72642 
L 886.198735 74.172693 
L 887.999592 74.040665 
L 891.601304 73.220505 
L 893.402161 72.522826 
L 895.203017 72.246257 
L 898.80473 68.764119 
L 900.605586 67.270645 
L 904.207299 61.561137 
L 906.008155 59.739402 
L 907.809012 58.267 
L 913.211581 56.480824 
L 915.012437 56.269446 
L 916.813294 56.233887 
L 918.61415 56.597708 
L 920.415007 57.647024 
L 922.215863 59.2317 
L 925.817576 65.951015 
L 927.618432 68.845773 
L 931.220145 75.079445 
L 933.021001 77.970911 
L 934.821858 80.352698 
L 938.42357 85.434987 
L 940.224427 86.127068 
L 942.025283 88.085442 
L 949.228709 88.470992 
L 952.830422 89.004705 
L 954.631278 89.478495 
L 956.432134 89.559819 
L 961.834704 89.450508 
L 963.63556 89.585171 
L 965.436416 89.847254 
L 967.237273 90.249596 
L 970.838986 90.685192 
L 972.639842 90.264412 
L 974.440698 89.553563 
L 976.241555 88.145365 
L 979.843267 81.673316 
L 983.44498 75.809061 
L 990.648406 63.840199 
L 992.449262 61.020181 
L 994.250119 60.089065 
L 996.050975 58.261403 
L 1001.453544 58.908707 
L 1003.254401 58.968959 
L 1006.856113 58.732229 
L 1008.65697 58.251196 
L 1010.457826 58.129374 
L 1012.258682 58.265683 
L 1015.860395 58.932083 
L 1017.661252 59.027236 
L 1021.262964 58.806969 
L 1024.864677 58.391786 
L 1026.665534 58.148471 
L 1030.267246 57.939398 
L 1032.068103 57.961787 
L 1033.868959 57.709252 
L 1037.470672 56.974369 
L 1041.072385 56.612195 
L 1048.27581 56.72381 
L 1051.877523 57.270034 
L 1057.280092 58.514266 
L 1059.080949 58.606785 
L 1060.881805 58.53468 
L 1064.483518 58.1004 
L 1068.085231 57.745799 
L 1069.886087 57.510386 
L 1077.089513 57.576894 
L 1078.890369 57.629903 
L 1080.691225 57.866634 
L 1082.492082 57.571626 
L 1086.093794 56.533175 
L 1089.695507 55.86019 
L 1091.496364 55.958964 
L 1091.496364 55.958964 
" clip-path="url(#p0a39caa026)" style="fill: none; stroke: #1f77b4; stroke-linecap: square"/>
   </g>
   <g id="line2d_26">
    <path d="M 97.423636 579.714545 
L 99.224493 481.888064 
L 101.025349 457.866052 
L 102.826206 438.446942 
L 104.627062 422.698301 
L 106.427918 405.719586 
L 108.228775 393.803592 
L 110.029631 383.198538 
L 111.830487 374.37727 
L 113.631344 367.771656 
L 115.4322 358.897376 
L 117.233057 345.85799 
L 120.834769 333.339353 
L 122.635626 330.474322 
L 124.436482 322.749028 
L 126.237339 313.58582 
L 128.038195 305.583422 
L 129.839051 299.321711 
L 131.639908 299.400783 
L 133.440764 293.449418 
L 137.042477 285.966691 
L 138.843333 282.404288 
L 140.64419 280.970803 
L 142.445046 277.900794 
L 144.245903 273.932892 
L 147.847615 268.889238 
L 149.648472 265.670204 
L 151.449328 251.552004 
L 153.250184 243.346459 
L 155.051041 234.448503 
L 158.652754 221.492882 
L 160.45361 217.080286 
L 162.254466 214.105191 
L 164.055323 210.719853 
L 165.856179 205.04294 
L 169.457892 197.341805 
L 171.258748 198.464544 
L 173.059605 195.364993 
L 176.661318 188.437264 
L 178.462174 185.596503 
L 180.26303 185.851671 
L 182.063887 186.795628 
L 183.864743 187.18052 
L 185.665599 183.69937 
L 187.466456 183.978902 
L 189.267312 182.540084 
L 191.068169 182.339242 
L 192.869025 180.262339 
L 194.669881 175.923495 
L 196.470738 173.7814 
L 198.271594 176.600101 
L 201.873307 172.096633 
L 205.47502 175.646267 
L 207.275876 177.126241 
L 209.076733 178.416239 
L 210.877589 178.374425 
L 212.678445 179.744759 
L 214.479302 180.51586 
L 216.280158 180.793747 
L 218.081014 177.548668 
L 219.881871 177.869357 
L 221.682727 176.658049 
L 223.483584 175.022669 
L 225.28444 174.354952 
L 227.085296 173.56673 
L 228.886153 173.64575 
L 230.687009 170.906397 
L 232.487866 170.575831 
L 234.288722 168.397849 
L 236.089578 165.732907 
L 237.890435 166.125042 
L 241.492148 162.817736 
L 243.293004 161.306812 
L 248.695573 162.893792 
L 250.49643 162.361067 
L 252.297286 160.124149 
L 254.098142 159.351401 
L 255.898999 159.596034 
L 257.699855 155.912724 
L 259.500711 153.577031 
L 261.301568 152.870792 
L 263.102424 152.995248 
L 264.903281 152.421367 
L 266.704137 149.448248 
L 268.504993 147.564285 
L 270.30585 143.615601 
L 272.106706 145.166035 
L 273.907563 143.946496 
L 275.708419 143.18626 
L 277.509275 143.994896 
L 279.310132 141.975611 
L 281.110988 141.090919 
L 282.911845 140.857152 
L 284.712701 141.443545 
L 286.513557 141.552197 
L 288.314414 142.449401 
L 290.11527 142.47607 
L 291.916126 138.64855 
L 293.716983 137.432962 
L 295.517839 137.380611 
L 297.318696 136.751746 
L 299.119552 132.701982 
L 300.920408 130.964206 
L 302.721265 130.557254 
L 304.522121 131.454128 
L 306.322978 128.597234 
L 308.123834 128.98509 
L 309.92469 128.747372 
L 311.725547 128.750006 
L 313.526403 128.417464 
L 315.32726 127.160062 
L 317.128116 125.607324 
L 318.928972 125.511512 
L 320.729829 126.155523 
L 322.530685 128.497801 
L 327.933254 134.073963 
L 329.734111 133.902754 
L 331.534967 133.561652 
L 333.335823 132.033936 
L 335.13668 133.913948 
L 336.937536 134.669575 
L 338.738393 137.22323 
L 340.539249 140.296441 
L 342.340105 142.350955 
L 344.140962 145.287857 
L 345.941818 146.325321 
L 347.742675 146.600244 
L 349.543531 146.086944 
L 351.344387 146.382939 
L 353.145244 147.945885 
L 354.9461 147.572845 
L 356.746957 147.50502 
L 358.547813 147.909338 
L 360.348669 149.913477 
L 362.149526 150.280261 
L 363.950382 149.806471 
L 365.751238 151.860656 
L 367.552095 154.274052 
L 369.352951 154.900283 
L 372.954664 152.103971 
L 374.75552 150.975635 
L 376.556377 146.984807 
L 378.357233 145.27337 
L 380.15809 141.835681 
L 381.958946 140.198654 
L 383.759802 140.649396 
L 385.560659 141.475811 
L 387.361515 142.833634 
L 389.162372 143.020319 
L 390.963228 141.875849 
L 392.764084 139.785117 
L 396.365797 135.086404 
L 398.166653 132.503116 
L 399.96751 132.150161 
L 401.768366 132.824463 
L 403.569223 132.784953 
L 405.370079 133.209355 
L 407.170935 132.45735 
L 408.971792 133.941276 
L 410.772648 134.309047 
L 412.573505 134.232003 
L 414.374361 134.811152 
L 416.175217 135.543402 
L 417.976074 136.150866 
L 419.77693 135.727781 
L 421.577787 133.337762 
L 423.378643 132.813268 
L 425.179499 134.054208 
L 426.980356 134.797653 
L 428.781212 134.893464 
L 430.582069 135.948707 
L 432.382925 135.747536 
L 434.183781 136.118271 
L 435.984638 136.030361 
L 437.785494 135.467674 
L 439.58635 134.445027 
L 441.387207 136.418216 
L 443.188063 134.261964 
L 446.789776 131.63324 
L 448.590632 130.014981 
L 450.391489 129.504645 
L 452.192345 129.417064 
L 453.993202 129.450977 
L 455.794058 128.846476 
L 457.594914 128.496155 
L 461.196627 127.649326 
L 462.997484 129.231697 
L 464.79834 128.342395 
L 468.400053 124.630442 
L 470.200909 123.220268 
L 472.001765 122.007973 
L 473.802622 120.462807 
L 477.404335 119.148445 
L 479.205191 118.66379 
L 481.006047 117.772842 
L 482.806904 117.964794 
L 484.60776 117.640813 
L 486.408617 117.148257 
L 488.209473 116.802545 
L 490.010329 116.93622 
L 491.811186 118.261118 
L 493.612042 118.706922 
L 495.412899 115.450648 
L 497.213755 114.658804 
L 499.014611 114.839562 
L 500.815468 115.350227 
L 502.616324 115.718657 
L 506.218037 114.101056 
L 508.018893 114.119494 
L 509.81975 113.723408 
L 511.620606 113.804732 
L 513.421462 115.26561 
L 515.222319 116.120012 
L 517.023175 113.639779 
L 520.624888 114.03356 
L 524.226601 113.19628 
L 526.027457 113.549564 
L 527.828314 113.487665 
L 529.62917 114.286424 
L 531.430026 114.804003 
L 535.031739 112.856495 
L 538.633452 111.711696 
L 540.434308 111.995838 
L 542.235165 111.335035 
L 544.036021 111.281368 
L 545.836877 109.082313 
L 547.637734 108.173256 
L 549.43859 107.757744 
L 551.239447 108.129137 
L 553.040303 107.863433 
L 554.841159 107.124598 
L 556.642016 106.515487 
L 558.442872 106.833213 
L 560.243729 107.00541 
L 562.044585 107.6323 
L 563.845441 107.32544 
L 565.646298 107.455164 
L 567.447154 107.065992 
L 569.248011 106.370618 
L 571.048867 107.333013 
L 572.849723 110.641637 
L 574.65058 110.46483 
L 576.451436 110.809883 
L 578.252292 111.763388 
L 580.053149 111.438749 
L 581.854005 111.827921 
L 585.455718 110.499072 
L 587.256574 113.20089 
L 589.057431 117.154183 
L 590.858287 119.68084 
L 592.659144 121.121305 
L 594.46 120.437784 
L 598.061713 121.979657 
L 601.663426 124.857294 
L 605.265138 125.562546 
L 607.065995 127.633193 
L 608.866851 131.231556 
L 612.468564 132.688483 
L 614.26942 135.708685 
L 616.070277 137.415183 
L 617.871133 140.212153 
L 619.671989 142.48924 
L 621.472846 141.36683 
L 623.273702 141.140636 
L 625.074559 140.255614 
L 626.875415 137.675948 
L 628.676271 138.202746 
L 630.477128 137.786576 
L 632.277984 137 
L 634.078841 137.108981 
L 635.879697 136.502833 
L 637.680553 136.424801 
L 639.48141 136.988805 
L 641.282266 134.880623 
L 643.083123 131.809717 
L 644.883979 129.552057 
L 646.684835 131.222996 
L 650.286548 131.383669 
L 652.087404 132.681898 
L 653.888261 133.722654 
L 655.689117 131.380706 
L 657.489974 130.568778 
L 659.29083 130.56779 
L 661.091686 129.352202 
L 662.892543 126.447238 
L 664.693399 126.348792 
L 666.494256 125.400226 
L 671.896825 116.788387 
L 673.697681 114.521837 
L 675.498538 114.501423 
L 679.10025 114.666048 
L 680.901107 114.32758 
L 682.701963 114.449731 
L 684.502819 114.199831 
L 686.303676 115.437149 
L 688.104532 117.890055 
L 689.905389 119.350604 
L 691.706245 122.275981 
L 693.507101 121.81174 
L 695.307958 121.637897 
L 697.108814 122.944028 
L 698.909671 125.321865 
L 700.710527 124.917876 
L 702.511383 125.143412 
L 706.113096 124.291644 
L 707.913953 124.029891 
L 709.714809 126.295454 
L 711.515665 126.663225 
L 715.117378 125.70544 
L 716.918235 125.537523 
L 718.719091 125.573082 
L 720.519947 126.427154 
L 725.922516 126.360975 
L 727.723373 126.052139 
L 729.524229 126.021848 
L 731.325086 126.546013 
L 733.125942 126.725783 
L 734.926798 126.377108 
L 736.727655 125.410762 
L 738.528511 124.991628 
L 740.329368 123.661462 
L 742.130224 121.603984 
L 743.93108 120.343619 
L 745.731937 117.450178 
L 749.33365 118.844219 
L 751.134506 117.494297 
L 752.935362 114.741117 
L 754.736219 111.59152 
L 758.337931 110.787823 
L 760.138788 108.56638 
L 761.939644 106.076928 
L 763.740501 104.067521 
L 765.541357 103.477835 
L 769.14307 103.226618 
L 770.943926 102.90165 
L 772.744783 102.949061 
L 776.346495 101.89316 
L 778.147352 101.280098 
L 779.948208 100.896523 
L 781.749065 102.811435 
L 783.549921 104.888668 
L 785.350777 106.577386 
L 788.95249 105.017075 
L 790.753347 105.736155 
L 792.554203 106.609653 
L 794.355059 105.737143 
L 797.956772 103.494298 
L 799.757628 102.504904 
L 801.558485 101.041392 
L 803.359341 100.153737 
L 805.160198 99.670399 
L 806.961054 99.505775 
L 808.76191 99.771808 
L 810.562767 100.209051 
L 812.363623 100.871829 
L 814.16448 101.321254 
L 815.965336 102.81802 
L 817.766192 106.227065 
L 819.567049 109.930788 
L 821.367905 110.304486 
L 823.168762 111.480234 
L 824.969618 114.004257 
L 828.571331 118.419158 
L 830.372187 119.544861 
L 832.173043 122.626961 
L 833.9739 123.985443 
L 837.575613 124.48195 
L 839.376469 124.428612 
L 841.177325 126.958232 
L 842.978182 128.280167 
L 844.779038 126.985889 
L 846.579895 126.31027 
L 850.181607 130.206274 
L 851.982464 130.61158 
L 853.78332 131.170645 
L 855.584177 133.142847 
L 857.385033 133.339738 
L 860.986746 134.170762 
L 862.787602 133.703229 
L 864.588458 133.039133 
L 866.389315 132.734249 
L 868.190171 132.662143 
L 869.991028 131.699419 
L 871.791884 128.935373 
L 873.59274 125.726182 
L 875.393597 125.381459 
L 877.194453 124.224477 
L 880.796166 119.698291 
L 882.597022 117.416595 
L 884.397879 116.613227 
L 886.198735 114.03356 
L 887.999592 113.008279 
L 891.601304 108.208815 
L 895.203017 103.387292 
L 897.003874 102.457822 
L 898.80473 103.123234 
L 900.605586 103.180194 
L 902.406443 101.960985 
L 904.207299 100.576822 
L 907.809012 100.771079 
L 909.609868 99.474496 
L 911.410725 99.372758 
L 915.012437 98.810401 
L 916.813294 98.945722 
L 918.61415 99.277934 
L 920.415007 99.065569 
L 922.215863 98.715248 
L 924.016719 98.777805 
L 925.817576 98.437691 
L 925.817576 98.437691 
" clip-path="url(#p0a39caa026)" style="fill: none; stroke: #ff7f0e; stroke-linecap: square"/>
   </g>
   <g id="line2d_27">
    <path d="M 97.423636 560.986859 
L 99.224493 509.584495 
L 101.025349 454.34638 
L 102.826206 429.818971 
L 104.627062 402.338856 
L 106.427918 393.018803 
L 108.228775 379.546167 
L 110.029631 363.139862 
L 111.830487 359.21535 
L 113.631344 349.31955 
L 115.4322 349.20578 
L 117.233057 336.930402 
L 119.033913 329.480952 
L 120.834769 320.346244 
L 122.635626 314.451745 
L 126.237339 305.322444 
L 128.038195 300.031734 
L 129.839051 293.007407 
L 131.639908 287.127036 
L 133.440764 282.844776 
L 135.241621 279.76805 
L 137.042477 275.980996 
L 138.843333 272.804208 
L 142.445046 264.021806 
L 144.245903 260.198085 
L 146.046759 258.938354 
L 147.847615 255.416026 
L 149.648472 251.288276 
L 151.449328 238.368213 
L 153.250184 227.840475 
L 156.851897 214.882878 
L 158.652754 210.729072 
L 162.254466 200.304058 
L 164.055323 196.776813 
L 165.856179 191.21415 
L 167.657036 187.717854 
L 169.457892 181.154604 
L 171.258748 180.213939 
L 173.059605 176.25439 
L 174.860461 174.630533 
L 176.661318 172.58886 
L 178.462174 169.756001 
L 180.26303 167.495377 
L 182.063887 164.946989 
L 185.665599 162.362055 
L 187.466456 159.684602 
L 189.267312 157.72985 
L 191.068169 155.184425 
L 192.869025 151.920909 
L 194.669881 151.268337 
L 196.470738 149.699465 
L 198.271594 150.354342 
L 200.072451 147.055924 
L 201.873307 147.04901 
L 203.674163 146.429693 
L 205.47502 145.966439 
L 207.275876 148.936266 
L 209.076733 150.727381 
L 210.877589 150.853812 
L 212.678445 149.615836 
L 214.479302 147.534982 
L 216.280158 147.76809 
L 218.081014 150.005667 
L 219.881871 148.362385 
L 221.682727 147.397026 
L 223.483584 146.718773 
L 227.085296 147.35159 
L 228.886153 147.127701 
L 230.687009 148.65805 
L 232.487866 147.51819 
L 234.288722 146.850802 
L 236.089578 145.896309 
L 237.890435 148.11018 
L 239.691291 147.414147 
L 241.492148 147.559676 
L 243.293004 148.209613 
L 245.09386 147.458925 
L 246.894717 147.333152 
L 248.695573 147.520495 
L 250.49643 148.108863 
L 252.297286 145.30827 
L 254.098142 144.203969 
L 255.898999 143.281084 
L 257.699855 143.592883 
L 259.500711 143.618235 
L 261.301568 141.397121 
L 263.102424 141.045812 
L 264.903281 141.471202 
L 266.704137 141.657557 
L 268.504993 141.970014 
L 270.30585 142.516238 
L 272.106706 142.02467 
L 273.907563 143.12502 
L 277.509275 142.298605 
L 279.310132 140.351097 
L 281.110988 140.085722 
L 282.911845 141.571294 
L 284.712701 137.796782 
L 286.513557 137.935396 
L 288.314414 137.431316 
L 290.11527 138.582371 
L 291.916126 136.426118 
L 293.716983 136.701371 
L 295.517839 136.369158 
L 297.318696 134.86021 
L 300.920408 139.614896 
L 302.721265 140.44592 
L 306.322978 143.74335 
L 308.123834 145.522612 
L 309.92469 145.205545 
L 311.725547 146.633827 
L 313.526403 148.687354 
L 315.32726 149.831165 
L 317.128116 149.896685 
L 318.928972 147.542884 
L 320.729829 146.532418 
L 322.530685 146.142588 
L 324.331542 145.367865 
L 326.132398 142.161966 
L 327.933254 141.027374 
L 329.734111 142.995296 
L 331.534967 142.486935 
L 333.335823 141.303285 
L 335.13668 140.679029 
L 336.937536 138.157969 
L 338.738393 138.366712 
L 340.539249 138.286705 
L 342.340105 137.833 
L 344.140962 136.891677 
L 345.941818 135.695844 
L 347.742675 135.243785 
L 349.543531 138.531337 
L 351.344387 137.768796 
L 353.145244 135.482491 
L 354.9461 132.876484 
L 358.547813 128.370052 
L 360.348669 127.281884 
L 362.149526 125.766351 
L 365.751238 126.154535 
L 367.552095 122.081395 
L 369.352951 118.974272 
L 371.153808 116.115073 
L 372.954664 115.979422 
L 374.75552 118.458997 
L 376.556377 120.675831 
L 378.357233 122.436655 
L 380.15809 122.099833 
L 381.958946 124.185626 
L 383.759802 123.768467 
L 385.560659 126.567743 
L 387.361515 130.547706 
L 389.162372 132.526822 
L 390.963228 132.319724 
L 392.764084 135.318525 
L 394.564941 137.87679 
L 396.365797 136.736271 
L 401.768366 144.824274 
L 403.569223 143.94946 
L 405.370079 146.505091 
L 407.170935 149.293172 
L 408.971792 151.580136 
L 410.772648 154.479503 
L 412.573505 155.136684 
L 414.374361 154.738293 
L 416.175217 154.868017 
L 417.976074 154.452175 
L 419.77693 151.725335 
L 421.577787 151.83695 
L 423.378643 151.356576 
L 425.179499 154.25265 
L 426.980356 156.036193 
L 428.781212 156.30914 
L 430.582069 155.067871 
L 432.382925 154.412995 
L 434.183781 158.073586 
L 435.984638 158.450247 
L 437.785494 158.385385 
L 439.58635 158.443662 
L 441.387207 155.502151 
L 443.188063 153.372568 
L 444.98892 153.764374 
L 446.789776 151.844194 
L 448.590632 147.93469 
L 450.391489 148.416052 
L 452.192345 145.682956 
L 453.993202 144.97079 
L 455.794058 142.045412 
L 457.594914 141.739211 
L 459.395771 141.807036 
L 461.196627 140.35834 
L 462.997484 141.226899 
L 464.79834 141.082688 
L 466.599196 139.514804 
L 468.400053 142.150443 
L 470.200909 144.504244 
L 472.001765 145.958867 
L 473.802622 148.555654 
L 475.603478 150.42513 
L 477.404335 153.644198 
L 479.205191 154.198324 
L 481.006047 155.070834 
L 482.806904 152.03417 
L 484.60776 150.804425 
L 486.408617 148.533924 
L 488.209473 147.433902 
L 490.010329 147.447731 
L 491.811186 148.768349 
L 493.612042 148.465769 
L 495.412899 150.391876 
L 497.213755 152.7358 
L 499.014611 154.381058 
L 500.815468 154.944074 
L 502.616324 157.750263 
L 504.417181 160.34277 
L 506.218037 162.313326 
L 508.018893 160.248605 
L 509.81975 159.115659 
L 513.421462 153.103242 
L 515.222319 151.630511 
L 517.023175 147.589308 
L 518.824032 143.195808 
L 520.624888 142.526445 
L 522.425744 138.951788 
L 524.226601 135.746878 
L 526.027457 133.726276 
L 529.62917 127.999647 
L 531.430026 124.703535 
L 533.230883 120.557301 
L 535.031739 116.692576 
L 536.832596 116.08149 
L 538.633452 117.842972 
L 540.434308 118.281532 
L 542.235165 114.853391 
L 544.036021 112.37184 
L 545.836877 108.767222 
L 547.637734 105.589639 
L 553.040303 106.155618 
L 554.841159 107.065333 
L 556.642016 105.136922 
L 560.243729 100.225513 
L 562.044585 103.069237 
L 565.646298 103.653654 
L 567.447154 104.402367 
L 569.248011 107.109782 
L 571.048867 108.919993 
L 572.849723 110.131959 
L 576.451436 111.378167 
L 578.252292 112.162109 
L 580.053149 112.292162 
L 581.854005 114.211026 
L 583.654862 114.879401 
L 585.455718 116.392959 
L 587.256574 119.125068 
L 589.057431 122.892994 
L 590.858287 126.193716 
L 592.659144 126.832459 
L 594.46 128.518214 
L 596.260856 132.169257 
L 598.061713 134.641259 
L 599.862569 137.386209 
L 601.663426 140.531525 
L 603.464282 140.897321 
L 605.265138 141.881446 
L 607.065995 141.947625 
L 608.866851 140.635897 
L 610.667708 140.011312 
L 612.468564 140.028762 
L 614.26942 143.121727 
L 616.070277 141.633851 
L 619.671989 146.226217 
L 621.472846 146.372403 
L 623.273702 146.758283 
L 625.074559 148.911243 
L 626.875415 148.64949 
L 628.676271 148.719949 
L 630.477128 148.591213 
L 632.277984 149.615507 
L 634.078841 149.928623 
L 635.879697 148.635332 
L 637.680553 149.261235 
L 639.48141 150.476493 
L 641.282266 150.996377 
L 643.083123 148.142446 
L 644.883979 145.958867 
L 646.684835 143.969214 
L 648.485692 143.74302 
L 650.286548 142.526774 
L 652.087404 141.742503 
L 655.689117 141.31843 
L 659.29083 139.268196 
L 661.091686 139.257002 
L 662.892543 140.422214 
L 664.693399 143.322899 
L 666.494256 145.396838 
L 668.295112 144.706732 
L 670.095968 146.462947 
L 671.896825 147.030243 
L 673.697681 147.348627 
L 675.498538 149.221396 
L 679.10025 147.99198 
L 680.901107 150.986829 
L 682.701963 154.322451 
L 684.502819 157.275486 
L 686.303676 159.049151 
L 688.104532 161.746359 
L 689.905389 164.127818 
L 691.706245 165.893251 
L 693.507101 165.675947 
L 695.307958 165.708542 
L 697.108814 168.080782 
L 698.909671 169.935113 
L 700.710527 171.155968 
L 702.511383 171.296887 
L 704.31224 172.68961 
L 706.113096 172.805506 
L 707.913953 172.616188 
L 709.714809 170.752967 
L 711.515665 168.004396 
L 713.316522 164.94666 
L 715.117378 162.122032 
L 718.719091 155.305589 
L 722.320804 150.257872 
L 724.12166 146.779355 
L 729.524229 137.930787 
L 731.325086 135.42158 
L 733.125942 133.509301 
L 738.528511 125.087768 
L 740.329368 123.636439 
L 743.93108 124.226782 
L 745.731937 123.334517 
L 747.532793 121.390631 
L 749.33365 119.206392 
L 751.134506 119.03222 
L 752.935362 119.204746 
L 754.736219 118.398745 
L 756.537075 116.684674 
L 758.337931 114.478376 
L 761.939644 110.584347 
L 763.740501 111.032126 
L 769.14307 120.423297 
L 770.943926 121.847628 
L 772.744783 122.176219 
L 774.545639 121.891419 
L 776.346495 121.968463 
L 778.147352 123.570589 
L 781.749065 125.757132 
L 785.350777 131.39223 
L 787.151634 133.610051 
L 788.95249 136.538063 
L 788.95249 136.538063 
" clip-path="url(#p0a39caa026)" style="fill: none; stroke: #2ca02c; stroke-linecap: square"/>
   </g>
   <g id="line2d_28">
    <path d="M 97.423636 566.370081 
L 99.224493 496.081991 
L 101.025349 465.208306 
L 102.826206 420.48229 
L 104.627062 402.400097 
L 106.427918 386.565521 
L 108.228775 372.859118 
L 113.631344 336.869985 
L 115.4322 336.307597 
L 117.233057 324.550637 
L 119.033913 314.847097 
L 120.834769 308.845339 
L 122.635626 304.927228 
L 124.436482 300.017261 
L 126.237339 297.935257 
L 128.038195 294.413099 
L 129.839051 288.172645 
L 131.639908 287.275692 
L 133.440764 281.692404 
L 135.241621 279.688133 
L 137.042477 276.920645 
L 138.843333 273.910074 
L 140.64419 268.653596 
L 142.445046 266.752547 
L 144.245903 261.585687 
L 146.046759 257.626414 
L 147.847615 255.180329 
L 149.648472 254.17579 
L 151.449328 243.259208 
L 153.250184 235.51988 
L 155.051041 230.256504 
L 156.851897 229.895976 
L 158.652754 225.026054 
L 160.45361 221.944282 
L 162.254466 217.694665 
L 164.055323 215.98257 
L 165.856179 218.23595 
L 167.657036 216.747415 
L 169.457892 211.557791 
L 171.258748 213.923117 
L 173.059605 214.335995 
L 174.860461 210.654661 
L 176.661318 207.597913 
L 178.462174 207.256811 
L 180.26303 202.764537 
L 182.063887 199.754871 
L 183.864743 198.398694 
L 185.665599 194.438486 
L 187.466456 196.607579 
L 189.267312 194.59488 
L 191.068169 194.375929 
L 192.869025 192.051101 
L 194.669881 195.085132 
L 196.470738 194.024291 
L 198.271594 196.675734 
L 200.072451 195.801248 
L 201.873307 197.718136 
L 203.674163 197.211422 
L 205.47502 197.154133 
L 207.275876 198.693701 
L 209.076733 198.39178 
L 210.877589 196.872625 
L 212.678445 194.326871 
L 214.479302 191.574349 
L 216.280158 193.187998 
L 218.081014 191.128875 
L 219.881871 184.438205 
L 221.682727 182.014931 
L 223.483584 180.301519 
L 225.28444 178.838337 
L 227.085296 176.32024 
L 228.886153 181.237904 
L 230.687009 182.4716 
L 232.487866 179.271299 
L 234.288722 182.459418 
L 236.089578 184.285104 
L 237.890435 187.497587 
L 239.691291 188.351 
L 241.492148 184.014132 
L 243.293004 182.352741 
L 245.09386 182.63392 
L 246.894717 181.30507 
L 248.695573 176.588907 
L 250.49643 175.686764 
L 252.297286 172.545399 
L 254.098142 173.795887 
L 255.898999 172.494695 
L 257.699855 169.479432 
L 259.500711 167.783799 
L 261.301568 163.307329 
L 263.102424 161.626513 
L 264.903281 159.65003 
L 266.704137 159.022811 
L 268.504993 160.828413 
L 270.30585 160.166951 
L 272.106706 161.554078 
L 273.907563 163.626042 
L 275.708419 164.274992 
L 277.509275 163.702757 
L 279.310132 161.758212 
L 281.110988 161.203098 
L 282.911845 156.609086 
L 284.712701 153.505584 
L 286.513557 155.329295 
L 288.314414 153.985959 
L 290.11527 153.337338 
L 291.916126 152.83655 
L 293.716983 152.138542 
L 295.517839 154.834434 
L 297.318696 155.666446 
L 299.119552 151.688459 
L 300.920408 154.417934 
L 302.721265 158.082476 
L 304.522121 159.204886 
L 306.322978 159.52294 
L 308.123834 160.337173 
L 309.92469 157.406527 
L 311.725547 157.319935 
L 313.526403 154.866041 
L 315.32726 155.554501 
L 317.128116 152.273205 
L 318.928972 150.434678 
L 320.729829 150.573292 
L 322.530685 149.363302 
L 324.331542 146.963076 
L 326.132398 146.320382 
L 327.933254 146.348697 
L 331.534967 150.274993 
L 333.335823 147.219232 
L 335.13668 146.889654 
L 336.937536 148.042355 
L 338.738393 149.878906 
L 340.539249 150.532795 
L 342.340105 150.334587 
L 344.140962 147.33842 
L 345.941818 144.062721 
L 347.742675 143.263634 
L 351.344387 138.515862 
L 353.145244 138.549775 
L 354.9461 135.876273 
L 358.547813 127.636156 
L 360.348669 127.220644 
L 362.149526 124.533642 
L 363.950382 123.195245 
L 365.751238 122.637497 
L 369.352951 120.87338 
L 371.153808 120.978411 
L 372.954664 120.732133 
L 374.75552 122.615767 
L 376.556377 120.173068 
L 378.357233 119.223184 
L 380.15809 115.770678 
L 381.958946 113.024412 
L 383.759802 109.753981 
L 385.560659 107.427836 
L 387.361515 110.585335 
L 389.162372 112.466993 
L 390.963228 112.395546 
L 392.764084 113.164343 
L 394.564941 110.89878 
L 396.365797 108.349075 
L 398.166653 108.624657 
L 399.96751 107.455823 
L 401.768366 106.623152 
L 403.569223 106.730158 
L 405.370079 107.162132 
L 407.170935 110.694646 
L 408.971792 111.956657 
L 410.772648 112.852215 
L 414.374361 116.731427 
L 416.175217 116.93194 
L 417.976074 117.878531 
L 419.77693 117.877873 
L 421.577787 118.328285 
L 423.378643 118.263423 
L 425.179499 118.677618 
L 426.980356 121.386351 
L 428.781212 121.317867 
L 430.582069 122.064933 
L 432.382925 122.433692 
L 434.183781 123.607135 
L 437.785494 122.000071 
L 439.58635 122.009619 
L 443.188063 117.288187 
L 444.98892 114.887633 
L 446.789776 111.7624 
L 448.590632 110.744362 
L 452.192345 110.255098 
L 453.993202 110.328191 
L 455.794058 109.508691 
L 457.594914 108.264788 
L 459.395771 107.501588 
L 461.196627 104.341785 
L 462.997484 102.771596 
L 464.79834 102.057455 
L 466.599196 100.068132 
L 468.400053 97.358412 
L 470.200909 99.799794 
L 472.001765 101.646223 
L 475.603478 101.729852 
L 477.404335 103.150233 
L 481.006047 103.131136 
L 482.806904 104.398087 
L 484.60776 104.362528 
L 486.408617 103.42779 
L 488.209473 104.25618 
L 491.811186 112.316856 
L 493.612042 115.128314 
L 495.412899 118.321371 
L 497.213755 121.094965 
L 499.014611 124.846758 
L 500.815468 128.075374 
L 502.616324 130.722537 
L 504.417181 130.661626 
L 506.218037 134.00515 
L 508.018893 134.898732 
L 509.81975 136.007972 
L 511.620606 137.984125 
L 513.421462 139.157569 
L 515.222319 139.612591 
L 518.824032 139.187201 
L 520.624888 140.491357 
L 522.425744 143.417064 
L 524.226601 141.110674 
L 526.027457 139.271818 
L 527.828314 139.451917 
L 529.62917 141.383292 
L 531.430026 139.499658 
L 533.230883 141.008278 
L 535.031739 137.682533 
L 536.832596 133.819783 
L 538.633452 133.04934 
L 540.434308 132.87418 
L 542.235165 130.455516 
L 545.836877 123.741798 
L 547.637734 123.566309 
L 549.43859 122.757014 
L 551.239447 122.498883 
L 553.040303 121.656005 
L 554.841159 121.379436 
L 556.642016 119.096423 
L 558.442872 118.968675 
L 560.243729 115.101315 
L 562.044585 114.540933 
L 563.845441 112.935186 
L 565.646298 113.666777 
L 569.248011 117.11171 
L 572.849723 123.428024 
L 574.65058 122.953576 
L 576.451436 121.062699 
L 580.053149 125.646175 
L 581.854005 128.70424 
L 583.654862 126.19207 
L 587.256574 126.227958 
L 589.057431 126.826862 
L 590.858287 127.671057 
L 592.659144 130.029138 
L 594.46 131.75605 
L 596.260856 135.106817 
L 598.061713 136.984525 
L 599.862569 139.508548 
L 601.663426 139.544107 
L 603.464282 139.37619 
L 607.065995 139.890148 
L 608.866851 137.940993 
L 610.667708 138.901413 
L 612.468564 139.487476 
L 614.26942 140.816655 
L 616.070277 141.784318 
L 617.871133 144.94445 
L 619.671989 145.064297 
L 621.472846 144.228334 
L 623.273702 141.006302 
L 625.074559 140.651042 
L 626.875415 140.052468 
L 628.676271 142.171844 
L 628.676271 142.171844 
" clip-path="url(#p0a39caa026)" style="fill: none; stroke: #d62728; stroke-linecap: square"/>
   </g>
   <g id="line2d_29">
    <path d="M 97.423636 564.197037 
L 99.224493 508.606625 
L 101.025349 471.269782 
L 102.826206 456.962264 
L 104.627062 439.760646 
L 106.427918 449.91798 
L 108.228775 435.207132 
L 110.029631 415.815185 
L 111.830487 400.419773 
L 113.631344 394.623563 
L 115.4322 391.747153 
L 119.033913 361.328961 
L 120.834769 347.69132 
L 122.635626 340.416326 
L 124.436482 337.915268 
L 126.237339 334.545235 
L 129.839051 323.858391 
L 131.639908 322.086373 
L 133.440764 316.104576 
L 135.241621 310.765802 
L 138.843333 301.8057 
L 140.64419 300.866402 
L 142.445046 299.238792 
L 144.245903 296.808751 
L 146.046759 293.049498 
L 149.648472 288.423948 
L 151.449328 274.83123 
L 153.250184 266.183503 
L 155.051041 260.128613 
L 156.851897 254.737818 
L 158.652754 247.966811 
L 160.45361 237.448621 
L 162.254466 230.877139 
L 164.055323 227.703178 
L 165.856179 225.760279 
L 167.657036 218.726202 
L 169.457892 214.025184 
L 171.258748 214.376163 
L 173.059605 216.318074 
L 174.860461 216.719758 
L 176.661318 214.287266 
L 178.462174 210.872295 
L 180.26303 206.539377 
L 182.063887 205.927303 
L 183.864743 205.563812 
L 185.665599 204.114787 
L 187.466456 205.563154 
L 191.068169 206.019164 
L 192.869025 207.168901 
L 194.669881 205.523315 
L 196.470738 204.271839 
L 198.271594 204.157589 
L 200.072451 205.062037 
L 201.873307 204.826953 
L 203.674163 203.35949 
L 205.47502 206.018505 
L 207.275876 207.912346 
L 209.076733 204.462803 
L 210.877589 199.686387 
L 212.678445 202.085296 
L 214.479302 203.182024 
L 216.280158 206.000726 
L 218.081014 205.527595 
L 219.881871 206.289806 
L 221.682727 209.618844 
L 223.483584 207.624582 
L 225.28444 208.228096 
L 227.085296 207.603839 
L 228.886153 210.277342 
L 230.687009 211.776413 
L 232.487866 209.906607 
L 234.288722 212.131343 
L 237.890435 211.516965 
L 239.691291 207.997951 
L 241.492148 205.137105 
L 243.293004 204.516142 
L 245.09386 200.789042 
L 246.894717 198.224521 
L 248.695573 194.697605 
L 250.49643 192.21375 
L 254.098142 186.044282 
L 255.898999 184.903434 
L 257.699855 184.606122 
L 259.500711 183.233482 
L 261.301568 181.69095 
L 263.102424 182.967449 
L 264.903281 186.18981 
L 266.704137 184.930761 
L 268.504993 184.141551 
L 270.30585 179.60417 
L 273.907563 174.884385 
L 275.708419 171.291289 
L 277.509275 172.462758 
L 279.310132 171.978103 
L 281.110988 171.729191 
L 282.911845 167.018624 
L 284.712701 163.884503 
L 286.513557 163.2102 
L 290.11527 156.540602 
L 291.916126 154.027773 
L 293.716983 155.089931 
L 295.517839 155.462641 
L 297.318696 156.278849 
L 299.119552 159.576937 
L 300.920408 160.373391 
L 302.721265 162.620845 
L 304.522121 164.193667 
L 308.123834 162.070999 
L 309.92469 159.558499 
L 311.725547 157.658732 
L 313.526403 154.062015 
L 315.32726 151.273276 
L 317.128116 152.498082 
L 318.928972 151.12248 
L 320.729829 150.283224 
L 322.530685 147.410526 
L 324.331542 147.775663 
L 326.132398 148.490792 
L 327.933254 146.356599 
L 329.734111 145.458408 
L 331.534967 142.943274 
L 333.335823 138.978128 
L 335.13668 135.39524 
L 336.937536 136.362573 
L 338.738393 136.768208 
L 340.539249 136.993415 
L 342.340105 138.800333 
L 344.140962 141.276616 
L 345.941818 140.795583 
L 347.742675 138.234354 
L 349.543531 136.455751 
L 351.344387 132.528468 
L 353.145244 129.947155 
L 354.9461 127.70036 
L 356.746957 125.227699 
L 358.547813 122.030032 
L 360.348669 121.601679 
L 362.149526 125.173702 
L 363.950382 127.808353 
L 365.751238 129.165847 
L 367.552095 132.557771 
L 369.352951 131.678676 
L 371.153808 128.757249 
L 372.954664 127.440912 
L 374.75552 127.478117 
L 376.556377 129.677171 
L 380.15809 134.386091 
L 381.958946 134.916182 
L 383.759802 135.605301 
L 385.560659 135.505538 
L 387.361515 138.001575 
L 389.162372 137.916958 
L 390.963228 138.028244 
L 392.764084 139.173702 
L 394.564941 138.376919 
L 396.365797 135.721855 
L 398.166653 132.836316 
L 399.96751 132.939371 
L 401.768366 135.732061 
L 403.569223 135.098257 
L 405.370079 137.630182 
L 407.170935 137.642694 
L 408.971792 138.691681 
L 410.772648 138.041744 
L 412.573505 139.119047 
L 414.374361 141.971331 
L 416.175217 139.100279 
L 417.976074 136.576915 
L 419.77693 137.086592 
L 421.577787 135.619129 
L 423.378643 137.97326 
L 425.179499 138.009148 
L 426.980356 140.474565 
L 430.582069 136.450483 
L 432.382925 136.584487 
L 434.183781 135.845652 
L 435.984638 134.735425 
L 437.785494 134.553679 
L 439.58635 134.753533 
L 441.387207 132.590038 
L 443.188063 133.004562 
L 446.789776 132.383928 
L 448.590632 133.641988 
L 452.192345 140.024152 
L 453.993202 139.707744 
L 455.794058 137.853413 
L 457.594914 140.874273 
L 459.395771 139.083158 
L 461.196627 139.94612 
L 462.997484 141.014533 
L 466.599196 144.780155 
L 468.400053 143.251452 
L 472.001765 142.749676 
L 473.802622 143.10296 
L 475.603478 143.143787 
L 477.404335 144.237223 
L 479.205191 144.78674 
L 481.006047 145.07187 
L 484.60776 147.6759 
L 486.408617 147.744714 
L 488.209473 148.433832 
L 490.010329 152.039768 
L 491.811186 154.571034 
L 493.612042 156.654522 
L 495.412899 157.685401 
L 497.213755 158.171044 
L 499.014611 158.131863 
L 502.616324 154.548645 
L 504.417181 152.197807 
L 506.218037 149.620775 
L 508.018893 149.560522 
L 509.81975 149.173325 
L 511.620606 146.275275 
L 513.421462 145.250981 
L 515.222319 143.433526 
L 517.023175 141.370781 
L 518.824032 139.499658 
L 522.425744 137.104701 
L 524.226601 136.584158 
L 526.027457 136.212107 
L 527.828314 133.70718 
L 529.62917 132.482702 
L 531.430026 129.393358 
L 533.230883 128.125091 
L 535.031739 123.781308 
L 538.633452 119.257097 
L 540.434308 116.288258 
L 542.235165 112.672116 
L 545.836877 107.034713 
L 547.637734 103.906518 
L 549.43859 102.218787 
L 551.239447 101.190871 
L 553.040303 99.369466 
L 554.841159 99.256204 
L 556.642016 99.584795 
L 558.442872 99.76226 
L 560.243729 99.366173 
L 562.044585 99.657559 
L 565.646298 100.521837 
L 567.447154 100.217611 
L 569.248011 100.199503 
L 571.048867 102.202654 
L 572.849723 101.826651 
L 574.65058 100.305521 
L 576.451436 100.59954 
L 580.053149 102.99351 
L 581.854005 103.222009 
L 583.654862 102.837117 
L 585.455718 105.194211 
L 589.057431 111.238236 
L 590.858287 111.281368 
L 592.659144 112.402461 
L 594.46 111.984644 
L 596.260856 114.642013 
L 598.061713 116.964536 
L 599.862569 119.746361 
L 601.663426 122.116625 
L 603.464282 122.461349 
L 605.265138 122.087322 
L 607.065995 122.087322 
L 608.866851 123.835305 
L 610.667708 126.308953 
L 612.468564 127.566026 
L 617.871133 133.479998 
L 619.671989 135.832482 
L 621.472846 139.583946 
L 623.273702 142.14287 
L 625.074559 141.659532 
L 628.676271 145.791937 
L 630.477128 147.590296 
L 634.078841 149.882198 
L 635.879697 151.839584 
L 637.680553 154.269113 
L 639.48141 154.366241 
L 641.282266 154.829495 
L 643.083123 154.449871 
L 644.883979 156.03751 
L 646.684835 154.767267 
L 648.485692 154.773523 
L 650.286548 153.926035 
L 653.888261 149.162131 
L 655.689117 147.122433 
L 659.29083 146.308529 
L 661.091686 148.749582 
L 662.892543 149.814702 
L 664.693399 150.098186 
L 666.494256 149.247406 
L 668.295112 149.028785 
L 670.095968 149.040967 
L 671.896825 148.775592 
L 675.498538 148.81181 
L 677.299394 149.144351 
L 679.10025 149.877918 
L 680.901107 150.883774 
L 682.701963 150.937112 
L 684.502819 151.34176 
L 686.303676 151.537992 
L 688.104532 151.213023 
L 689.905389 150.402412 
L 693.507101 149.35079 
L 695.307958 149.168716 
L 697.108814 149.293501 
L 698.909671 150.667128 
L 700.710527 154.048516 
L 702.511383 157.183626 
L 704.31224 157.98831 
L 706.113096 157.854306 
L 711.515665 166.093435 
L 713.316522 169.510381 
L 715.117378 170.17744 
L 716.918235 169.646032 
L 718.719091 169.372755 
L 720.519947 170.635755 
L 722.320804 171.208319 
L 724.12166 171.168809 
L 725.922516 170.963028 
L 727.723373 170.48891 
L 729.524229 169.869263 
L 731.325086 167.381786 
L 733.125942 165.853083 
L 734.926798 164.928551 
L 736.727655 164.585474 
L 738.528511 164.106087 
L 740.329368 164.174571 
L 743.93108 164.961147 
L 745.731937 165.142892 
L 747.532793 165.47741 
L 749.33365 165.349661 
L 751.134506 163.009359 
L 752.935362 159.872603 
L 756.537075 152.897132 
L 758.337931 150.049457 
L 760.138788 150.020483 
L 761.939644 146.560734 
L 763.740501 143.508266 
L 767.342213 138.488205 
L 769.14307 136.406364 
L 770.943926 135.74128 
L 772.744783 135.404788 
L 776.346495 132.604525 
L 778.147352 130.246772 
L 779.948208 127.124832 
L 781.749065 125.660003 
L 783.549921 124.663037 
L 785.350777 125.660003 
L 787.151634 125.515134 
L 788.95249 124.834905 
L 790.753347 123.482021 
L 792.554203 123.160674 
L 794.355059 122.973331 
L 796.155916 122.095882 
L 797.956772 119.938972 
L 799.757628 118.80833 
L 801.558485 116.606971 
L 803.359341 114.784907 
L 805.160198 115.248489 
L 806.961054 115.510901 
L 808.76191 117.717199 
L 810.562767 120.974131 
L 812.363623 122.89036 
L 814.16448 123.709532 
L 817.766192 125.881917 
L 819.567049 125.217163 
L 821.367905 126.76628 
L 823.168762 128.58176 
L 824.969618 129.116131 
L 826.770474 128.398039 
L 828.571331 128.316056 
L 830.372187 127.780697 
L 832.173043 128.867877 
L 833.9739 131.065285 
L 835.774756 132.640083 
L 837.575613 130.991533 
L 839.376469 129.741045 
L 841.177325 128.091837 
L 842.978182 128.286094 
L 844.779038 128.649585 
L 846.579895 129.33574 
L 848.380751 129.695938 
L 850.181607 129.262647 
L 851.982464 130.312622 
L 853.78332 131.787658 
L 855.584177 133.63244 
L 857.385033 135.08805 
L 859.185889 137.107335 
L 860.986746 138.827003 
L 862.787602 139.506243 
L 864.588458 139.272147 
L 868.190171 142.050351 
L 869.991028 141.345099 
L 871.791884 143.267255 
L 873.59274 146.415535 
L 875.393597 147.413818 
L 877.194453 147.335128 
L 878.99531 147.518519 
L 880.796166 148.602737 
L 882.597022 149.455492 
L 884.397879 150.054396 
L 887.999592 150.222642 
L 889.800448 149.707367 
L 891.601304 152.0694 
L 895.203017 155.160719 
L 897.003874 153.750546 
L 898.80473 152.719996 
L 900.605586 150.628277 
L 902.406443 149.442322 
L 904.207299 150.768866 
L 906.008155 152.287034 
L 907.809012 151.921238 
L 909.609868 152.027585 
L 911.410725 150.992756 
L 913.211581 149.416311 
L 915.012437 148.573433 
L 916.813294 146.040191 
L 918.61415 143.836198 
L 920.415007 141.347075 
L 922.215863 140.213141 
L 924.016719 141.732626 
L 925.817576 140.371839 
L 927.618432 137.472143 
L 929.419289 134.891818 
L 929.419289 134.891818 
" clip-path="url(#p0a39caa026)" style="fill: none; stroke: #9467bd; stroke-linecap: square"/>
   </g>
   <g id="line2d_30"/>
   <g id="line2d_31"/>
   <g id="line2d_32"/>
   <g id="line2d_33"/>
   <g id="line2d_34"/>
   <g id="patch_3">
    <path d="M 47.72 606.04 
L 47.72 26.88 
" style="fill: none; stroke: #000000; stroke-width: 0.8; stroke-linejoin: miter; stroke-linecap: square"/>
   </g>
   <g id="patch_4">
    <path d="M 47.72 606.04 
L 1141.2 606.04 
" style="fill: none; stroke: #000000; stroke-width: 0.8; stroke-linejoin: miter; stroke-linecap: square"/>
   </g>
   <g id="text_15">
    <!-- Vergleich des mAP@50-95 mit gegltteten Werten (Fenster = 30) -->
    <g transform="translate(398.006875 20.88) scale(0.12 -0.12)">
     <defs>
      <path id="DejaVuSans-56" d="M 1831 0 
L 50 4666 
L 709 4666 
L 2188 738 
L 3669 4666 
L 4325 4666 
L 2547 0 
L 1831 0 
z
" transform="scale(0.015625)"/>
      <path id="DejaVuSans-65" d="M 3597 1894 
L 3597 1613 
L 953 1613 
Q 991 1019 1311 708 
Q 1631 397 2203 397 
Q 2534 397 2845 478 
Q 3156 559 3463 722 
L 3463 178 
Q 3153 47 2828 -22 
Q 2503 -91 2169 -91 
Q 1331 -91 842 396 
Q 353 884 353 1716 
Q 353 2575 817 3079 
Q 1281 3584 2069 3584 
Q 2775 3584 3186 3129 
Q 3597 2675 3597 1894 
z
M 3022 2063 
Q 3016 2534 2758 2815 
Q 2500 3097 2075 3097 
Q 1594 3097 1305 2825 
Q 1016 2553 972 2059 
L 3022 2063 
z
" transform="scale(0.015625)"/>
      <path id="DejaVuSans-72" d="M 2631 2963 
Q 2534 3019 2420 3045 
Q 2306 3072 2169 3072 
Q 1681 3072 1420 2755 
Q 1159 2438 1159 1844 
L 1159 0 
L 581 0 
L 581 3500 
L 1159 3500 
L 1159 2956 
Q 1341 3275 1631 3429 
Q 1922 3584 2338 3584 
Q 2397 3584 2469 3576 
Q 2541 3569 2628 3553 
L 2631 2963 
z
" transform="scale(0.015625)"/>
      <path id="DejaVuSans-67" d="M 2906 1791 
Q 2906 2416 2648 2759 
Q 2391 3103 1925 3103 
Q 1463 3103 1205 2759 
Q 947 2416 947 1791 
Q 947 1169 1205 825 
Q 1463 481 1925 481 
Q 2391 481 2648 825 
Q 2906 1169 2906 1791 
z
M 3481 434 
Q 3481 -459 3084 -895 
Q 2688 -1331 1869 -1331 
Q 1566 -1331 1297 -1286 
Q 1028 -1241 775 -1147 
L 775 -588 
Q 1028 -725 1275 -790 
Q 1522 -856 1778 -856 
Q 2344 -856 2625 -561 
Q 2906 -266 2906 331 
L 2906 616 
Q 2728 306 2450 153 
Q 2172 0 1784 0 
Q 1141 0 747 490 
Q 353 981 353 1791 
Q 353 2603 747 3093 
Q 1141 3584 1784 3584 
Q 2172 3584 2450 3431 
Q 2728 3278 2906 2969 
L 2906 3500 
L 3481 3500 
L 3481 434 
z
" transform="scale(0.015625)"/>
      <path id="DejaVuSans-6c" d="M 603 4863 
L 1178 4863 
L 1178 0 
L 603 0 
L 603 4863 
z
" transform="scale(0.015625)"/>
      <path id="DejaVuSans-69" d="M 603 3500 
L 1178 3500 
L 1178 0 
L 603 0 
L 603 3500 
z
M 603 4863 
L 1178 4863 
L 1178 4134 
L 603 4134 
L 603 4863 
z
" transform="scale(0.015625)"/>
      <path id="DejaVuSans-20" transform="scale(0.015625)"/>
      <path id="DejaVuSans-64" d="M 2906 2969 
L 2906 4863 
L 3481 4863 
L 3481 0 
L 2906 0 
L 2906 525 
Q 2725 213 2448 61 
Q 2172 -91 1784 -91 
Q 1150 -91 751 415 
Q 353 922 353 1747 
Q 353 2572 751 3078 
Q 1150 3584 1784 3584 
Q 2172 3584 2448 3432 
Q 2725 3281 2906 2969 
z
M 947 1747 
Q 947 1113 1208 752 
Q 1469 391 1925 391 
Q 2381 391 2643 752 
Q 2906 1113 2906 1747 
Q 2906 2381 2643 2742 
Q 2381 3103 1925 3103 
Q 1469 3103 1208 2742 
Q 947 2381 947 1747 
z
" transform="scale(0.015625)"/>
      <path id="DejaVuSans-73" d="M 2834 3397 
L 2834 2853 
Q 2591 2978 2328 3040 
Q 2066 3103 1784 3103 
Q 1356 3103 1142 2972 
Q 928 2841 928 2578 
Q 928 2378 1081 2264 
Q 1234 2150 1697 2047 
L 1894 2003 
Q 2506 1872 2764 1633 
Q 3022 1394 3022 966 
Q 3022 478 2636 193 
Q 2250 -91 1575 -91 
Q 1294 -91 989 -36 
Q 684 19 347 128 
L 347 722 
Q 666 556 975 473 
Q 1284 391 1588 391 
Q 1994 391 2212 530 
Q 2431 669 2431 922 
Q 2431 1156 2273 1281 
Q 2116 1406 1581 1522 
L 1381 1569 
Q 847 1681 609 1914 
Q 372 2147 372 2553 
Q 372 3047 722 3315 
Q 1072 3584 1716 3584 
Q 2034 3584 2315 3537 
Q 2597 3491 2834 3397 
z
" transform="scale(0.015625)"/>
      <path id="DejaVuSans-74" d="M 1172 4494 
L 1172 3500 
L 2356 3500 
L 2356 3053 
L 1172 3053 
L 1172 1153 
Q 1172 725 1289 603 
Q 1406 481 1766 481 
L 2356 481 
L 2356 0 
L 1766 0 
Q 1100 0 847 248 
Q 594 497 594 1153 
L 594 3053 
L 172 3053 
L 172 3500 
L 594 3500 
L 594 4494 
L 1172 4494 
z
" transform="scale(0.015625)"/>
      <path id="DejaVuSans-e4" d="M 2194 1759 
Q 1497 1759 1228 1600 
Q 959 1441 959 1056 
Q 959 750 1161 570 
Q 1363 391 1709 391 
Q 2188 391 2477 730 
Q 2766 1069 2766 1631 
L 2766 1759 
L 2194 1759 
z
M 3341 1997 
L 3341 0 
L 2766 0 
L 2766 531 
Q 2569 213 2275 61 
Q 1981 -91 1556 -91 
Q 1019 -91 701 211 
Q 384 513 384 1019 
Q 384 1609 779 1909 
Q 1175 2209 1959 2209 
L 2766 2209 
L 2766 2266 
Q 2766 2663 2505 2880 
Q 2244 3097 1772 3097 
Q 1472 3097 1187 3025 
Q 903 2953 641 2809 
L 641 3341 
Q 956 3463 1253 3523 
Q 1550 3584 1831 3584 
Q 2591 3584 2966 3190 
Q 3341 2797 3341 1997 
z
M 2150 4850 
L 2784 4850 
L 2784 4219 
L 2150 4219 
L 2150 4850 
z
M 928 4850 
L 1562 4850 
L 1562 4219 
L 928 4219 
L 928 4850 
z
" transform="scale(0.015625)"/>
      <path id="DejaVuSans-6e" d="M 3513 2113 
L 3513 0 
L 2938 0 
L 2938 2094 
Q 2938 2591 2744 2837 
Q 2550 3084 2163 3084 
Q 1697 3084 1428 2787 
Q 1159 2491 1159 1978 
L 1159 0 
L 581 0 
L 581 3500 
L 1159 3500 
L 1159 2956 
Q 1366 3272 1645 3428 
Q 1925 3584 2291 3584 
Q 2894 3584 3203 3211 
Q 3513 2838 3513 2113 
z
" transform="scale(0.015625)"/>
      <path id="DejaVuSans-57" d="M 213 4666 
L 850 4666 
L 1831 722 
L 2809 4666 
L 3519 4666 
L 4500 722 
L 5478 4666 
L 6119 4666 
L 4947 0 
L 4153 0 
L 3169 4050 
L 2175 0 
L 1381 0 
L 213 4666 
z
" transform="scale(0.015625)"/>
      <path id="DejaVuSans-28" d="M 1984 4856 
Q 1566 4138 1362 3434 
Q 1159 2731 1159 2009 
Q 1159 1288 1364 580 
Q 1569 -128 1984 -844 
L 1484 -844 
Q 1016 -109 783 600 
Q 550 1309 550 2009 
Q 550 2706 781 3412 
Q 1013 4119 1484 4856 
L 1984 4856 
z
" transform="scale(0.015625)"/>
      <path id="DejaVuSans-46" d="M 628 4666 
L 3309 4666 
L 3309 4134 
L 1259 4134 
L 1259 2759 
L 3109 2759 
L 3109 2228 
L 1259 2228 
L 1259 0 
L 628 0 
L 628 4666 
z
" transform="scale(0.015625)"/>
      <path id="DejaVuSans-3d" d="M 678 2906 
L 4684 2906 
L 4684 2381 
L 678 2381 
L 678 2906 
z
M 678 1631 
L 4684 1631 
L 4684 1100 
L 678 1100 
L 678 1631 
z
" transform="scale(0.015625)"/>
      <path id="DejaVuSans-29" d="M 513 4856 
L 1013 4856 
Q 1481 4119 1714 3412 
Q 1947 2706 1947 2009 
Q 1947 1309 1714 600 
Q 1481 -109 1013 -844 
L 513 -844 
Q 928 -128 1133 580 
Q 1338 1288 1338 2009 
Q 1338 2731 1133 3434 
Q 928 4138 513 4856 
z
" transform="scale(0.015625)"/>
     </defs>
     <use xlink:href="#DejaVuSans-56"/>
     <use xlink:href="#DejaVuSans-65" transform="translate(60.658203 0)"/>
     <use xlink:href="#DejaVuSans-72" transform="translate(122.181641 0)"/>
     <use xlink:href="#DejaVuSans-67" transform="translate(161.544922 0)"/>
     <use xlink:href="#DejaVuSans-6c" transform="translate(225.021484 0)"/>
     <use xlink:href="#DejaVuSans-65" transform="translate(252.804688 0)"/>
     <use xlink:href="#DejaVuSans-69" transform="translate(314.328125 0)"/>
     <use xlink:href="#DejaVuSans-63" transform="translate(342.111328 0)"/>
     <use xlink:href="#DejaVuSans-68" transform="translate(397.091797 0)"/>
     <use xlink:href="#DejaVuSans-20" transform="translate(460.470703 0)"/>
     <use xlink:href="#DejaVuSans-64" transform="translate(492.257812 0)"/>
     <use xlink:href="#DejaVuSans-65" transform="translate(555.734375 0)"/>
     <use xlink:href="#DejaVuSans-73" transform="translate(617.257812 0)"/>
     <use xlink:href="#DejaVuSans-20" transform="translate(669.357422 0)"/>
     <use xlink:href="#DejaVuSans-6d" transform="translate(701.144531 0)"/>
     <use xlink:href="#DejaVuSans-41" transform="translate(798.556641 0)"/>
     <use xlink:href="#DejaVuSans-50" transform="translate(866.964844 0)"/>
     <use xlink:href="#DejaVuSans-40" transform="translate(927.267578 0)"/>
     <use xlink:href="#DejaVuSans-35" transform="translate(1027.267578 0)"/>
     <use xlink:href="#DejaVuSans-30" transform="translate(1090.890625 0)"/>
     <use xlink:href="#DejaVuSans-2d" transform="translate(1154.513672 0)"/>
     <use xlink:href="#DejaVuSans-39" transform="translate(1190.597656 0)"/>
     <use xlink:href="#DejaVuSans-35" transform="translate(1254.220703 0)"/>
     <use xlink:href="#DejaVuSans-20" transform="translate(1317.84375 0)"/>
     <use xlink:href="#DejaVuSans-6d" transform="translate(1349.630859 0)"/>
     <use xlink:href="#DejaVuSans-69" transform="translate(1447.042969 0)"/>
     <use xlink:href="#DejaVuSans-74" transform="translate(1474.826172 0)"/>
     <use xlink:href="#DejaVuSans-20" transform="translate(1514.035156 0)"/>
     <use xlink:href="#DejaVuSans-67" transform="translate(1545.822266 0)"/>
     <use xlink:href="#DejaVuSans-65" transform="translate(1609.298828 0)"/>
     <use xlink:href="#DejaVuSans-67" transform="translate(1670.822266 0)"/>
     <use xlink:href="#DejaVuSans-6c" transform="translate(1734.298828 0)"/>
     <use xlink:href="#DejaVuSans-e4" transform="translate(1762.082031 0)"/>
     <use xlink:href="#DejaVuSans-74" transform="translate(1823.361328 0)"/>
     <use xlink:href="#DejaVuSans-74" transform="translate(1862.570312 0)"/>
     <use xlink:href="#DejaVuSans-65" transform="translate(1901.779297 0)"/>
     <use xlink:href="#DejaVuSans-74" transform="translate(1963.302734 0)"/>
     <use xlink:href="#DejaVuSans-65" transform="translate(2002.511719 0)"/>
     <use xlink:href="#DejaVuSans-6e" transform="translate(2064.035156 0)"/>
     <use xlink:href="#DejaVuSans-20" transform="translate(2127.414062 0)"/>
     <use xlink:href="#DejaVuSans-57" transform="translate(2159.201172 0)"/>
     <use xlink:href="#DejaVuSans-65" transform="translate(2252.203125 0)"/>
     <use xlink:href="#DejaVuSans-72" transform="translate(2313.726562 0)"/>
     <use xlink:href="#DejaVuSans-74" transform="translate(2354.839844 0)"/>
     <use xlink:href="#DejaVuSans-65" transform="translate(2394.048828 0)"/>
     <use xlink:href="#DejaVuSans-6e" transform="translate(2455.572266 0)"/>
     <use xlink:href="#DejaVuSans-20" transform="translate(2518.951172 0)"/>
     <use xlink:href="#DejaVuSans-28" transform="translate(2550.738281 0)"/>
     <use xlink:href="#DejaVuSans-46" transform="translate(2589.751953 0)"/>
     <use xlink:href="#DejaVuSans-65" transform="translate(2641.771484 0)"/>
     <use xlink:href="#DejaVuSans-6e" transform="translate(2703.294922 0)"/>
     <use xlink:href="#DejaVuSans-73" transform="translate(2766.673828 0)"/>
     <use xlink:href="#DejaVuSans-74" transform="translate(2818.773438 0)"/>
     <use xlink:href="#DejaVuSans-65" transform="translate(2857.982422 0)"/>
     <use xlink:href="#DejaVuSans-72" transform="translate(2919.505859 0)"/>
     <use xlink:href="#DejaVuSans-20" transform="translate(2960.619141 0)"/>
     <use xlink:href="#DejaVuSans-3d" transform="translate(2992.40625 0)"/>
     <use xlink:href="#DejaVuSans-20" transform="translate(3076.195312 0)"/>
     <use xlink:href="#DejaVuSans-33" transform="translate(3107.982422 0)"/>
     <use xlink:href="#DejaVuSans-30" transform="translate(3171.605469 0)"/>
     <use xlink:href="#DejaVuSans-29" transform="translate(3235.228516 0)"/>
    </g>
   </g>
   <g id="legend_1">
    <g id="patch_5">
     <path d="M 54.72 122.94875 
L 203.273125 122.94875 
Q 205.273125 122.94875 205.273125 120.94875 
L 205.273125 33.88 
Q 205.273125 31.88 203.273125 31.88 
L 54.72 31.88 
Q 52.72 31.88 52.72 33.88 
L 52.72 120.94875 
Q 52.72 122.94875 54.72 122.94875 
z
" style="fill: #ffffff; opacity: 0.8; stroke: #cccccc; stroke-linejoin: miter"/>
    </g>
    <g id="text_16">
     <!-- Modell -->
     <g transform="translate(112.594219 43.478438) scale(0.1 -0.1)">
      <defs>
       <path id="DejaVuSans-4d" d="M 628 4666 
L 1569 4666 
L 2759 1491 
L 3956 4666 
L 4897 4666 
L 4897 0 
L 4281 0 
L 4281 4097 
L 3078 897 
L 2444 897 
L 1241 4097 
L 1241 0 
L 628 0 
L 628 4666 
z
" transform="scale(0.015625)"/>
      </defs>
      <use xlink:href="#DejaVuSans-4d"/>
      <use xlink:href="#DejaVuSans-6f" transform="translate(86.279297 0)"/>
      <use xlink:href="#DejaVuSans-64" transform="translate(147.460938 0)"/>
      <use xlink:href="#DejaVuSans-65" transform="translate(210.9375 0)"/>
      <use xlink:href="#DejaVuSans-6c" transform="translate(272.460938 0)"/>
      <use xlink:href="#DejaVuSans-6c" transform="translate(300.244141 0)"/>
     </g>
    </g>
    <g id="line2d_35">
     <path d="M 56.72 54.656563 
L 66.72 54.656563 
L 76.72 54.656563 
" style="fill: none; stroke: #1f77b4; stroke-linecap: square"/>
    </g>
    <g id="text_17">
     <!-- Dota RGB (Geglttet) -->
     <g transform="translate(84.72 58.156563) scale(0.1 -0.1)">
      <defs>
       <path id="DejaVuSans-44" d="M 1259 4147 
L 1259 519 
L 2022 519 
Q 2988 519 3436 956 
Q 3884 1394 3884 2338 
Q 3884 3275 3436 3711 
Q 2988 4147 2022 4147 
L 1259 4147 
z
M 628 4666 
L 1925 4666 
Q 3281 4666 3915 4102 
Q 4550 3538 4550 2338 
Q 4550 1131 3912 565 
Q 3275 0 1925 0 
L 628 0 
L 628 4666 
z
" transform="scale(0.015625)"/>
       <path id="DejaVuSans-61" d="M 2194 1759 
Q 1497 1759 1228 1600 
Q 959 1441 959 1056 
Q 959 750 1161 570 
Q 1363 391 1709 391 
Q 2188 391 2477 730 
Q 2766 1069 2766 1631 
L 2766 1759 
L 2194 1759 
z
M 3341 1997 
L 3341 0 
L 2766 0 
L 2766 531 
Q 2569 213 2275 61 
Q 1981 -91 1556 -91 
Q 1019 -91 701 211 
Q 384 513 384 1019 
Q 384 1609 779 1909 
Q 1175 2209 1959 2209 
L 2766 2209 
L 2766 2266 
Q 2766 2663 2505 2880 
Q 2244 3097 1772 3097 
Q 1472 3097 1187 3025 
Q 903 2953 641 2809 
L 641 3341 
Q 956 3463 1253 3523 
Q 1550 3584 1831 3584 
Q 2591 3584 2966 3190 
Q 3341 2797 3341 1997 
z
" transform="scale(0.015625)"/>
       <path id="DejaVuSans-52" d="M 2841 2188 
Q 3044 2119 3236 1894 
Q 3428 1669 3622 1275 
L 4263 0 
L 3584 0 
L 2988 1197 
Q 2756 1666 2539 1819 
Q 2322 1972 1947 1972 
L 1259 1972 
L 1259 0 
L 628 0 
L 628 4666 
L 2053 4666 
Q 2853 4666 3247 4331 
Q 3641 3997 3641 3322 
Q 3641 2881 3436 2590 
Q 3231 2300 2841 2188 
z
M 1259 4147 
L 1259 2491 
L 2053 2491 
Q 2509 2491 2742 2702 
Q 2975 2913 2975 3322 
Q 2975 3731 2742 3939 
Q 2509 4147 2053 4147 
L 1259 4147 
z
" transform="scale(0.015625)"/>
       <path id="DejaVuSans-47" d="M 3809 666 
L 3809 1919 
L 2778 1919 
L 2778 2438 
L 4434 2438 
L 4434 434 
Q 4069 175 3628 42 
Q 3188 -91 2688 -91 
Q 1594 -91 976 548 
Q 359 1188 359 2328 
Q 359 3472 976 4111 
Q 1594 4750 2688 4750 
Q 3144 4750 3555 4637 
Q 3966 4525 4313 4306 
L 4313 3634 
Q 3963 3931 3569 4081 
Q 3175 4231 2741 4231 
Q 1884 4231 1454 3753 
Q 1025 3275 1025 2328 
Q 1025 1384 1454 906 
Q 1884 428 2741 428 
Q 3075 428 3337 486 
Q 3600 544 3809 666 
z
" transform="scale(0.015625)"/>
       <path id="DejaVuSans-42" d="M 1259 2228 
L 1259 519 
L 2272 519 
Q 2781 519 3026 730 
Q 3272 941 3272 1375 
Q 3272 1813 3026 2020 
Q 2781 2228 2272 2228 
L 1259 2228 
z
M 1259 4147 
L 1259 2741 
L 2194 2741 
Q 2656 2741 2882 2914 
Q 3109 3088 3109 3444 
Q 3109 3797 2882 3972 
Q 2656 4147 2194 4147 
L 1259 4147 
z
M 628 4666 
L 2241 4666 
Q 2963 4666 3353 4366 
Q 3744 4066 3744 3513 
Q 3744 3084 3544 2831 
Q 3344 2578 2956 2516 
Q 3422 2416 3680 2098 
Q 3938 1781 3938 1306 
Q 3938 681 3513 340 
Q 3088 0 2303 0 
L 628 0 
L 628 4666 
z
" transform="scale(0.015625)"/>
      </defs>
      <use xlink:href="#DejaVuSans-44"/>
      <use xlink:href="#DejaVuSans-6f" transform="translate(77.001953 0)"/>
      <use xlink:href="#DejaVuSans-74" transform="translate(138.183594 0)"/>
      <use xlink:href="#DejaVuSans-61" transform="translate(177.392578 0)"/>
      <use xlink:href="#DejaVuSans-20" transform="translate(238.671875 0)"/>
      <use xlink:href="#DejaVuSans-52" transform="translate(270.458984 0)"/>
      <use xlink:href="#DejaVuSans-47" transform="translate(339.941406 0)"/>
      <use xlink:href="#DejaVuSans-42" transform="translate(417.431641 0)"/>
      <use xlink:href="#DejaVuSans-20" transform="translate(486.035156 0)"/>
      <use xlink:href="#DejaVuSans-28" transform="translate(517.822266 0)"/>
      <use xlink:href="#DejaVuSans-47" transform="translate(556.835938 0)"/>
      <use xlink:href="#DejaVuSans-65" transform="translate(634.326172 0)"/>
      <use xlink:href="#DejaVuSans-67" transform="translate(695.849609 0)"/>
      <use xlink:href="#DejaVuSans-6c" transform="translate(759.326172 0)"/>
      <use xlink:href="#DejaVuSans-e4" transform="translate(787.109375 0)"/>
      <use xlink:href="#DejaVuSans-74" transform="translate(848.388672 0)"/>
      <use xlink:href="#DejaVuSans-74" transform="translate(887.597656 0)"/>
      <use xlink:href="#DejaVuSans-65" transform="translate(926.806641 0)"/>
      <use xlink:href="#DejaVuSans-74" transform="translate(988.330078 0)"/>
      <use xlink:href="#DejaVuSans-29" transform="translate(1027.539062 0)"/>
     </g>
    </g>
    <g id="line2d_36">
     <path d="M 56.72 69.334688 
L 66.72 69.334688 
L 76.72 69.334688 
" style="fill: none; stroke: #ff7f0e; stroke-linecap: square"/>
    </g>
    <g id="text_18">
     <!-- Dota RGBIR (Geglttet) -->
     <g transform="translate(84.72 72.834688) scale(0.1 -0.1)">
      <defs>
       <path id="DejaVuSans-49" d="M 628 4666 
L 1259 4666 
L 1259 0 
L 628 0 
L 628 4666 
z
" transform="scale(0.015625)"/>
      </defs>
      <use xlink:href="#DejaVuSans-44"/>
      <use xlink:href="#DejaVuSans-6f" transform="translate(77.001953 0)"/>
      <use xlink:href="#DejaVuSans-74" transform="translate(138.183594 0)"/>
      <use xlink:href="#DejaVuSans-61" transform="translate(177.392578 0)"/>
      <use xlink:href="#DejaVuSans-20" transform="translate(238.671875 0)"/>
      <use xlink:href="#DejaVuSans-52" transform="translate(270.458984 0)"/>
      <use xlink:href="#DejaVuSans-47" transform="translate(339.941406 0)"/>
      <use xlink:href="#DejaVuSans-42" transform="translate(417.431641 0)"/>
      <use xlink:href="#DejaVuSans-49" transform="translate(486.035156 0)"/>
      <use xlink:href="#DejaVuSans-52" transform="translate(515.527344 0)"/>
      <use xlink:href="#DejaVuSans-20" transform="translate(585.009766 0)"/>
      <use xlink:href="#DejaVuSans-28" transform="translate(616.796875 0)"/>
      <use xlink:href="#DejaVuSans-47" transform="translate(655.810547 0)"/>
      <use xlink:href="#DejaVuSans-65" transform="translate(733.300781 0)"/>
      <use xlink:href="#DejaVuSans-67" transform="translate(794.824219 0)"/>
      <use xlink:href="#DejaVuSans-6c" transform="translate(858.300781 0)"/>
      <use xlink:href="#DejaVuSans-e4" transform="translate(886.083984 0)"/>
      <use xlink:href="#DejaVuSans-74" transform="translate(947.363281 0)"/>
      <use xlink:href="#DejaVuSans-74" transform="translate(986.572266 0)"/>
      <use xlink:href="#DejaVuSans-65" transform="translate(1025.78125 0)"/>
      <use xlink:href="#DejaVuSans-74" transform="translate(1087.304688 0)"/>
      <use xlink:href="#DejaVuSans-29" transform="translate(1126.513672 0)"/>
     </g>
    </g>
    <g id="line2d_37">
     <path d="M 56.72 84.012813 
L 66.72 84.012813 
L 76.72 84.012813 
" style="fill: none; stroke: #2ca02c; stroke-linecap: square"/>
    </g>
    <g id="text_19">
     <!-- Dota IRGB (Geglttet) -->
     <g transform="translate(84.72 87.512813) scale(0.1 -0.1)">
      <use xlink:href="#DejaVuSans-44"/>
      <use xlink:href="#DejaVuSans-6f" transform="translate(77.001953 0)"/>
      <use xlink:href="#DejaVuSans-74" transform="translate(138.183594 0)"/>
      <use xlink:href="#DejaVuSans-61" transform="translate(177.392578 0)"/>
      <use xlink:href="#DejaVuSans-20" transform="translate(238.671875 0)"/>
      <use xlink:href="#DejaVuSans-49" transform="translate(270.458984 0)"/>
      <use xlink:href="#DejaVuSans-52" transform="translate(299.951172 0)"/>
      <use xlink:href="#DejaVuSans-47" transform="translate(369.433594 0)"/>
      <use xlink:href="#DejaVuSans-42" transform="translate(446.923828 0)"/>
      <use xlink:href="#DejaVuSans-20" transform="translate(515.527344 0)"/>
      <use xlink:href="#DejaVuSans-28" transform="translate(547.314453 0)"/>
      <use xlink:href="#DejaVuSans-47" transform="translate(586.328125 0)"/>
      <use xlink:href="#DejaVuSans-65" transform="translate(663.818359 0)"/>
      <use xlink:href="#DejaVuSans-67" transform="translate(725.341797 0)"/>
      <use xlink:href="#DejaVuSans-6c" transform="translate(788.818359 0)"/>
      <use xlink:href="#DejaVuSans-e4" transform="translate(816.601562 0)"/>
      <use xlink:href="#DejaVuSans-74" transform="translate(877.880859 0)"/>
      <use xlink:href="#DejaVuSans-74" transform="translate(917.089844 0)"/>
      <use xlink:href="#DejaVuSans-65" transform="translate(956.298828 0)"/>
      <use xlink:href="#DejaVuSans-74" transform="translate(1017.822266 0)"/>
      <use xlink:href="#DejaVuSans-29" transform="translate(1057.03125 0)"/>
     </g>
    </g>
    <g id="line2d_38">
     <path d="M 56.72 98.690938 
L 66.72 98.690938 
L 76.72 98.690938 
" style="fill: none; stroke: #d62728; stroke-linecap: square"/>
    </g>
    <g id="text_20">
     <!-- Dota RIRB (Geglttet) -->
     <g transform="translate(84.72 102.190938) scale(0.1 -0.1)">
      <use xlink:href="#DejaVuSans-44"/>
      <use xlink:href="#DejaVuSans-6f" transform="translate(77.001953 0)"/>
      <use xlink:href="#DejaVuSans-74" transform="translate(138.183594 0)"/>
      <use xlink:href="#DejaVuSans-61" transform="translate(177.392578 0)"/>
      <use xlink:href="#DejaVuSans-20" transform="translate(238.671875 0)"/>
      <use xlink:href="#DejaVuSans-52" transform="translate(270.458984 0)"/>
      <use xlink:href="#DejaVuSans-49" transform="translate(339.941406 0)"/>
      <use xlink:href="#DejaVuSans-52" transform="translate(369.433594 0)"/>
      <use xlink:href="#DejaVuSans-42" transform="translate(438.916016 0)"/>
      <use xlink:href="#DejaVuSans-20" transform="translate(507.519531 0)"/>
      <use xlink:href="#DejaVuSans-28" transform="translate(539.306641 0)"/>
      <use xlink:href="#DejaVuSans-47" transform="translate(578.320312 0)"/>
      <use xlink:href="#DejaVuSans-65" transform="translate(655.810547 0)"/>
      <use xlink:href="#DejaVuSans-67" transform="translate(717.333984 0)"/>
      <use xlink:href="#DejaVuSans-6c" transform="translate(780.810547 0)"/>
      <use xlink:href="#DejaVuSans-e4" transform="translate(808.59375 0)"/>
      <use xlink:href="#DejaVuSans-74" transform="translate(869.873047 0)"/>
      <use xlink:href="#DejaVuSans-74" transform="translate(909.082031 0)"/>
      <use xlink:href="#DejaVuSans-65" transform="translate(948.291016 0)"/>
      <use xlink:href="#DejaVuSans-74" transform="translate(1009.814453 0)"/>
      <use xlink:href="#DejaVuSans-29" transform="translate(1049.023438 0)"/>
     </g>
    </g>
    <g id="line2d_39">
     <path d="M 56.72 113.369063 
L 66.72 113.369063 
L 76.72 113.369063 
" style="fill: none; stroke: #9467bd; stroke-linecap: square"/>
    </g>
    <g id="text_21">
     <!-- Dota RGIR (Geglttet) -->
     <g transform="translate(84.72 116.869063) scale(0.1 -0.1)">
      <use xlink:href="#DejaVuSans-44"/>
      <use xlink:href="#DejaVuSans-6f" transform="translate(77.001953 0)"/>
      <use xlink:href="#DejaVuSans-74" transform="translate(138.183594 0)"/>
      <use xlink:href="#DejaVuSans-61" transform="translate(177.392578 0)"/>
      <use xlink:href="#DejaVuSans-20" transform="translate(238.671875 0)"/>
      <use xlink:href="#DejaVuSans-52" transform="translate(270.458984 0)"/>
      <use xlink:href="#DejaVuSans-47" transform="translate(339.941406 0)"/>
      <use xlink:href="#DejaVuSans-49" transform="translate(417.431641 0)"/>
      <use xlink:href="#DejaVuSans-52" transform="translate(446.923828 0)"/>
      <use xlink:href="#DejaVuSans-20" transform="translate(516.40625 0)"/>
      <use xlink:href="#DejaVuSans-28" transform="translate(548.193359 0)"/>
      <use xlink:href="#DejaVuSans-47" transform="translate(587.207031 0)"/>
      <use xlink:href="#DejaVuSans-65" transform="translate(664.697266 0)"/>
      <use xlink:href="#DejaVuSans-67" transform="translate(726.220703 0)"/>
      <use xlink:href="#DejaVuSans-6c" transform="translate(789.697266 0)"/>
      <use xlink:href="#DejaVuSans-e4" transform="translate(817.480469 0)"/>
      <use xlink:href="#DejaVuSans-74" transform="translate(878.759766 0)"/>
      <use xlink:href="#DejaVuSans-74" transform="translate(917.96875 0)"/>
      <use xlink:href="#DejaVuSans-65" transform="translate(957.177734 0)"/>
      <use xlink:href="#DejaVuSans-74" transform="translate(1018.701172 0)"/>
      <use xlink:href="#DejaVuSans-29" transform="translate(1057.910156 0)"/>
     </g>
    </g>
   </g>
  </g>
 </g>
 <defs>
  <clipPath id="p0a39caa026">
   <rect x="47.72" y="26.88" width="1093.48" height="579.16"/>
  </clipPath>
 </defs>
</svg>
