<?xml version="1.0" encoding="utf-8" standalone="no"?>
<!DOCTYPE svg PUBLIC "-//W3C//DTD SVG 1.1//EN"
  "http://www.w3.org/Graphics/SVG/1.1/DTD/svg11.dtd">
<svg xmlns:xlink="http://www.w3.org/1999/xlink" width="864pt" height="504pt" viewBox="0 0 864 504" xmlns="http://www.w3.org/2000/svg" version="1.1">
 <metadata>
  <rdf:RDF xmlns:dc="http://purl.org/dc/elements/1.1/" xmlns:cc="http://creativecommons.org/ns#" xmlns:rdf="http://www.w3.org/1999/02/22-rdf-syntax-ns#">
   <cc:Work>
    <dc:type rdf:resource="http://purl.org/dc/dcmitype/StillImage"/>
    <dc:date>2025-05-15T14:12:26.836395</dc:date>
    <dc:format>image/svg+xml</dc:format>
    <dc:creator>
     <cc:Agent>
      <dc:title>Matplotlib v3.10.1, https://matplotlib.org/</dc:title>
     </cc:Agent>
    </dc:creator>
   </cc:Work>
  </rdf:RDF>
 </metadata>
 <defs>
  <style type="text/css">*{stroke-linejoin: round; stroke-linecap: butt}</style>
 </defs>
 <g id="figure_1">
  <g id="patch_1">
   <path d="M 0 504 
L 864 504 
L 864 0 
L 0 0 
z
" style="fill: #ffffff"/>
  </g>
  <g id="axes_1">
   <g id="patch_2">
    <path d="M 47.72 462.04 
L 853.2 462.04 
L 853.2 26.88 
L 47.72 26.88 
z
" style="fill: #ffffff"/>
   </g>
   <g id="FillBetweenPolyCollection_1"/>
   <g id="FillBetweenPolyCollection_2"/>
   <g id="matplotlib.axis_1">
    <g id="xtick_1">
     <g id="line2d_1">
      <path d="M 84.332727 462.04 
L 84.332727 26.88 
" clip-path="url(#pd660056ca3)" style="fill: none; stroke-dasharray: 0.8,1.32; stroke-dashoffset: 0; stroke: #b0b0b0; stroke-opacity: 0.7; stroke-width: 0.8"/>
     </g>
     <g id="line2d_2">
      <defs>
       <path id="md256bad84f" d="M 0 0 
L 0 3.5 
" style="stroke: #000000; stroke-width: 0.8"/>
      </defs>
      <g>
       <use xlink:href="#md256bad84f" x="84.332727" y="462.04" style="stroke: #000000; stroke-width: 0.8"/>
      </g>
     </g>
     <g id="text_1">
      <!-- 0 -->
      <g transform="translate(81.151477 476.638438) scale(0.1 -0.1)">
       <defs>
        <path id="DejaVuSans-30" d="M 2034 4250 
Q 1547 4250 1301 3770 
Q 1056 3291 1056 2328 
Q 1056 1369 1301 889 
Q 1547 409 2034 409 
Q 2525 409 2770 889 
Q 3016 1369 3016 2328 
Q 3016 3291 2770 3770 
Q 2525 4250 2034 4250 
z
M 2034 4750 
Q 2819 4750 3233 4129 
Q 3647 3509 3647 2328 
Q 3647 1150 3233 529 
Q 2819 -91 2034 -91 
Q 1250 -91 836 529 
Q 422 1150 422 2328 
Q 422 3509 836 4129 
Q 1250 4750 2034 4750 
z
" transform="scale(0.015625)"/>
       </defs>
       <use xlink:href="#DejaVuSans-30"/>
      </g>
     </g>
    </g>
    <g id="xtick_2">
     <g id="line2d_3">
      <path d="M 174.290288 462.04 
L 174.290288 26.88 
" clip-path="url(#pd660056ca3)" style="fill: none; stroke-dasharray: 0.8,1.32; stroke-dashoffset: 0; stroke: #b0b0b0; stroke-opacity: 0.7; stroke-width: 0.8"/>
     </g>
     <g id="line2d_4">
      <g>
       <use xlink:href="#md256bad84f" x="174.290288" y="462.04" style="stroke: #000000; stroke-width: 0.8"/>
      </g>
     </g>
     <g id="text_2">
      <!-- 50 -->
      <g transform="translate(167.927788 476.638438) scale(0.1 -0.1)">
       <defs>
        <path id="DejaVuSans-35" d="M 691 4666 
L 3169 4666 
L 3169 4134 
L 1269 4134 
L 1269 2991 
Q 1406 3038 1543 3061 
Q 1681 3084 1819 3084 
Q 2600 3084 3056 2656 
Q 3513 2228 3513 1497 
Q 3513 744 3044 326 
Q 2575 -91 1722 -91 
Q 1428 -91 1123 -41 
Q 819 9 494 109 
L 494 744 
Q 775 591 1075 516 
Q 1375 441 1709 441 
Q 2250 441 2565 725 
Q 2881 1009 2881 1497 
Q 2881 1984 2565 2268 
Q 2250 2553 1709 2553 
Q 1456 2553 1204 2497 
Q 953 2441 691 2322 
L 691 4666 
z
" transform="scale(0.015625)"/>
       </defs>
       <use xlink:href="#DejaVuSans-35"/>
       <use xlink:href="#DejaVuSans-30" transform="translate(63.623047 0)"/>
      </g>
     </g>
    </g>
    <g id="xtick_3">
     <g id="line2d_5">
      <path d="M 264.247849 462.04 
L 264.247849 26.88 
" clip-path="url(#pd660056ca3)" style="fill: none; stroke-dasharray: 0.8,1.32; stroke-dashoffset: 0; stroke: #b0b0b0; stroke-opacity: 0.7; stroke-width: 0.8"/>
     </g>
     <g id="line2d_6">
      <g>
       <use xlink:href="#md256bad84f" x="264.247849" y="462.04" style="stroke: #000000; stroke-width: 0.8"/>
      </g>
     </g>
     <g id="text_3">
      <!-- 100 -->
      <g transform="translate(254.704099 476.638438) scale(0.1 -0.1)">
       <defs>
        <path id="DejaVuSans-31" d="M 794 531 
L 1825 531 
L 1825 4091 
L 703 3866 
L 703 4441 
L 1819 4666 
L 2450 4666 
L 2450 531 
L 3481 531 
L 3481 0 
L 794 0 
L 794 531 
z
" transform="scale(0.015625)"/>
       </defs>
       <use xlink:href="#DejaVuSans-31"/>
       <use xlink:href="#DejaVuSans-30" transform="translate(63.623047 0)"/>
       <use xlink:href="#DejaVuSans-30" transform="translate(127.246094 0)"/>
      </g>
     </g>
    </g>
    <g id="xtick_4">
     <g id="line2d_7">
      <path d="M 354.20541 462.04 
L 354.20541 26.88 
" clip-path="url(#pd660056ca3)" style="fill: none; stroke-dasharray: 0.8,1.32; stroke-dashoffset: 0; stroke: #b0b0b0; stroke-opacity: 0.7; stroke-width: 0.8"/>
     </g>
     <g id="line2d_8">
      <g>
       <use xlink:href="#md256bad84f" x="354.20541" y="462.04" style="stroke: #000000; stroke-width: 0.8"/>
      </g>
     </g>
     <g id="text_4">
      <!-- 150 -->
      <g transform="translate(344.66166 476.638438) scale(0.1 -0.1)">
       <use xlink:href="#DejaVuSans-31"/>
       <use xlink:href="#DejaVuSans-35" transform="translate(63.623047 0)"/>
       <use xlink:href="#DejaVuSans-30" transform="translate(127.246094 0)"/>
      </g>
     </g>
    </g>
    <g id="xtick_5">
     <g id="line2d_9">
      <path d="M 444.162971 462.04 
L 444.162971 26.88 
" clip-path="url(#pd660056ca3)" style="fill: none; stroke-dasharray: 0.8,1.32; stroke-dashoffset: 0; stroke: #b0b0b0; stroke-opacity: 0.7; stroke-width: 0.8"/>
     </g>
     <g id="line2d_10">
      <g>
       <use xlink:href="#md256bad84f" x="444.162971" y="462.04" style="stroke: #000000; stroke-width: 0.8"/>
      </g>
     </g>
     <g id="text_5">
      <!-- 200 -->
      <g transform="translate(434.619221 476.638438) scale(0.1 -0.1)">
       <defs>
        <path id="DejaVuSans-32" d="M 1228 531 
L 3431 531 
L 3431 0 
L 469 0 
L 469 531 
Q 828 903 1448 1529 
Q 2069 2156 2228 2338 
Q 2531 2678 2651 2914 
Q 2772 3150 2772 3378 
Q 2772 3750 2511 3984 
Q 2250 4219 1831 4219 
Q 1534 4219 1204 4116 
Q 875 4013 500 3803 
L 500 4441 
Q 881 4594 1212 4672 
Q 1544 4750 1819 4750 
Q 2544 4750 2975 4387 
Q 3406 4025 3406 3419 
Q 3406 3131 3298 2873 
Q 3191 2616 2906 2266 
Q 2828 2175 2409 1742 
Q 1991 1309 1228 531 
z
" transform="scale(0.015625)"/>
       </defs>
       <use xlink:href="#DejaVuSans-32"/>
       <use xlink:href="#DejaVuSans-30" transform="translate(63.623047 0)"/>
       <use xlink:href="#DejaVuSans-30" transform="translate(127.246094 0)"/>
      </g>
     </g>
    </g>
    <g id="xtick_6">
     <g id="line2d_11">
      <path d="M 534.120532 462.04 
L 534.120532 26.88 
" clip-path="url(#pd660056ca3)" style="fill: none; stroke-dasharray: 0.8,1.32; stroke-dashoffset: 0; stroke: #b0b0b0; stroke-opacity: 0.7; stroke-width: 0.8"/>
     </g>
     <g id="line2d_12">
      <g>
       <use xlink:href="#md256bad84f" x="534.120532" y="462.04" style="stroke: #000000; stroke-width: 0.8"/>
      </g>
     </g>
     <g id="text_6">
      <!-- 250 -->
      <g transform="translate(524.576782 476.638438) scale(0.1 -0.1)">
       <use xlink:href="#DejaVuSans-32"/>
       <use xlink:href="#DejaVuSans-35" transform="translate(63.623047 0)"/>
       <use xlink:href="#DejaVuSans-30" transform="translate(127.246094 0)"/>
      </g>
     </g>
    </g>
    <g id="xtick_7">
     <g id="line2d_13">
      <path d="M 624.078092 462.04 
L 624.078092 26.88 
" clip-path="url(#pd660056ca3)" style="fill: none; stroke-dasharray: 0.8,1.32; stroke-dashoffset: 0; stroke: #b0b0b0; stroke-opacity: 0.7; stroke-width: 0.8"/>
     </g>
     <g id="line2d_14">
      <g>
       <use xlink:href="#md256bad84f" x="624.078092" y="462.04" style="stroke: #000000; stroke-width: 0.8"/>
      </g>
     </g>
     <g id="text_7">
      <!-- 300 -->
      <g transform="translate(614.534342 476.638438) scale(0.1 -0.1)">
       <defs>
        <path id="DejaVuSans-33" d="M 2597 2516 
Q 3050 2419 3304 2112 
Q 3559 1806 3559 1356 
Q 3559 666 3084 287 
Q 2609 -91 1734 -91 
Q 1441 -91 1130 -33 
Q 819 25 488 141 
L 488 750 
Q 750 597 1062 519 
Q 1375 441 1716 441 
Q 2309 441 2620 675 
Q 2931 909 2931 1356 
Q 2931 1769 2642 2001 
Q 2353 2234 1838 2234 
L 1294 2234 
L 1294 2753 
L 1863 2753 
Q 2328 2753 2575 2939 
Q 2822 3125 2822 3475 
Q 2822 3834 2567 4026 
Q 2313 4219 1838 4219 
Q 1578 4219 1281 4162 
Q 984 4106 628 3988 
L 628 4550 
Q 988 4650 1302 4700 
Q 1616 4750 1894 4750 
Q 2613 4750 3031 4423 
Q 3450 4097 3450 3541 
Q 3450 3153 3228 2886 
Q 3006 2619 2597 2516 
z
" transform="scale(0.015625)"/>
       </defs>
       <use xlink:href="#DejaVuSans-33"/>
       <use xlink:href="#DejaVuSans-30" transform="translate(63.623047 0)"/>
       <use xlink:href="#DejaVuSans-30" transform="translate(127.246094 0)"/>
      </g>
     </g>
    </g>
    <g id="xtick_8">
     <g id="line2d_15">
      <path d="M 714.035653 462.04 
L 714.035653 26.88 
" clip-path="url(#pd660056ca3)" style="fill: none; stroke-dasharray: 0.8,1.32; stroke-dashoffset: 0; stroke: #b0b0b0; stroke-opacity: 0.7; stroke-width: 0.8"/>
     </g>
     <g id="line2d_16">
      <g>
       <use xlink:href="#md256bad84f" x="714.035653" y="462.04" style="stroke: #000000; stroke-width: 0.8"/>
      </g>
     </g>
     <g id="text_8">
      <!-- 350 -->
      <g transform="translate(704.491903 476.638438) scale(0.1 -0.1)">
       <use xlink:href="#DejaVuSans-33"/>
       <use xlink:href="#DejaVuSans-35" transform="translate(63.623047 0)"/>
       <use xlink:href="#DejaVuSans-30" transform="translate(127.246094 0)"/>
      </g>
     </g>
    </g>
    <g id="xtick_9">
     <g id="line2d_17">
      <path d="M 803.993214 462.04 
L 803.993214 26.88 
" clip-path="url(#pd660056ca3)" style="fill: none; stroke-dasharray: 0.8,1.32; stroke-dashoffset: 0; stroke: #b0b0b0; stroke-opacity: 0.7; stroke-width: 0.8"/>
     </g>
     <g id="line2d_18">
      <g>
       <use xlink:href="#md256bad84f" x="803.993214" y="462.04" style="stroke: #000000; stroke-width: 0.8"/>
      </g>
     </g>
     <g id="text_9">
      <!-- 400 -->
      <g transform="translate(794.449464 476.638438) scale(0.1 -0.1)">
       <defs>
        <path id="DejaVuSans-34" d="M 2419 4116 
L 825 1625 
L 2419 1625 
L 2419 4116 
z
M 2253 4666 
L 3047 4666 
L 3047 1625 
L 3713 1625 
L 3713 1100 
L 3047 1100 
L 3047 0 
L 2419 0 
L 2419 1100 
L 313 1100 
L 313 1709 
L 2253 4666 
z
" transform="scale(0.015625)"/>
       </defs>
       <use xlink:href="#DejaVuSans-34"/>
       <use xlink:href="#DejaVuSans-30" transform="translate(63.623047 0)"/>
       <use xlink:href="#DejaVuSans-30" transform="translate(127.246094 0)"/>
      </g>
     </g>
    </g>
    <g id="text_10">
     <!-- Epoch -->
     <g transform="translate(435.149063 490.316563) scale(0.1 -0.1)">
      <defs>
       <path id="DejaVuSans-45" d="M 628 4666 
L 3578 4666 
L 3578 4134 
L 1259 4134 
L 1259 2753 
L 3481 2753 
L 3481 2222 
L 1259 2222 
L 1259 531 
L 3634 531 
L 3634 0 
L 628 0 
L 628 4666 
z
" transform="scale(0.015625)"/>
       <path id="DejaVuSans-70" d="M 1159 525 
L 1159 -1331 
L 581 -1331 
L 581 3500 
L 1159 3500 
L 1159 2969 
Q 1341 3281 1617 3432 
Q 1894 3584 2278 3584 
Q 2916 3584 3314 3078 
Q 3713 2572 3713 1747 
Q 3713 922 3314 415 
Q 2916 -91 2278 -91 
Q 1894 -91 1617 61 
Q 1341 213 1159 525 
z
M 3116 1747 
Q 3116 2381 2855 2742 
Q 2594 3103 2138 3103 
Q 1681 3103 1420 2742 
Q 1159 2381 1159 1747 
Q 1159 1113 1420 752 
Q 1681 391 2138 391 
Q 2594 391 2855 752 
Q 3116 1113 3116 1747 
z
" transform="scale(0.015625)"/>
       <path id="DejaVuSans-6f" d="M 1959 3097 
Q 1497 3097 1228 2736 
Q 959 2375 959 1747 
Q 959 1119 1226 758 
Q 1494 397 1959 397 
Q 2419 397 2687 759 
Q 2956 1122 2956 1747 
Q 2956 2369 2687 2733 
Q 2419 3097 1959 3097 
z
M 1959 3584 
Q 2709 3584 3137 3096 
Q 3566 2609 3566 1747 
Q 3566 888 3137 398 
Q 2709 -91 1959 -91 
Q 1206 -91 779 398 
Q 353 888 353 1747 
Q 353 2609 779 3096 
Q 1206 3584 1959 3584 
z
" transform="scale(0.015625)"/>
       <path id="DejaVuSans-63" d="M 3122 3366 
L 3122 2828 
Q 2878 2963 2633 3030 
Q 2388 3097 2138 3097 
Q 1578 3097 1268 2742 
Q 959 2388 959 1747 
Q 959 1106 1268 751 
Q 1578 397 2138 397 
Q 2388 397 2633 464 
Q 2878 531 3122 666 
L 3122 134 
Q 2881 22 2623 -34 
Q 2366 -91 2075 -91 
Q 1284 -91 818 406 
Q 353 903 353 1747 
Q 353 2603 823 3093 
Q 1294 3584 2113 3584 
Q 2378 3584 2631 3529 
Q 2884 3475 3122 3366 
z
" transform="scale(0.015625)"/>
       <path id="DejaVuSans-68" d="M 3513 2113 
L 3513 0 
L 2938 0 
L 2938 2094 
Q 2938 2591 2744 2837 
Q 2550 3084 2163 3084 
Q 1697 3084 1428 2787 
Q 1159 2491 1159 1978 
L 1159 0 
L 581 0 
L 581 4863 
L 1159 4863 
L 1159 2956 
Q 1366 3272 1645 3428 
Q 1925 3584 2291 3584 
Q 2894 3584 3203 3211 
Q 3513 2838 3513 2113 
z
" transform="scale(0.015625)"/>
      </defs>
      <use xlink:href="#DejaVuSans-45"/>
      <use xlink:href="#DejaVuSans-70" transform="translate(63.183594 0)"/>
      <use xlink:href="#DejaVuSans-6f" transform="translate(126.660156 0)"/>
      <use xlink:href="#DejaVuSans-63" transform="translate(187.841797 0)"/>
      <use xlink:href="#DejaVuSans-68" transform="translate(242.822266 0)"/>
     </g>
    </g>
   </g>
   <g id="matplotlib.axis_2">
    <g id="ytick_1">
     <g id="line2d_19">
      <path d="M 47.72 442.277612 
L 853.2 442.277612 
" clip-path="url(#pd660056ca3)" style="fill: none; stroke-dasharray: 0.8,1.32; stroke-dashoffset: 0; stroke: #b0b0b0; stroke-opacity: 0.7; stroke-width: 0.8"/>
     </g>
     <g id="line2d_20">
      <defs>
       <path id="m8e2855c1c5" d="M 0 0 
L -3.5 0 
" style="stroke: #000000; stroke-width: 0.8"/>
      </defs>
      <g>
       <use xlink:href="#m8e2855c1c5" x="47.72" y="442.277612" style="stroke: #000000; stroke-width: 0.8"/>
      </g>
     </g>
     <g id="text_11">
      <!-- 0.0 -->
      <g transform="translate(24.816875 446.076831) scale(0.1 -0.1)">
       <defs>
        <path id="DejaVuSans-2e" d="M 684 794 
L 1344 794 
L 1344 0 
L 684 0 
L 684 794 
z
" transform="scale(0.015625)"/>
       </defs>
       <use xlink:href="#DejaVuSans-30"/>
       <use xlink:href="#DejaVuSans-2e" transform="translate(63.623047 0)"/>
       <use xlink:href="#DejaVuSans-30" transform="translate(95.410156 0)"/>
      </g>
     </g>
    </g>
    <g id="ytick_2">
     <g id="line2d_21">
      <path d="M 47.72 382.535595 
L 853.2 382.535595 
" clip-path="url(#pd660056ca3)" style="fill: none; stroke-dasharray: 0.8,1.32; stroke-dashoffset: 0; stroke: #b0b0b0; stroke-opacity: 0.7; stroke-width: 0.8"/>
     </g>
     <g id="line2d_22">
      <g>
       <use xlink:href="#m8e2855c1c5" x="47.72" y="382.535595" style="stroke: #000000; stroke-width: 0.8"/>
      </g>
     </g>
     <g id="text_12">
      <!-- 0.1 -->
      <g transform="translate(24.816875 386.334814) scale(0.1 -0.1)">
       <use xlink:href="#DejaVuSans-30"/>
       <use xlink:href="#DejaVuSans-2e" transform="translate(63.623047 0)"/>
       <use xlink:href="#DejaVuSans-31" transform="translate(95.410156 0)"/>
      </g>
     </g>
    </g>
    <g id="ytick_3">
     <g id="line2d_23">
      <path d="M 47.72 322.793578 
L 853.2 322.793578 
" clip-path="url(#pd660056ca3)" style="fill: none; stroke-dasharray: 0.8,1.32; stroke-dashoffset: 0; stroke: #b0b0b0; stroke-opacity: 0.7; stroke-width: 0.8"/>
     </g>
     <g id="line2d_24">
      <g>
       <use xlink:href="#m8e2855c1c5" x="47.72" y="322.793578" style="stroke: #000000; stroke-width: 0.8"/>
      </g>
     </g>
     <g id="text_13">
      <!-- 0.2 -->
      <g transform="translate(24.816875 326.592796) scale(0.1 -0.1)">
       <use xlink:href="#DejaVuSans-30"/>
       <use xlink:href="#DejaVuSans-2e" transform="translate(63.623047 0)"/>
       <use xlink:href="#DejaVuSans-32" transform="translate(95.410156 0)"/>
      </g>
     </g>
    </g>
    <g id="ytick_4">
     <g id="line2d_25">
      <path d="M 47.72 263.05156 
L 853.2 263.05156 
" clip-path="url(#pd660056ca3)" style="fill: none; stroke-dasharray: 0.8,1.32; stroke-dashoffset: 0; stroke: #b0b0b0; stroke-opacity: 0.7; stroke-width: 0.8"/>
     </g>
     <g id="line2d_26">
      <g>
       <use xlink:href="#m8e2855c1c5" x="47.72" y="263.05156" style="stroke: #000000; stroke-width: 0.8"/>
      </g>
     </g>
     <g id="text_14">
      <!-- 0.3 -->
      <g transform="translate(24.816875 266.850779) scale(0.1 -0.1)">
       <use xlink:href="#DejaVuSans-30"/>
       <use xlink:href="#DejaVuSans-2e" transform="translate(63.623047 0)"/>
       <use xlink:href="#DejaVuSans-33" transform="translate(95.410156 0)"/>
      </g>
     </g>
    </g>
    <g id="ytick_5">
     <g id="line2d_27">
      <path d="M 47.72 203.309543 
L 853.2 203.309543 
" clip-path="url(#pd660056ca3)" style="fill: none; stroke-dasharray: 0.8,1.32; stroke-dashoffset: 0; stroke: #b0b0b0; stroke-opacity: 0.7; stroke-width: 0.8"/>
     </g>
     <g id="line2d_28">
      <g>
       <use xlink:href="#m8e2855c1c5" x="47.72" y="203.309543" style="stroke: #000000; stroke-width: 0.8"/>
      </g>
     </g>
     <g id="text_15">
      <!-- 0.4 -->
      <g transform="translate(24.816875 207.108762) scale(0.1 -0.1)">
       <use xlink:href="#DejaVuSans-30"/>
       <use xlink:href="#DejaVuSans-2e" transform="translate(63.623047 0)"/>
       <use xlink:href="#DejaVuSans-34" transform="translate(95.410156 0)"/>
      </g>
     </g>
    </g>
    <g id="ytick_6">
     <g id="line2d_29">
      <path d="M 47.72 143.567526 
L 853.2 143.567526 
" clip-path="url(#pd660056ca3)" style="fill: none; stroke-dasharray: 0.8,1.32; stroke-dashoffset: 0; stroke: #b0b0b0; stroke-opacity: 0.7; stroke-width: 0.8"/>
     </g>
     <g id="line2d_30">
      <g>
       <use xlink:href="#m8e2855c1c5" x="47.72" y="143.567526" style="stroke: #000000; stroke-width: 0.8"/>
      </g>
     </g>
     <g id="text_16">
      <!-- 0.5 -->
      <g transform="translate(24.816875 147.366745) scale(0.1 -0.1)">
       <use xlink:href="#DejaVuSans-30"/>
       <use xlink:href="#DejaVuSans-2e" transform="translate(63.623047 0)"/>
       <use xlink:href="#DejaVuSans-35" transform="translate(95.410156 0)"/>
      </g>
     </g>
    </g>
    <g id="ytick_7">
     <g id="line2d_31">
      <path d="M 47.72 83.825509 
L 853.2 83.825509 
" clip-path="url(#pd660056ca3)" style="fill: none; stroke-dasharray: 0.8,1.32; stroke-dashoffset: 0; stroke: #b0b0b0; stroke-opacity: 0.7; stroke-width: 0.8"/>
     </g>
     <g id="line2d_32">
      <g>
       <use xlink:href="#m8e2855c1c5" x="47.72" y="83.825509" style="stroke: #000000; stroke-width: 0.8"/>
      </g>
     </g>
     <g id="text_17">
      <!-- 0.6 -->
      <g transform="translate(24.816875 87.624728) scale(0.1 -0.1)">
       <defs>
        <path id="DejaVuSans-36" d="M 2113 2584 
Q 1688 2584 1439 2293 
Q 1191 2003 1191 1497 
Q 1191 994 1439 701 
Q 1688 409 2113 409 
Q 2538 409 2786 701 
Q 3034 994 3034 1497 
Q 3034 2003 2786 2293 
Q 2538 2584 2113 2584 
z
M 3366 4563 
L 3366 3988 
Q 3128 4100 2886 4159 
Q 2644 4219 2406 4219 
Q 1781 4219 1451 3797 
Q 1122 3375 1075 2522 
Q 1259 2794 1537 2939 
Q 1816 3084 2150 3084 
Q 2853 3084 3261 2657 
Q 3669 2231 3669 1497 
Q 3669 778 3244 343 
Q 2819 -91 2113 -91 
Q 1303 -91 875 529 
Q 447 1150 447 2328 
Q 447 3434 972 4092 
Q 1497 4750 2381 4750 
Q 2619 4750 2861 4703 
Q 3103 4656 3366 4563 
z
" transform="scale(0.015625)"/>
       </defs>
       <use xlink:href="#DejaVuSans-30"/>
       <use xlink:href="#DejaVuSans-2e" transform="translate(63.623047 0)"/>
       <use xlink:href="#DejaVuSans-36" transform="translate(95.410156 0)"/>
      </g>
     </g>
    </g>
    <g id="text_18">
     <!-- mAP@50-95 -->
     <g transform="translate(18.737188 275.294375) rotate(-90) scale(0.1 -0.1)">
      <defs>
       <path id="DejaVuSans-6d" d="M 3328 2828 
Q 3544 3216 3844 3400 
Q 4144 3584 4550 3584 
Q 5097 3584 5394 3201 
Q 5691 2819 5691 2113 
L 5691 0 
L 5113 0 
L 5113 2094 
Q 5113 2597 4934 2840 
Q 4756 3084 4391 3084 
Q 3944 3084 3684 2787 
Q 3425 2491 3425 1978 
L 3425 0 
L 2847 0 
L 2847 2094 
Q 2847 2600 2669 2842 
Q 2491 3084 2119 3084 
Q 1678 3084 1418 2786 
Q 1159 2488 1159 1978 
L 1159 0 
L 581 0 
L 581 3500 
L 1159 3500 
L 1159 2956 
Q 1356 3278 1631 3431 
Q 1906 3584 2284 3584 
Q 2666 3584 2933 3390 
Q 3200 3197 3328 2828 
z
" transform="scale(0.015625)"/>
       <path id="DejaVuSans-41" d="M 2188 4044 
L 1331 1722 
L 3047 1722 
L 2188 4044 
z
M 1831 4666 
L 2547 4666 
L 4325 0 
L 3669 0 
L 3244 1197 
L 1141 1197 
L 716 0 
L 50 0 
L 1831 4666 
z
" transform="scale(0.015625)"/>
       <path id="DejaVuSans-50" d="M 1259 4147 
L 1259 2394 
L 2053 2394 
Q 2494 2394 2734 2622 
Q 2975 2850 2975 3272 
Q 2975 3691 2734 3919 
Q 2494 4147 2053 4147 
L 1259 4147 
z
M 628 4666 
L 2053 4666 
Q 2838 4666 3239 4311 
Q 3641 3956 3641 3272 
Q 3641 2581 3239 2228 
Q 2838 1875 2053 1875 
L 1259 1875 
L 1259 0 
L 628 0 
L 628 4666 
z
" transform="scale(0.015625)"/>
       <path id="DejaVuSans-40" d="M 2381 1678 
Q 2381 1231 2603 976 
Q 2825 722 3213 722 
Q 3597 722 3817 978 
Q 4038 1234 4038 1678 
Q 4038 2116 3813 2373 
Q 3588 2631 3206 2631 
Q 2828 2631 2604 2375 
Q 2381 2119 2381 1678 
z
M 4084 744 
Q 3897 503 3655 389 
Q 3413 275 3091 275 
Q 2553 275 2217 664 
Q 1881 1053 1881 1678 
Q 1881 2303 2218 2693 
Q 2556 3084 3091 3084 
Q 3413 3084 3656 2967 
Q 3900 2850 4084 2613 
L 4084 3022 
L 4531 3022 
L 4531 722 
Q 4988 791 5245 1139 
Q 5503 1488 5503 2041 
Q 5503 2375 5404 2669 
Q 5306 2963 5106 3213 
Q 4781 3622 4314 3839 
Q 3847 4056 3297 4056 
Q 2913 4056 2559 3954 
Q 2206 3853 1906 3653 
Q 1416 3334 1139 2817 
Q 863 2300 863 1697 
Q 863 1200 1042 765 
Q 1222 331 1563 0 
Q 1891 -325 2322 -495 
Q 2753 -666 3244 -666 
Q 3647 -666 4036 -530 
Q 4425 -394 4750 -141 
L 5031 -488 
Q 4641 -791 4180 -952 
Q 3719 -1113 3244 -1113 
Q 2666 -1113 2153 -908 
Q 1641 -703 1241 -313 
Q 841 78 631 592 
Q 422 1106 422 1697 
Q 422 2266 634 2781 
Q 847 3297 1241 3688 
Q 1644 4084 2172 4295 
Q 2700 4506 3291 4506 
Q 3953 4506 4520 4234 
Q 5088 3963 5472 3463 
Q 5706 3156 5829 2797 
Q 5953 2438 5953 2053 
Q 5953 1231 5456 756 
Q 4959 281 4084 263 
L 4084 744 
z
" transform="scale(0.015625)"/>
       <path id="DejaVuSans-2d" d="M 313 2009 
L 1997 2009 
L 1997 1497 
L 313 1497 
L 313 2009 
z
" transform="scale(0.015625)"/>
       <path id="DejaVuSans-39" d="M 703 97 
L 703 672 
Q 941 559 1184 500 
Q 1428 441 1663 441 
Q 2288 441 2617 861 
Q 2947 1281 2994 2138 
Q 2813 1869 2534 1725 
Q 2256 1581 1919 1581 
Q 1219 1581 811 2004 
Q 403 2428 403 3163 
Q 403 3881 828 4315 
Q 1253 4750 1959 4750 
Q 2769 4750 3195 4129 
Q 3622 3509 3622 2328 
Q 3622 1225 3098 567 
Q 2575 -91 1691 -91 
Q 1453 -91 1209 -44 
Q 966 3 703 97 
z
M 1959 2075 
Q 2384 2075 2632 2365 
Q 2881 2656 2881 3163 
Q 2881 3666 2632 3958 
Q 2384 4250 1959 4250 
Q 1534 4250 1286 3958 
Q 1038 3666 1038 3163 
Q 1038 2656 1286 2365 
Q 1534 2075 1959 2075 
z
" transform="scale(0.015625)"/>
      </defs>
      <use xlink:href="#DejaVuSans-6d"/>
      <use xlink:href="#DejaVuSans-41" transform="translate(97.412109 0)"/>
      <use xlink:href="#DejaVuSans-50" transform="translate(165.820312 0)"/>
      <use xlink:href="#DejaVuSans-40" transform="translate(226.123047 0)"/>
      <use xlink:href="#DejaVuSans-35" transform="translate(326.123047 0)"/>
      <use xlink:href="#DejaVuSans-30" transform="translate(389.746094 0)"/>
      <use xlink:href="#DejaVuSans-2d" transform="translate(453.369141 0)"/>
      <use xlink:href="#DejaVuSans-39" transform="translate(489.453125 0)"/>
      <use xlink:href="#DejaVuSans-35" transform="translate(553.076172 0)"/>
     </g>
    </g>
   </g>
   <g id="line2d_33">
    <path d="M 84.332727 442.195592 
L 87.93103 442.230651 
L 89.730181 441.850468 
L 91.529332 440.571858 
L 93.328483 436.99128 
L 95.127635 430.440329 
L 96.926786 415.234193 
L 98.725937 426.91555 
L 100.525088 403.272049 
L 102.324239 410.901702 
L 104.123391 392.126578 
L 105.922542 386.45945 
L 107.721693 389.143062 
L 109.520844 371.08305 
L 111.319996 378.102737 
L 113.119147 375.826566 
L 114.918298 367.122154 
L 116.717449 347.108579 
L 118.5166 375.39045 
L 120.315752 366.399276 
L 122.114903 361.972392 
L 123.914054 359.63648 
L 125.713205 335.19602 
L 127.512356 356.894321 
L 129.311508 350.191267 
L 131.110659 331.372531 
L 132.90981 330.577962 
L 134.708961 339.324194 
L 136.508113 335.990589 
L 138.307264 313.336416 
L 140.106415 325.738859 
L 141.905566 336.20566 
L 143.704717 317.781222 
L 145.503869 342.239604 
L 147.30302 322.584481 
L 149.102171 322.476945 
L 150.901322 317.697584 
L 152.700474 341.743745 
L 154.499625 317.434719 
L 156.298776 304.482649 
L 158.097927 302.780002 
L 159.897078 308.670565 
L 161.69623 311.227523 
L 163.495381 277.515103 
L 165.294532 311.66364 
L 167.093683 292.01449 
L 168.892834 286.978238 
L 170.691986 311.508311 
L 172.491137 315.272058 
L 176.089439 269.706821 
L 177.888591 275.459977 
L 179.687742 269.915918 
L 181.486893 243.796708 
L 183.286044 302.750131 
L 185.085195 294.057667 
L 186.884347 293.830648 
L 188.683498 303.216119 
L 190.482649 261.946333 
L 192.2818 247.417075 
L 194.080952 258.403631 
L 195.880103 281.553663 
L 197.679254 266.056584 
L 199.478405 268.709129 
L 201.277556 241.986525 
L 203.076708 270.537235 
L 204.875859 302.612724 
L 206.67501 228.377294 
L 208.474161 259.245994 
L 210.273312 233.730178 
L 212.072464 249.651426 
L 213.871615 312.500028 
L 215.670766 272.114424 
L 217.469917 253.361405 
L 219.269069 278.650201 
L 221.06822 267.394805 
L 222.867371 276.272469 
L 224.666522 255.900441 
L 226.465673 257.752443 
L 228.264825 281.977831 
L 230.063976 286.631735 
L 231.863127 243.103701 
L 233.662278 255.058079 
L 235.46143 278.237981 
L 237.260581 239.322031 
L 239.059732 268.153529 
L 240.858883 217.743215 
L 242.658034 230.940226 
L 244.457186 271.319856 
L 246.256337 248.355024 
L 248.055488 256.408248 
L 249.854639 247.895011 
L 251.65379 209.540636 
L 253.452942 215.162359 
L 255.252093 256.623319 
L 257.051244 228.544571 
L 258.850395 238.527462 
L 260.649547 230.23527 
L 262.448698 278.644227 
L 264.247849 251.927597 
L 266.047 192.251296 
L 267.846151 186.289043 
L 269.645303 228.383268 
L 271.444454 231.985711 
L 273.243605 214.140771 
L 275.042756 228.646133 
L 276.841908 231.860253 
L 278.641059 223.209609 
L 280.44021 212.007981 
L 282.239361 234.632283 
L 284.038512 178.355303 
L 285.837664 227.051021 
L 287.636815 235.892839 
L 289.435966 231.304652 
L 291.235117 220.58096 
L 293.034268 214.051158 
L 294.83342 217.910492 
L 296.632571 187.76467 
L 298.431722 210.424817 
L 300.230873 226.620878 
L 302.030025 193.260936 
L 303.829176 201.206624 
L 305.628327 187.340502 
L 307.427478 205.233236 
L 309.226629 186.265146 
L 311.025781 205.543895 
L 312.824932 209.857268 
L 314.624083 194.652925 
L 316.423234 228.227939 
L 318.222386 209.689991 
L 320.021537 192.376754 
L 321.820688 168.951909 
L 323.619839 182.328147 
L 325.41899 169.573226 
L 327.218142 212.013955 
L 329.017293 208.530996 
L 330.816444 194.079402 
L 332.615595 191.755437 
L 334.414746 212.073697 
L 336.213898 213.39997 
L 338.013049 181.670985 
L 339.8122 202.765891 
L 341.611351 196.93507 
L 343.410503 235.66582 
L 345.209654 195.023325 
L 347.008805 212.832421 
L 348.807956 221.584626 
L 350.607107 186.432423 
L 352.406259 178.582322 
L 354.20541 188.613007 
L 356.004561 217.474376 
L 357.803712 200.226855 
L 359.602864 206.224954 
L 361.402015 195.387752 
L 363.201166 189.210427 
L 365.000317 206.66107 
L 366.799468 227.170505 
L 368.59862 198.948376 
L 370.397771 206.499767 
L 372.196922 201.827941 
L 373.996073 199.456183 
L 375.795224 212.330588 
L 377.594376 200.931811 
L 379.393527 177.984902 
L 381.192678 174.884291 
L 382.991829 209.451023 
L 384.790981 204.838939 
L 386.590132 184.132356 
L 388.389283 186.874514 
L 390.188434 140.036773 
L 391.987585 191.367114 
L 393.786737 171.371461 
L 395.585888 194.50357 
L 397.385039 186.45632 
L 399.18419 184.227943 
L 400.983342 200.513617 
L 402.782493 208.698273 
L 404.581644 209.313616 
L 406.380795 170.935344 
L 408.179946 216.189922 
L 409.979098 182.48945 
L 411.778249 191.77336 
L 413.5774 192.818845 
L 415.376551 192.036225 
L 417.175702 192.125838 
L 418.974854 182.770238 
L 420.774005 190.232016 
L 422.573156 188.302349 
L 424.372307 168.844374 
L 426.171459 188.58911 
L 427.97061 193.458085 
L 429.769761 191.540366 
L 431.568912 195.429571 
L 433.368063 198.858763 
L 435.167215 158.473159 
L 436.966366 181.449939 
L 438.765517 175.822241 
L 440.564668 182.399837 
L 442.36382 124.981785 
L 444.162971 137.115388 
L 445.962122 190.255912 
L 447.761273 191.701669 
L 449.560424 179.878724 
L 451.359576 162.774585 
L 453.158727 184.980692 
L 454.957878 172.35123 
L 456.757029 188.58911 
L 458.55618 181.073564 
L 460.355332 166.538332 
L 462.154483 193.075736 
L 463.953634 188.368065 
L 465.752785 175.129234 
L 467.551937 186.665417 
L 469.351088 180.494067 
L 471.150239 188.487549 
L 472.94939 183.923259 
L 474.748541 170.092982 
L 476.547693 151.447498 
L 478.346844 170.839757 
L 480.145995 180.380557 
L 481.945146 207.168878 
L 483.744298 174.137516 
L 485.543449 187.76467 
L 487.3426 178.510632 
L 489.141751 165.91104 
L 490.940902 151.286195 
L 492.740054 183.206354 
L 494.539205 194.01966 
L 496.338356 175.505608 
L 498.137507 181.348378 
L 499.936658 206.451973 
L 503.534961 171.431203 
L 505.334112 192.932355 
L 507.133263 184.986667 
L 508.932415 150.258632 
L 510.731566 170.821834 
L 512.530717 131.314438 
L 514.329868 155.444239 
L 516.129019 176.712397 
L 517.928171 180.942132 
L 519.727322 179.436633 
L 521.526473 176.341997 
L 523.325624 170.690402 
L 525.124776 172.757476 
L 526.923927 180.65537 
L 528.723078 183.905336 
L 530.522229 178.03867 
L 532.32138 174.914162 
L 534.120532 172.476688 
L 535.919683 190.214093 
L 537.718834 185.357067 
L 539.517985 180.852519 
L 541.317136 169.405948 
L 543.116288 168.08565 
L 544.915439 183.618574 
L 546.71459 118.326524 
L 548.513741 128.996448 
L 550.312893 138.244512 
L 552.112044 180.416402 
L 553.911195 166.371054 
L 555.710346 156.866099 
L 557.509497 167.470307 
L 559.308649 189.007304 
L 561.1078 178.833239 
L 562.906951 172.082391 
L 564.706102 171.377435 
L 568.304405 189.682389 
L 570.103556 190.5367 
L 571.902707 182.495424 
L 573.701858 180.141589 
L 575.50101 183.266096 
L 577.300161 176.981236 
L 579.099312 184.759647 
L 580.898463 172.57825 
L 582.697614 170.379743 
L 584.496766 174.681169 
L 586.295917 172.667863 
L 588.095068 149.906154 
L 589.894219 171.102622 
L 591.693371 176.120951 
L 593.492522 188.804181 
L 595.291673 188.571188 
L 598.889975 166.872887 
L 600.689127 175.141182 
L 602.488278 175.00975 
L 604.287429 170.481305 
L 606.08658 175.935751 
L 607.885732 176.921494 
L 609.684883 179.084155 
L 611.484034 185.363041 
L 613.283185 189.025227 
L 615.082336 186.916334 
L 616.881488 171.676145 
L 618.680639 162.230932 
L 622.278941 178.229844 
L 624.078092 178.301535 
L 625.877244 168.874245 
L 627.676395 168.587483 
L 629.475546 169.99142 
L 631.274697 180.141589 
L 633.073849 147.498551 
L 634.873 152.827539 
L 636.672151 172.225772 
L 638.471302 174.400381 
L 640.270453 159.895019 
L 642.069605 174.645323 
L 643.868756 178.570374 
L 645.667907 169.310361 
L 647.467058 159.321496 
L 649.26621 178.098412 
L 651.065361 146.542679 
L 652.864512 151.100994 
L 654.663663 172.452791 
L 656.462814 173.414638 
L 658.261966 168.246953 
L 660.061117 158.91525 
L 661.860268 175.159105 
L 663.659419 174.472072 
L 665.45857 169.16698 
L 667.257722 165.970783 
L 669.056873 169.770375 
L 670.856024 171.204183 
L 672.655175 164.871529 
L 674.454327 171.514842 
L 676.253478 166.150009 
L 678.052629 170.780015 
L 679.85178 164.393593 
L 681.650931 172.924753 
L 683.450083 167.906424 
L 685.249234 162.236906 
L 687.048385 159.775535 
L 688.847536 169.99142 
L 690.646688 175.445866 
L 692.445839 175.816267 
L 694.24499 173.946342 
L 696.044141 181.151229 
L 697.843292 179.633782 
L 699.642444 171.986804 
L 701.441595 177.901263 
L 703.240746 172.888908 
L 705.039897 170.134801 
L 706.839048 161.16155 
L 708.6382 168.695018 
L 710.437351 181.354352 
L 712.236502 172.930728 
L 714.035653 159.954761 
L 715.834805 158.813689 
L 717.633956 160.815046 
L 719.433107 155.940098 
L 721.232258 158.736024 
L 723.031409 166.305338 
L 724.830561 168.814503 
L 726.629712 173.127876 
L 728.428863 165.61233 
L 730.228014 159.160193 
L 732.027166 171.849397 
L 733.826317 168.08565 
L 735.625468 177.608527 
L 737.424619 172.446817 
L 739.22377 172.440843 
L 741.022922 159.895019 
L 742.822073 142.056053 
L 744.621224 169.131135 
L 746.420375 173.952316 
L 748.219526 171.974855 
L 750.018678 178.313483 
L 751.817829 165.594408 
L 753.61698 179.64573 
L 755.416131 175.356253 
L 757.215283 166.956526 
L 759.014434 166.783274 
L 760.813585 165.76766 
L 762.612736 169.746478 
L 764.411887 180.786803 
L 766.211039 172.207849 
L 768.01019 169.292439 
L 769.809341 171.467048 
L 771.608492 173.28918 
L 773.407644 170.947293 
L 775.206795 172.369153 
L 777.005946 172.865011 
L 778.805097 167.040165 
L 780.604248 165.092575 
L 782.4034 167.117829 
L 784.202551 166.520409 
L 786.001702 173.522173 
L 787.800853 172.35123 
L 789.600004 177.847496 
L 791.399156 178.785445 
L 793.198307 176.353945 
L 794.997458 170.995086 
L 796.796609 169.901807 
L 798.595761 172.500585 
L 800.394912 171.944984 
L 802.194063 172.53643 
L 803.993214 169.16698 
L 805.792365 169.286464 
L 807.591517 174.728962 
L 809.390668 168.61138 
L 812.98897 167.48823 
L 814.788122 164.734123 
L 816.587273 164.076961 
L 816.587273 164.076961 
" clip-path="url(#pd660056ca3)" style="fill: none; stroke: #1f77b4; stroke-width: 0.8; stroke-linecap: square"/>
   </g>
   <g id="line2d_34">
    <path d="M 86.131878 442.235793 
L 87.93103 442.080463 
L 89.730181 441.02303 
L 91.529332 430.759351 
L 93.328483 421.475442 
L 95.127635 407.812442 
L 96.926786 393.020319 
L 98.725937 371.596831 
L 100.525088 378.168453 
L 102.324239 340.32786 
L 104.123391 349.235394 
L 105.922542 320.935601 
L 107.721693 329.813265 
L 109.520844 323.856985 
L 111.319996 303.562622 
L 113.119147 313.145242 
L 114.918298 281.732889 
L 116.717449 302.732208 
L 118.5166 296.626574 
L 120.315752 289.505326 
L 122.114903 286.231463 
L 123.914054 321.20444 
L 125.713205 281.732889 
L 127.512356 287.312794 
L 129.311508 284.445177 
L 131.110659 271.104784 
L 132.90981 273.512388 
L 134.708961 257.961541 
L 136.508113 258.37376 
L 138.307264 245.367923 
L 140.106415 256.294738 
L 141.905566 258.182586 
L 143.704717 228.956791 
L 145.503869 247.972675 
L 147.30302 251.957468 
L 149.102171 225.82631 
L 150.901322 228.873152 
L 152.700474 224.255094 
L 154.499625 245.642737 
L 156.298776 208.435408 
L 158.097927 218.245048 
L 159.897078 208.53697 
L 161.69623 240.015039 
L 163.495381 238.575256 
L 165.294532 226.077226 
L 167.093683 227.678312 
L 168.892834 199.163447 
L 170.691986 213.728551 
L 172.491137 211.303025 
L 174.290288 231.537646 
L 176.089439 200.220881 
L 177.888591 211.386664 
L 179.687742 199.509951 
L 181.486893 179.741317 
L 183.286044 184.36535 
L 185.085195 179.484427 
L 186.884347 183.230251 
L 188.683498 177.590605 
L 190.482649 200.185036 
L 192.2818 172.064468 
L 194.080952 180.004182 
L 195.880103 170.708324 
L 197.679254 189.867589 
L 199.478405 179.896647 
L 201.277556 194.969558 
L 203.076708 158.048991 
L 204.875859 192.054147 
L 206.67501 169.2088 
L 208.474161 172.028623 
L 210.273312 175.356253 
L 212.072464 164.662432 
L 213.871615 182.238534 
L 215.670766 174.161413 
L 217.469917 180.989926 
L 219.269069 151.632698 
L 221.06822 159.889045 
L 222.867371 151.80595 
L 224.666522 176.09108 
L 226.465673 162.678997 
L 228.264825 154.554083 
L 230.063976 140.120412 
L 231.863127 163.784225 
L 233.662278 164.196445 
L 235.46143 157.744307 
L 237.260581 150.037587 
L 239.059732 150.891897 
L 240.858883 141.046413 
L 242.658034 166.377028 
L 244.457186 146.578524 
L 246.256337 149.171327 
L 248.055488 139.481172 
L 249.854639 146.363452 
L 251.65379 152.487009 
L 253.452942 148.072074 
L 255.252093 135.364947 
L 257.051244 147.265557 
L 258.850395 143.454016 
L 260.649547 137.862163 
L 262.448698 146.698008 
L 264.247849 141.823059 
L 266.047 143.179203 
L 267.846151 129.635688 
L 269.645303 133.154492 
L 271.444454 141.942543 
L 273.243605 140.006902 
L 275.042756 133.536841 
L 276.841908 136.267052 
L 278.641059 132.467459 
L 280.44021 136.733039 
L 282.239361 158.634463 
L 284.038512 147.193867 
L 285.837664 154.058224 
L 287.636815 138.352048 
L 289.435966 136.655375 
L 291.235117 136.571736 
L 293.034268 135.585993 
L 294.83342 125.346211 
L 296.632571 122.645872 
L 298.431722 107.118921 
L 300.230873 121.570515 
L 302.030025 128.637996 
L 303.829176 116.098147 
L 307.427478 134.648043 
L 309.226629 127.532769 
L 311.025781 149.649263 
L 312.824932 130.59156 
L 314.624083 123.464337 
L 316.423234 117.902355 
L 318.222386 140.759651 
L 320.021537 120.590746 
L 321.820688 76.076969 
L 323.619839 124.300726 
L 325.41899 127.168342 
L 327.218142 107.220483 
L 329.017293 121.624283 
L 330.816444 121.397263 
L 332.615595 132.24044 
L 334.414746 122.388981 
L 336.213898 117.251167 
L 338.013049 123.380698 
L 339.8122 128.440847 
L 341.611351 114.01315 
L 343.410503 129.444513 
L 345.209654 114.329783 
L 347.008805 112.041664 
L 348.807956 120.961147 
L 350.607107 115.865153 
L 352.406259 137.264743 
L 354.20541 129.516204 
L 356.004561 110.2733 
L 359.602864 129.80894 
L 361.402015 127.120549 
L 363.201166 127.903169 
L 365.000317 121.146347 
L 366.799468 116.14594 
L 368.59862 97.829038 
L 370.397771 127.837453 
L 372.196922 123.745125 
L 373.996073 118.009891 
L 375.795224 105.959926 
L 377.594376 111.647366 
L 379.393527 99.914034 
L 381.192678 108.714033 
L 382.991829 119.802152 
L 384.790981 108.576627 
L 386.590132 125.57323 
L 390.188434 114.096789 
L 391.987585 116.815051 
L 393.786737 106.724624 
L 395.585888 121.660128 
L 397.385039 117.753 
L 399.18419 122.944582 
L 400.983342 118.02184 
L 402.782493 130.316747 
L 404.581644 111.276966 
L 406.380795 125.244649 
L 408.179946 109.532499 
L 409.979098 126.009347 
L 411.778249 111.826592 
L 413.5774 115.357346 
L 415.376551 117.215322 
L 417.175702 121.355444 
L 418.974854 122.006632 
L 420.774005 110.165764 
L 422.573156 112.597264 
L 424.372307 110.512268 
L 426.171459 70.025103 
L 427.97061 106.360198 
L 429.769761 119.061351 
L 431.568912 104.018311 
L 433.368063 118.541595 
L 435.167215 100.624964 
L 436.966366 104.161692 
L 438.765517 111.085791 
L 440.564668 115.058635 
L 442.36382 114.998893 
L 444.162971 115.06461 
L 445.962122 101.437456 
L 447.761273 110.960333 
L 449.560424 100.481583 
L 451.359576 106.987489 
L 453.158727 112.93182 
L 454.957878 104.950286 
L 456.757029 109.825235 
L 458.55618 100.188847 
L 460.355332 99.053749 
L 462.154483 107.817903 
L 463.953634 105.553681 
L 465.752785 107.059179 
L 467.551937 114.580699 
L 469.351088 111.969973 
L 471.150239 111.187353 
L 472.94939 102.709961 
L 474.748541 97.673708 
L 476.547693 108.32571 
L 478.346844 102.351508 
L 480.145995 101.037184 
L 481.945146 108.337659 
L 483.744298 113.511317 
L 485.543449 94.411794 
L 487.3426 95.397538 
L 489.141751 47.502362 
L 490.940902 102.243973 
L 492.740054 98.18749 
L 494.539205 103.444787 
L 496.338356 89.895298 
L 498.137507 95.206363 
L 499.936658 54.050088 
L 501.73581 46.66 
L 505.334112 90.701815 
L 507.133263 93.013831 
L 508.932415 53.518384 
L 510.731566 100.666784 
L 512.530717 99.280769 
L 514.329868 99.914034 
L 516.129019 105.9659 
L 517.928171 106.646959 
L 519.727322 112.615187 
L 521.526473 103.904801 
L 523.325624 98.181516 
L 525.124776 105.553681 
L 526.923927 106.820211 
L 528.723078 99.788576 
L 530.522229 105.906158 
L 532.32138 109.472757 
L 534.120532 116.098147 
L 535.919683 106.551372 
L 537.718834 87.786405 
L 539.517985 63.566991 
L 541.317136 69.385863 
L 543.116288 96.604326 
L 544.915439 101.62863 
L 546.71459 92.750966 
L 548.513741 92.667327 
L 550.312893 81.997403 
L 552.112044 94.196723 
L 553.911195 102.925032 
L 555.710346 81.674796 
L 557.509497 88.742277 
L 559.308649 106.778392 
L 561.1078 95.128699 
L 562.906951 94.214646 
L 564.706102 107.148792 
L 566.505254 110.948385 
L 568.304405 113.971331 
L 570.103556 101.957211 
L 571.902707 94.160878 
L 573.701858 99.388304 
L 575.50101 102.33956 
L 577.300161 51.612613 
L 579.099312 84.422929 
L 580.898463 96.35341 
L 582.697614 97.165901 
L 584.496766 100.84601 
L 586.295917 106.270585 
L 588.095068 81.913764 
L 589.894219 98.468277 
L 591.693371 104.639628 
L 593.492522 103.624013 
L 595.291673 96.01288 
L 597.090824 97.96047 
L 598.889975 104.627679 
L 600.689127 93.151238 
L 602.488278 47.813021 
L 604.287429 98.157619 
L 606.08658 105.661216 
L 607.885732 101.837727 
L 609.684883 109.054563 
L 611.484034 106.366172 
L 613.283185 102.15436 
L 615.082336 100.857958 
L 616.881488 100.212744 
L 618.680639 105.051848 
L 620.47979 90.803376 
L 622.278941 104.084027 
L 624.078092 102.393328 
L 625.877244 105.225099 
L 627.676395 101.317972 
L 629.475546 102.363457 
L 631.274697 103.635962 
L 633.073849 105.350558 
L 634.873 108.720007 
L 636.672151 102.22605 
L 638.471302 105.930055 
L 640.270453 108.259994 
L 642.069605 105.983823 
L 643.868756 102.656193 
L 645.667907 101.527069 
L 647.467058 106.891902 
L 649.26621 105.147435 
L 651.065361 92.804734 
L 654.663663 109.962641 
L 656.462814 98.468277 
L 658.261966 102.166308 
L 660.061117 99.818447 
L 661.860268 98.492174 
L 663.659419 98.384638 
L 665.45857 99.531685 
L 667.257722 109.711725 
L 669.056873 106.688779 
L 670.856024 106.127204 
L 672.655175 100.421841 
L 674.454327 91.639765 
L 676.253478 98.778936 
L 678.052629 100.923674 
L 679.85178 104.567937 
L 681.650931 69.236508 
L 683.450083 112.59129 
L 685.249234 106.425914 
L 687.048385 99.543634 
L 688.847536 91.830939 
L 690.646688 71.249814 
L 692.445839 73.131688 
L 694.24499 88.013424 
L 696.044141 98.999981 
L 697.843292 105.697061 
L 699.642444 99.161285 
L 701.441595 106.575269 
L 703.240746 103.146077 
L 705.039897 98.265154 
L 706.839048 73.997947 
L 708.6382 57.144724 
L 710.437351 49.175139 
L 712.236502 95.074931 
L 714.035653 96.431075 
L 715.834805 94.101136 
L 717.633956 94.716479 
L 719.433107 100.057415 
L 721.232258 104.251305 
L 723.031409 100.403919 
L 724.830561 100.350151 
L 726.629712 103.719601 
L 728.428863 93.485793 
L 730.228014 94.44764 
L 732.027166 98.241258 
L 733.826317 95.475202 
L 735.625468 93.635148 
L 737.424619 101.425507 
L 739.22377 100.565222 
L 741.022922 96.138339 
L 742.822073 92.506024 
L 744.621224 77.026867 
L 746.420375 60.567942 
L 748.219526 55.621303 
L 750.018678 90.731686 
L 751.817829 105.284841 
L 753.61698 110.924488 
L 755.416131 106.963592 
L 757.215283 105.852391 
L 759.014434 74.870181 
L 760.813585 79.117838 
L 762.612736 82.0213 
L 764.411887 86.430261 
L 766.211039 93.892039 
L 768.01019 100.636913 
L 769.809341 102.082669 
L 771.608492 104.311047 
L 771.608492 104.311047 
" clip-path="url(#pd660056ca3)" style="fill: none; stroke: #ff7f0e; stroke-width: 0.8; stroke-linecap: square"/>
   </g>
   <g id="line2d_35"/>
   <g id="line2d_36"/>
   <g id="patch_3">
    <path d="M 47.72 462.04 
L 47.72 26.88 
" style="fill: none; stroke: #000000; stroke-width: 0.8; stroke-linejoin: miter; stroke-linecap: square"/>
   </g>
   <g id="patch_4">
    <path d="M 47.72 462.04 
L 853.2 462.04 
" style="fill: none; stroke: #000000; stroke-width: 0.8; stroke-linejoin: miter; stroke-linecap: square"/>
   </g>
   <g id="text_19">
    <!-- Comparison by mAP@50-95 between Axis Aligned Bounding Boxes and Oriented Bounding Boxes -->
    <g transform="translate(158.2375 20.88) scale(0.12 -0.12)">
     <defs>
      <path id="DejaVuSans-43" d="M 4122 4306 
L 4122 3641 
Q 3803 3938 3442 4084 
Q 3081 4231 2675 4231 
Q 1875 4231 1450 3742 
Q 1025 3253 1025 2328 
Q 1025 1406 1450 917 
Q 1875 428 2675 428 
Q 3081 428 3442 575 
Q 3803 722 4122 1019 
L 4122 359 
Q 3791 134 3420 21 
Q 3050 -91 2638 -91 
Q 1578 -91 968 557 
Q 359 1206 359 2328 
Q 359 3453 968 4101 
Q 1578 4750 2638 4750 
Q 3056 4750 3426 4639 
Q 3797 4528 4122 4306 
z
" transform="scale(0.015625)"/>
      <path id="DejaVuSans-61" d="M 2194 1759 
Q 1497 1759 1228 1600 
Q 959 1441 959 1056 
Q 959 750 1161 570 
Q 1363 391 1709 391 
Q 2188 391 2477 730 
Q 2766 1069 2766 1631 
L 2766 1759 
L 2194 1759 
z
M 3341 1997 
L 3341 0 
L 2766 0 
L 2766 531 
Q 2569 213 2275 61 
Q 1981 -91 1556 -91 
Q 1019 -91 701 211 
Q 384 513 384 1019 
Q 384 1609 779 1909 
Q 1175 2209 1959 2209 
L 2766 2209 
L 2766 2266 
Q 2766 2663 2505 2880 
Q 2244 3097 1772 3097 
Q 1472 3097 1187 3025 
Q 903 2953 641 2809 
L 641 3341 
Q 956 3463 1253 3523 
Q 1550 3584 1831 3584 
Q 2591 3584 2966 3190 
Q 3341 2797 3341 1997 
z
" transform="scale(0.015625)"/>
      <path id="DejaVuSans-72" d="M 2631 2963 
Q 2534 3019 2420 3045 
Q 2306 3072 2169 3072 
Q 1681 3072 1420 2755 
Q 1159 2438 1159 1844 
L 1159 0 
L 581 0 
L 581 3500 
L 1159 3500 
L 1159 2956 
Q 1341 3275 1631 3429 
Q 1922 3584 2338 3584 
Q 2397 3584 2469 3576 
Q 2541 3569 2628 3553 
L 2631 2963 
z
" transform="scale(0.015625)"/>
      <path id="DejaVuSans-69" d="M 603 3500 
L 1178 3500 
L 1178 0 
L 603 0 
L 603 3500 
z
M 603 4863 
L 1178 4863 
L 1178 4134 
L 603 4134 
L 603 4863 
z
" transform="scale(0.015625)"/>
      <path id="DejaVuSans-73" d="M 2834 3397 
L 2834 2853 
Q 2591 2978 2328 3040 
Q 2066 3103 1784 3103 
Q 1356 3103 1142 2972 
Q 928 2841 928 2578 
Q 928 2378 1081 2264 
Q 1234 2150 1697 2047 
L 1894 2003 
Q 2506 1872 2764 1633 
Q 3022 1394 3022 966 
Q 3022 478 2636 193 
Q 2250 -91 1575 -91 
Q 1294 -91 989 -36 
Q 684 19 347 128 
L 347 722 
Q 666 556 975 473 
Q 1284 391 1588 391 
Q 1994 391 2212 530 
Q 2431 669 2431 922 
Q 2431 1156 2273 1281 
Q 2116 1406 1581 1522 
L 1381 1569 
Q 847 1681 609 1914 
Q 372 2147 372 2553 
Q 372 3047 722 3315 
Q 1072 3584 1716 3584 
Q 2034 3584 2315 3537 
Q 2597 3491 2834 3397 
z
" transform="scale(0.015625)"/>
      <path id="DejaVuSans-6e" d="M 3513 2113 
L 3513 0 
L 2938 0 
L 2938 2094 
Q 2938 2591 2744 2837 
Q 2550 3084 2163 3084 
Q 1697 3084 1428 2787 
Q 1159 2491 1159 1978 
L 1159 0 
L 581 0 
L 581 3500 
L 1159 3500 
L 1159 2956 
Q 1366 3272 1645 3428 
Q 1925 3584 2291 3584 
Q 2894 3584 3203 3211 
Q 3513 2838 3513 2113 
z
" transform="scale(0.015625)"/>
      <path id="DejaVuSans-20" transform="scale(0.015625)"/>
      <path id="DejaVuSans-62" d="M 3116 1747 
Q 3116 2381 2855 2742 
Q 2594 3103 2138 3103 
Q 1681 3103 1420 2742 
Q 1159 2381 1159 1747 
Q 1159 1113 1420 752 
Q 1681 391 2138 391 
Q 2594 391 2855 752 
Q 3116 1113 3116 1747 
z
M 1159 2969 
Q 1341 3281 1617 3432 
Q 1894 3584 2278 3584 
Q 2916 3584 3314 3078 
Q 3713 2572 3713 1747 
Q 3713 922 3314 415 
Q 2916 -91 2278 -91 
Q 1894 -91 1617 61 
Q 1341 213 1159 525 
L 1159 0 
L 581 0 
L 581 4863 
L 1159 4863 
L 1159 2969 
z
" transform="scale(0.015625)"/>
      <path id="DejaVuSans-79" d="M 2059 -325 
Q 1816 -950 1584 -1140 
Q 1353 -1331 966 -1331 
L 506 -1331 
L 506 -850 
L 844 -850 
Q 1081 -850 1212 -737 
Q 1344 -625 1503 -206 
L 1606 56 
L 191 3500 
L 800 3500 
L 1894 763 
L 2988 3500 
L 3597 3500 
L 2059 -325 
z
" transform="scale(0.015625)"/>
      <path id="DejaVuSans-65" d="M 3597 1894 
L 3597 1613 
L 953 1613 
Q 991 1019 1311 708 
Q 1631 397 2203 397 
Q 2534 397 2845 478 
Q 3156 559 3463 722 
L 3463 178 
Q 3153 47 2828 -22 
Q 2503 -91 2169 -91 
Q 1331 -91 842 396 
Q 353 884 353 1716 
Q 353 2575 817 3079 
Q 1281 3584 2069 3584 
Q 2775 3584 3186 3129 
Q 3597 2675 3597 1894 
z
M 3022 2063 
Q 3016 2534 2758 2815 
Q 2500 3097 2075 3097 
Q 1594 3097 1305 2825 
Q 1016 2553 972 2059 
L 3022 2063 
z
" transform="scale(0.015625)"/>
      <path id="DejaVuSans-74" d="M 1172 4494 
L 1172 3500 
L 2356 3500 
L 2356 3053 
L 1172 3053 
L 1172 1153 
Q 1172 725 1289 603 
Q 1406 481 1766 481 
L 2356 481 
L 2356 0 
L 1766 0 
Q 1100 0 847 248 
Q 594 497 594 1153 
L 594 3053 
L 172 3053 
L 172 3500 
L 594 3500 
L 594 4494 
L 1172 4494 
z
" transform="scale(0.015625)"/>
      <path id="DejaVuSans-77" d="M 269 3500 
L 844 3500 
L 1563 769 
L 2278 3500 
L 2956 3500 
L 3675 769 
L 4391 3500 
L 4966 3500 
L 4050 0 
L 3372 0 
L 2619 2869 
L 1863 0 
L 1184 0 
L 269 3500 
z
" transform="scale(0.015625)"/>
      <path id="DejaVuSans-78" d="M 3513 3500 
L 2247 1797 
L 3578 0 
L 2900 0 
L 1881 1375 
L 863 0 
L 184 0 
L 1544 1831 
L 300 3500 
L 978 3500 
L 1906 2253 
L 2834 3500 
L 3513 3500 
z
" transform="scale(0.015625)"/>
      <path id="DejaVuSans-6c" d="M 603 4863 
L 1178 4863 
L 1178 0 
L 603 0 
L 603 4863 
z
" transform="scale(0.015625)"/>
      <path id="DejaVuSans-67" d="M 2906 1791 
Q 2906 2416 2648 2759 
Q 2391 3103 1925 3103 
Q 1463 3103 1205 2759 
Q 947 2416 947 1791 
Q 947 1169 1205 825 
Q 1463 481 1925 481 
Q 2391 481 2648 825 
Q 2906 1169 2906 1791 
z
M 3481 434 
Q 3481 -459 3084 -895 
Q 2688 -1331 1869 -1331 
Q 1566 -1331 1297 -1286 
Q 1028 -1241 775 -1147 
L 775 -588 
Q 1028 -725 1275 -790 
Q 1522 -856 1778 -856 
Q 2344 -856 2625 -561 
Q 2906 -266 2906 331 
L 2906 616 
Q 2728 306 2450 153 
Q 2172 0 1784 0 
Q 1141 0 747 490 
Q 353 981 353 1791 
Q 353 2603 747 3093 
Q 1141 3584 1784 3584 
Q 2172 3584 2450 3431 
Q 2728 3278 2906 2969 
L 2906 3500 
L 3481 3500 
L 3481 434 
z
" transform="scale(0.015625)"/>
      <path id="DejaVuSans-64" d="M 2906 2969 
L 2906 4863 
L 3481 4863 
L 3481 0 
L 2906 0 
L 2906 525 
Q 2725 213 2448 61 
Q 2172 -91 1784 -91 
Q 1150 -91 751 415 
Q 353 922 353 1747 
Q 353 2572 751 3078 
Q 1150 3584 1784 3584 
Q 2172 3584 2448 3432 
Q 2725 3281 2906 2969 
z
M 947 1747 
Q 947 1113 1208 752 
Q 1469 391 1925 391 
Q 2381 391 2643 752 
Q 2906 1113 2906 1747 
Q 2906 2381 2643 2742 
Q 2381 3103 1925 3103 
Q 1469 3103 1208 2742 
Q 947 2381 947 1747 
z
" transform="scale(0.015625)"/>
      <path id="DejaVuSans-42" d="M 1259 2228 
L 1259 519 
L 2272 519 
Q 2781 519 3026 730 
Q 3272 941 3272 1375 
Q 3272 1813 3026 2020 
Q 2781 2228 2272 2228 
L 1259 2228 
z
M 1259 4147 
L 1259 2741 
L 2194 2741 
Q 2656 2741 2882 2914 
Q 3109 3088 3109 3444 
Q 3109 3797 2882 3972 
Q 2656 4147 2194 4147 
L 1259 4147 
z
M 628 4666 
L 2241 4666 
Q 2963 4666 3353 4366 
Q 3744 4066 3744 3513 
Q 3744 3084 3544 2831 
Q 3344 2578 2956 2516 
Q 3422 2416 3680 2098 
Q 3938 1781 3938 1306 
Q 3938 681 3513 340 
Q 3088 0 2303 0 
L 628 0 
L 628 4666 
z
" transform="scale(0.015625)"/>
      <path id="DejaVuSans-75" d="M 544 1381 
L 544 3500 
L 1119 3500 
L 1119 1403 
Q 1119 906 1312 657 
Q 1506 409 1894 409 
Q 2359 409 2629 706 
Q 2900 1003 2900 1516 
L 2900 3500 
L 3475 3500 
L 3475 0 
L 2900 0 
L 2900 538 
Q 2691 219 2414 64 
Q 2138 -91 1772 -91 
Q 1169 -91 856 284 
Q 544 659 544 1381 
z
M 1991 3584 
L 1991 3584 
z
" transform="scale(0.015625)"/>
      <path id="DejaVuSans-4f" d="M 2522 4238 
Q 1834 4238 1429 3725 
Q 1025 3213 1025 2328 
Q 1025 1447 1429 934 
Q 1834 422 2522 422 
Q 3209 422 3611 934 
Q 4013 1447 4013 2328 
Q 4013 3213 3611 3725 
Q 3209 4238 2522 4238 
z
M 2522 4750 
Q 3503 4750 4090 4092 
Q 4678 3434 4678 2328 
Q 4678 1225 4090 567 
Q 3503 -91 2522 -91 
Q 1538 -91 948 565 
Q 359 1222 359 2328 
Q 359 3434 948 4092 
Q 1538 4750 2522 4750 
z
" transform="scale(0.015625)"/>
     </defs>
     <use xlink:href="#DejaVuSans-43"/>
     <use xlink:href="#DejaVuSans-6f" transform="translate(69.824219 0)"/>
     <use xlink:href="#DejaVuSans-6d" transform="translate(131.005859 0)"/>
     <use xlink:href="#DejaVuSans-70" transform="translate(228.417969 0)"/>
     <use xlink:href="#DejaVuSans-61" transform="translate(291.894531 0)"/>
     <use xlink:href="#DejaVuSans-72" transform="translate(353.173828 0)"/>
     <use xlink:href="#DejaVuSans-69" transform="translate(394.287109 0)"/>
     <use xlink:href="#DejaVuSans-73" transform="translate(422.070312 0)"/>
     <use xlink:href="#DejaVuSans-6f" transform="translate(474.169922 0)"/>
     <use xlink:href="#DejaVuSans-6e" transform="translate(535.351562 0)"/>
     <use xlink:href="#DejaVuSans-20" transform="translate(598.730469 0)"/>
     <use xlink:href="#DejaVuSans-62" transform="translate(630.517578 0)"/>
     <use xlink:href="#DejaVuSans-79" transform="translate(693.994141 0)"/>
     <use xlink:href="#DejaVuSans-20" transform="translate(753.173828 0)"/>
     <use xlink:href="#DejaVuSans-6d" transform="translate(784.960938 0)"/>
     <use xlink:href="#DejaVuSans-41" transform="translate(882.373047 0)"/>
     <use xlink:href="#DejaVuSans-50" transform="translate(950.78125 0)"/>
     <use xlink:href="#DejaVuSans-40" transform="translate(1011.083984 0)"/>
     <use xlink:href="#DejaVuSans-35" transform="translate(1111.083984 0)"/>
     <use xlink:href="#DejaVuSans-30" transform="translate(1174.707031 0)"/>
     <use xlink:href="#DejaVuSans-2d" transform="translate(1238.330078 0)"/>
     <use xlink:href="#DejaVuSans-39" transform="translate(1274.414062 0)"/>
     <use xlink:href="#DejaVuSans-35" transform="translate(1338.037109 0)"/>
     <use xlink:href="#DejaVuSans-20" transform="translate(1401.660156 0)"/>
     <use xlink:href="#DejaVuSans-62" transform="translate(1433.447266 0)"/>
     <use xlink:href="#DejaVuSans-65" transform="translate(1496.923828 0)"/>
     <use xlink:href="#DejaVuSans-74" transform="translate(1558.447266 0)"/>
     <use xlink:href="#DejaVuSans-77" transform="translate(1597.65625 0)"/>
     <use xlink:href="#DejaVuSans-65" transform="translate(1679.443359 0)"/>
     <use xlink:href="#DejaVuSans-65" transform="translate(1740.966797 0)"/>
     <use xlink:href="#DejaVuSans-6e" transform="translate(1802.490234 0)"/>
     <use xlink:href="#DejaVuSans-20" transform="translate(1865.869141 0)"/>
     <use xlink:href="#DejaVuSans-41" transform="translate(1897.65625 0)"/>
     <use xlink:href="#DejaVuSans-78" transform="translate(1966.064453 0)"/>
     <use xlink:href="#DejaVuSans-69" transform="translate(2025.244141 0)"/>
     <use xlink:href="#DejaVuSans-73" transform="translate(2053.027344 0)"/>
     <use xlink:href="#DejaVuSans-20" transform="translate(2105.126953 0)"/>
     <use xlink:href="#DejaVuSans-41" transform="translate(2136.914062 0)"/>
     <use xlink:href="#DejaVuSans-6c" transform="translate(2205.322266 0)"/>
     <use xlink:href="#DejaVuSans-69" transform="translate(2233.105469 0)"/>
     <use xlink:href="#DejaVuSans-67" transform="translate(2260.888672 0)"/>
     <use xlink:href="#DejaVuSans-6e" transform="translate(2324.365234 0)"/>
     <use xlink:href="#DejaVuSans-65" transform="translate(2387.744141 0)"/>
     <use xlink:href="#DejaVuSans-64" transform="translate(2449.267578 0)"/>
     <use xlink:href="#DejaVuSans-20" transform="translate(2512.744141 0)"/>
     <use xlink:href="#DejaVuSans-42" transform="translate(2544.53125 0)"/>
     <use xlink:href="#DejaVuSans-6f" transform="translate(2613.134766 0)"/>
     <use xlink:href="#DejaVuSans-75" transform="translate(2674.316406 0)"/>
     <use xlink:href="#DejaVuSans-6e" transform="translate(2737.695312 0)"/>
     <use xlink:href="#DejaVuSans-64" transform="translate(2801.074219 0)"/>
     <use xlink:href="#DejaVuSans-69" transform="translate(2864.550781 0)"/>
     <use xlink:href="#DejaVuSans-6e" transform="translate(2892.333984 0)"/>
     <use xlink:href="#DejaVuSans-67" transform="translate(2955.712891 0)"/>
     <use xlink:href="#DejaVuSans-20" transform="translate(3019.189453 0)"/>
     <use xlink:href="#DejaVuSans-42" transform="translate(3050.976562 0)"/>
     <use xlink:href="#DejaVuSans-6f" transform="translate(3119.580078 0)"/>
     <use xlink:href="#DejaVuSans-78" transform="translate(3177.636719 0)"/>
     <use xlink:href="#DejaVuSans-65" transform="translate(3233.691406 0)"/>
     <use xlink:href="#DejaVuSans-73" transform="translate(3295.214844 0)"/>
     <use xlink:href="#DejaVuSans-20" transform="translate(3347.314453 0)"/>
     <use xlink:href="#DejaVuSans-61" transform="translate(3379.101562 0)"/>
     <use xlink:href="#DejaVuSans-6e" transform="translate(3440.380859 0)"/>
     <use xlink:href="#DejaVuSans-64" transform="translate(3503.759766 0)"/>
     <use xlink:href="#DejaVuSans-20" transform="translate(3567.236328 0)"/>
     <use xlink:href="#DejaVuSans-4f" transform="translate(3599.023438 0)"/>
     <use xlink:href="#DejaVuSans-72" transform="translate(3677.734375 0)"/>
     <use xlink:href="#DejaVuSans-69" transform="translate(3718.847656 0)"/>
     <use xlink:href="#DejaVuSans-65" transform="translate(3746.630859 0)"/>
     <use xlink:href="#DejaVuSans-6e" transform="translate(3808.154297 0)"/>
     <use xlink:href="#DejaVuSans-74" transform="translate(3871.533203 0)"/>
     <use xlink:href="#DejaVuSans-65" transform="translate(3910.742188 0)"/>
     <use xlink:href="#DejaVuSans-64" transform="translate(3972.265625 0)"/>
     <use xlink:href="#DejaVuSans-20" transform="translate(4035.742188 0)"/>
     <use xlink:href="#DejaVuSans-42" transform="translate(4067.529297 0)"/>
     <use xlink:href="#DejaVuSans-6f" transform="translate(4136.132812 0)"/>
     <use xlink:href="#DejaVuSans-75" transform="translate(4197.314453 0)"/>
     <use xlink:href="#DejaVuSans-6e" transform="translate(4260.693359 0)"/>
     <use xlink:href="#DejaVuSans-64" transform="translate(4324.072266 0)"/>
     <use xlink:href="#DejaVuSans-69" transform="translate(4387.548828 0)"/>
     <use xlink:href="#DejaVuSans-6e" transform="translate(4415.332031 0)"/>
     <use xlink:href="#DejaVuSans-67" transform="translate(4478.710938 0)"/>
     <use xlink:href="#DejaVuSans-20" transform="translate(4542.1875 0)"/>
     <use xlink:href="#DejaVuSans-42" transform="translate(4573.974609 0)"/>
     <use xlink:href="#DejaVuSans-6f" transform="translate(4642.578125 0)"/>
     <use xlink:href="#DejaVuSans-78" transform="translate(4700.634766 0)"/>
     <use xlink:href="#DejaVuSans-65" transform="translate(4756.689453 0)"/>
     <use xlink:href="#DejaVuSans-73" transform="translate(4818.212891 0)"/>
    </g>
   </g>
   <g id="legend_1">
    <g id="patch_5">
     <path d="M 54.72 78.914375 
L 231.68875 78.914375 
Q 233.68875 78.914375 233.68875 76.914375 
L 233.68875 33.88 
Q 233.68875 31.88 231.68875 31.88 
L 54.72 31.88 
Q 52.72 31.88 52.72 33.88 
L 52.72 76.914375 
Q 52.72 78.914375 54.72 78.914375 
z
" style="fill: #ffffff; opacity: 0.8; stroke: #cccccc; stroke-linejoin: miter"/>
    </g>
    <g id="text_20">
     <!-- Modell -->
     <g transform="translate(126.802031 43.478437) scale(0.1 -0.1)">
      <defs>
       <path id="DejaVuSans-4d" d="M 628 4666 
L 1569 4666 
L 2759 1491 
L 3956 4666 
L 4897 4666 
L 4897 0 
L 4281 0 
L 4281 4097 
L 3078 897 
L 2444 897 
L 1241 4097 
L 1241 0 
L 628 0 
L 628 4666 
z
" transform="scale(0.015625)"/>
      </defs>
      <use xlink:href="#DejaVuSans-4d"/>
      <use xlink:href="#DejaVuSans-6f" transform="translate(86.279297 0)"/>
      <use xlink:href="#DejaVuSans-64" transform="translate(147.460938 0)"/>
      <use xlink:href="#DejaVuSans-65" transform="translate(210.9375 0)"/>
      <use xlink:href="#DejaVuSans-6c" transform="translate(272.460938 0)"/>
      <use xlink:href="#DejaVuSans-6c" transform="translate(300.244141 0)"/>
     </g>
    </g>
    <g id="line2d_37">
     <path d="M 56.72 54.656562 
L 66.72 54.656562 
L 76.72 54.656562 
" style="fill: none; stroke: #1f77b4; stroke-width: 0.8; stroke-linecap: square"/>
    </g>
    <g id="text_21">
     <!-- Axis Aligned Bounding Boxes -->
     <g transform="translate(84.72 58.156562) scale(0.1 -0.1)">
      <use xlink:href="#DejaVuSans-41"/>
      <use xlink:href="#DejaVuSans-78" transform="translate(68.408203 0)"/>
      <use xlink:href="#DejaVuSans-69" transform="translate(127.587891 0)"/>
      <use xlink:href="#DejaVuSans-73" transform="translate(155.371094 0)"/>
      <use xlink:href="#DejaVuSans-20" transform="translate(207.470703 0)"/>
      <use xlink:href="#DejaVuSans-41" transform="translate(239.257812 0)"/>
      <use xlink:href="#DejaVuSans-6c" transform="translate(307.666016 0)"/>
      <use xlink:href="#DejaVuSans-69" transform="translate(335.449219 0)"/>
      <use xlink:href="#DejaVuSans-67" transform="translate(363.232422 0)"/>
      <use xlink:href="#DejaVuSans-6e" transform="translate(426.708984 0)"/>
      <use xlink:href="#DejaVuSans-65" transform="translate(490.087891 0)"/>
      <use xlink:href="#DejaVuSans-64" transform="translate(551.611328 0)"/>
      <use xlink:href="#DejaVuSans-20" transform="translate(615.087891 0)"/>
      <use xlink:href="#DejaVuSans-42" transform="translate(646.875 0)"/>
      <use xlink:href="#DejaVuSans-6f" transform="translate(715.478516 0)"/>
      <use xlink:href="#DejaVuSans-75" transform="translate(776.660156 0)"/>
      <use xlink:href="#DejaVuSans-6e" transform="translate(840.039062 0)"/>
      <use xlink:href="#DejaVuSans-64" transform="translate(903.417969 0)"/>
      <use xlink:href="#DejaVuSans-69" transform="translate(966.894531 0)"/>
      <use xlink:href="#DejaVuSans-6e" transform="translate(994.677734 0)"/>
      <use xlink:href="#DejaVuSans-67" transform="translate(1058.056641 0)"/>
      <use xlink:href="#DejaVuSans-20" transform="translate(1121.533203 0)"/>
      <use xlink:href="#DejaVuSans-42" transform="translate(1153.320312 0)"/>
      <use xlink:href="#DejaVuSans-6f" transform="translate(1221.923828 0)"/>
      <use xlink:href="#DejaVuSans-78" transform="translate(1279.980469 0)"/>
      <use xlink:href="#DejaVuSans-65" transform="translate(1336.035156 0)"/>
      <use xlink:href="#DejaVuSans-73" transform="translate(1397.558594 0)"/>
     </g>
    </g>
    <g id="line2d_38">
     <path d="M 56.72 69.334687 
L 66.72 69.334687 
L 76.72 69.334687 
" style="fill: none; stroke: #ff7f0e; stroke-width: 0.8; stroke-linecap: square"/>
    </g>
    <g id="text_22">
     <!-- Oriented Bounding Boxen -->
     <g transform="translate(84.72 72.834687) scale(0.1 -0.1)">
      <use xlink:href="#DejaVuSans-4f"/>
      <use xlink:href="#DejaVuSans-72" transform="translate(78.710938 0)"/>
      <use xlink:href="#DejaVuSans-69" transform="translate(119.824219 0)"/>
      <use xlink:href="#DejaVuSans-65" transform="translate(147.607422 0)"/>
      <use xlink:href="#DejaVuSans-6e" transform="translate(209.130859 0)"/>
      <use xlink:href="#DejaVuSans-74" transform="translate(272.509766 0)"/>
      <use xlink:href="#DejaVuSans-65" transform="translate(311.71875 0)"/>
      <use xlink:href="#DejaVuSans-64" transform="translate(373.242188 0)"/>
      <use xlink:href="#DejaVuSans-20" transform="translate(436.71875 0)"/>
      <use xlink:href="#DejaVuSans-42" transform="translate(468.505859 0)"/>
      <use xlink:href="#DejaVuSans-6f" transform="translate(537.109375 0)"/>
      <use xlink:href="#DejaVuSans-75" transform="translate(598.291016 0)"/>
      <use xlink:href="#DejaVuSans-6e" transform="translate(661.669922 0)"/>
      <use xlink:href="#DejaVuSans-64" transform="translate(725.048828 0)"/>
      <use xlink:href="#DejaVuSans-69" transform="translate(788.525391 0)"/>
      <use xlink:href="#DejaVuSans-6e" transform="translate(816.308594 0)"/>
      <use xlink:href="#DejaVuSans-67" transform="translate(879.6875 0)"/>
      <use xlink:href="#DejaVuSans-20" transform="translate(943.164062 0)"/>
      <use xlink:href="#DejaVuSans-42" transform="translate(974.951172 0)"/>
      <use xlink:href="#DejaVuSans-6f" transform="translate(1043.554688 0)"/>
      <use xlink:href="#DejaVuSans-78" transform="translate(1101.611328 0)"/>
      <use xlink:href="#DejaVuSans-65" transform="translate(1157.666016 0)"/>
      <use xlink:href="#DejaVuSans-6e" transform="translate(1219.189453 0)"/>
     </g>
    </g>
   </g>
  </g>
 </g>
 <defs>
  <clipPath id="pd660056ca3">
   <rect x="47.72" y="26.88" width="805.48" height="435.16"/>
  </clipPath>
 </defs>
</svg>
